monoOne-Regular.ufo
<glyph name="exclam" format="1">
  <advance width="1150"/>
  <unicode hex="0021"/>
  <outline>
    <contour>
      <point x="520" y="1400" type="line" smooth="yes"/>
      <point x="487" y="1400"/>
      <point x="469" y="1382"/>
      <point x="470" y="1349" type="curve" smooth="yes"/>
      <point x="501" y="459" type="line" smooth="yes"/>
      <point x="502" y="427"/>
      <point x="520" y="410"/>
      <point x="552" y="410" type="curve" smooth="yes"/>
      <point x="598" y="410" type="line" smooth="yes"/>
      <point x="630" y="410"/>
      <point x="648" y="427"/>
      <point x="649" y="459" type="curve" smooth="yes"/>
      <point x="680" y="1349" type="line" smooth="yes"/>
      <point x="681" y="1382"/>
      <point x="663" y="1400"/>
      <point x="630" y="1400" type="curve" smooth="yes"/>
    </contour>
    <contour>
      <point x="660" y="123" type="line" smooth="yes"/>
      <point x="660" y="155"/>
      <point x="643" y="173"/>
      <point x="610" y="173" type="curve" smooth="yes"/>
      <point x="540" y="173" type="line" smooth="yes"/>
      <point x="508" y="173"/>
      <point x="490" y="155"/>
      <point x="490" y="123" type="curve" smooth="yes"/>
      <point x="490" y="30" type="line" smooth="yes"/>
      <point x="490" y="-3"/>
      <point x="507" y="-20"/>
      <point x="540" y="-20" type="curve" smooth="yes"/>
      <point x="610" y="-20" type="line" smooth="yes"/>
      <point x="643" y="-20"/>
      <point x="660" y="-3"/>
      <point x="660" y="30" type="curve" smooth="yes"/>
    </contour>
  </outline>
</glyph>
<glyph name="quotedbl" format="1">
  <advance width="1150"/>
  <unicode hex="0022"/>
  <outline>
    <contour>
      <point x="749" y="1500" type="line" smooth="yes"/>
      <point x="716" y="1500"/>
      <point x="698" y="1482"/>
      <point x="700" y="1449" type="curve" smooth="yes"/>
      <point x="725" y="874" type="line" smooth="yes"/>
      <point x="727" y="842"/>
      <point x="744" y="825"/>
      <point x="776" y="825" type="curve" smooth="yes"/>
      <point x="831" y="825" type="line" smooth="yes"/>
      <point x="863" y="825"/>
      <point x="881" y="842"/>
      <point x="882" y="874" type="curve" smooth="yes"/>
      <point x="908" y="1449" type="line" smooth="yes"/>
      <point x="909" y="1482"/>
      <point x="892" y="1500"/>
      <point x="859" y="1500" type="curve" smooth="yes"/>
    </contour>
    <contour>
      <point x="291" y="1500" type="line" smooth="yes"/>
      <point x="258" y="1500"/>
      <point x="241" y="1482"/>
      <point x="242" y="1449" type="curve" smooth="yes"/>
      <point x="268" y="874" type="line" smooth="yes"/>
      <point x="269" y="842"/>
      <point x="287" y="825"/>
      <point x="319" y="825" type="curve" smooth="yes"/>
      <point x="374" y="825" type="line" smooth="yes"/>
      <point x="406" y="825"/>
      <point x="423" y="842"/>
      <point x="425" y="874" type="curve" smooth="yes"/>
      <point x="450" y="1449" type="line" smooth="yes"/>
      <point x="452" y="1482"/>
      <point x="434" y="1500"/>
      <point x="401" y="1500" type="curve" smooth="yes"/>
    </contour>
  </outline>
</glyph>
<glyph name="numbersign" format="1">
  <advance width="1150"/>
  <unicode hex="0023"/>
  <outline>
    <contour>
      <point x="998" y="848" type="line" smooth="yes"/>
      <point x="1030" y="848"/>
      <point x="1048" y="865"/>
      <point x="1048" y="898" type="curve" smooth="yes"/>
      <point x="1048" y="951" type="line" smooth="yes"/>
      <point x="1048" y="983"/>
      <point x="1030" y="1001"/>
      <point x="998" y="1001" type="curve" smooth="yes"/>
      <point x="865" y="1001" type="line"/>
      <point x="865" y="1350" type="line" smooth="yes"/>
      <point x="865" y="1383"/>
      <point x="847" y="1400"/>
      <point x="815" y="1400" type="curve" smooth="yes"/>
      <point x="745" y="1400" type="line" smooth="yes"/>
      <point x="712" y="1400"/>
      <point x="695" y="1382"/>
      <point x="695" y="1350" type="curve" smooth="yes"/>
      <point x="695" y="1001" type="line"/>
      <point x="455" y="1001" type="line"/>
      <point x="455" y="1350" type="line" smooth="yes"/>
      <point x="455" y="1383"/>
      <point x="438" y="1400"/>
      <point x="405" y="1400" type="curve" smooth="yes"/>
      <point x="335" y="1400" type="line" smooth="yes"/>
      <point x="303" y="1400"/>
      <point x="285" y="1382"/>
      <point x="285" y="1350" type="curve" smooth="yes"/>
      <point x="285" y="1001" type="line"/>
      <point x="152" y="1001" type="line" smooth="yes"/>
      <point x="120" y="1001"/>
      <point x="102" y="983"/>
      <point x="102" y="950" type="curve" smooth="yes"/>
      <point x="102" y="898" type="line" smooth="yes"/>
      <point x="102" y="865"/>
      <point x="120" y="848"/>
      <point x="152" y="848" type="curve" smooth="yes"/>
      <point x="285" y="848" type="line"/>
      <point x="285" y="539" type="line"/>
      <point x="152" y="539" type="line" smooth="yes"/>
      <point x="120" y="539"/>
      <point x="102" y="521"/>
      <point x="102" y="488" type="curve" smooth="yes"/>
      <point x="102" y="436" type="line" smooth="yes"/>
      <point x="102" y="403"/>
      <point x="120" y="386"/>
      <point x="152" y="386" type="curve" smooth="yes"/>
      <point x="285" y="386" type="line"/>
      <point x="285" y="50" type="line" smooth="yes"/>
      <point x="285" y="18"/>
      <point x="303" y="0"/>
      <point x="335" y="0" type="curve" smooth="yes"/>
      <point x="405" y="0" type="line" smooth="yes"/>
      <point x="438" y="0"/>
      <point x="455" y="18"/>
      <point x="455" y="50" type="curve" smooth="yes"/>
      <point x="455" y="386" type="line"/>
      <point x="695" y="386" type="line"/>
      <point x="695" y="50" type="line" smooth="yes"/>
      <point x="695" y="18"/>
      <point x="712" y="0"/>
      <point x="745" y="0" type="curve" smooth="yes"/>
      <point x="815" y="0" type="line" smooth="yes"/>
      <point x="847" y="0"/>
      <point x="865" y="18"/>
      <point x="865" y="50" type="curve" smooth="yes"/>
      <point x="865" y="386" type="line"/>
      <point x="998" y="386" type="line" smooth="yes"/>
      <point x="1030" y="386"/>
      <point x="1048" y="403"/>
      <point x="1048" y="436" type="curve" smooth="yes"/>
      <point x="1048" y="489" type="line" smooth="yes"/>
      <point x="1048" y="521"/>
      <point x="1030" y="539"/>
      <point x="998" y="539" type="curve" smooth="yes"/>
      <point x="865" y="539" type="line"/>
      <point x="865" y="848" type="line"/>
    </contour>
    <contour>
      <point x="695" y="539" type="line"/>
      <point x="455" y="539" type="line"/>
      <point x="455" y="848" type="line"/>
      <point x="695" y="848" type="line"/>
    </contour>
  </outline>
</glyph>
<glyph name="dollar" format="1">
  <advance width="1150"/>
  <unicode hex="0024"/>
  <outline>
    <contour>
      <point x="540" y="1500" type="line" smooth="yes"/>
      <point x="507" y="1500"/>
      <point x="490" y="1483"/>
      <point x="490" y="1450" type="curve" smooth="yes"/>
      <point x="490" y="-250" type="line" smooth="yes"/>
      <point x="490" y="-283"/>
      <point x="507" y="-300"/>
      <point x="540" y="-300" type="curve" smooth="yes"/>
      <point x="610" y="-300" type="line" smooth="yes"/>
      <point x="643" y="-300"/>
      <point x="660" y="-282"/>
      <point x="660" y="-250" type="curve" smooth="yes"/>
      <point x="660" y="1450" type="line" smooth="yes"/>
      <point x="660" y="1483"/>
      <point x="642" y="1500"/>
      <point x="610" y="1500" type="curve" smooth="yes"/>
    </contour>
    <contour>
      <point x="945" y="1134" type="line" smooth="yes"/>
      <point x="954" y="1166"/>
      <point x="940" y="1188"/>
      <point x="907" y="1195" type="curve" smooth="yes"/>
      <point x="792" y="1216"/>
      <point x="660" y="1220"/>
      <point x="593" y="1220" type="curve" smooth="yes"/>
      <point x="286" y="1220"/>
      <point x="119" y="1099"/>
      <point x="119" y="876" type="curve" smooth="yes"/>
      <point x="119" y="642"/>
      <point x="280" y="512"/>
      <point x="575" y="512" type="curve" smooth="yes"/>
      <point x="762" y="512"/>
      <point x="864" y="454"/>
      <point x="864" y="343" type="curve" smooth="yes"/>
      <point x="864" y="207"/>
      <point x="742" y="133"/>
      <point x="517" y="133" type="curve" smooth="yes"/>
      <point x="459" y="133"/>
      <point x="317" y="136"/>
      <point x="196" y="157" type="curve" smooth="yes"/>
      <point x="164" y="162"/>
      <point x="143" y="149"/>
      <point x="136" y="118" type="curve" smooth="yes"/>
      <point x="124" y="65" type="line" smooth="yes"/>
      <point x="117" y="33"/>
      <point x="131" y="11"/>
      <point x="164" y="6" type="curve" smooth="yes"/>
      <point x="296" y="-16"/>
      <point x="445" y="-20"/>
      <point x="517" y="-20" type="curve" smooth="yes"/>
      <point x="853" y="-20"/>
      <point x="1036" y="104"/>
      <point x="1036" y="331" type="curve" smooth="yes"/>
      <point x="1036" y="545"/>
      <point x="874" y="665"/>
      <point x="575" y="665" type="curve" smooth="yes"/>
      <point x="390" y="665"/>
      <point x="289" y="737"/>
      <point x="289" y="874" type="curve" smooth="yes"/>
      <point x="289" y="999"/>
      <point x="396" y="1067"/>
      <point x="593" y="1067" type="curve" smooth="yes"/>
      <point x="642" y="1067"/>
      <point x="769" y="1064"/>
      <point x="871" y="1045" type="curve" smooth="yes"/>
      <point x="903" y="1039"/>
      <point x="924" y="1051"/>
      <point x="932" y="1082" type="curve" smooth="yes"/>
    </contour>
  </outline>
</glyph>
<glyph name="percent" format="1">
  <advance width="1150"/>
  <unicode hex="0025"/>
  <outline>
    <contour>
      <point x="152" y="131" type="line" smooth="yes"/>
      <point x="176" y="109"/>
      <point x="200" y="110"/>
      <point x="222" y="132" type="curve" smooth="yes"/>
      <point x="1047" y="957" type="line" smooth="yes"/>
      <point x="1070" y="980"/>
      <point x="1069" y="1005"/>
      <point x="1045" y="1027" type="curve" smooth="yes"/>
      <point x="998" y="1069" type="line" smooth="yes"/>
      <point x="974" y="1091"/>
      <point x="950" y="1090"/>
      <point x="928" y="1068" type="curve" smooth="yes"/>
      <point x="103" y="243" type="line" smooth="yes"/>
      <point x="80" y="220"/>
      <point x="81" y="195"/>
      <point x="105" y="173" type="curve" smooth="yes"/>
    </contour>
    <contour>
      <point x="175" y="1200" type="line" smooth="yes"/>
      <point x="142" y="1200"/>
      <point x="125" y="1183"/>
      <point x="125" y="1150" type="curve" smooth="yes"/>
      <point x="125" y="970" type="line" smooth="yes"/>
      <point x="125" y="938"/>
      <point x="143" y="920"/>
      <point x="175" y="920" type="curve" smooth="yes"/>
      <point x="375" y="920" type="line" smooth="yes"/>
      <point x="408" y="920"/>
      <point x="425" y="937"/>
      <point x="425" y="970" type="curve" smooth="yes"/>
      <point x="425" y="1150" type="line" smooth="yes"/>
      <point x="425" y="1183"/>
      <point x="407" y="1200"/>
      <point x="375" y="1200" type="curve" smooth="yes"/>
    </contour>
    <contour>
      <point x="775" y="280" type="line" smooth="yes"/>
      <point x="742" y="280"/>
      <point x="725" y="263"/>
      <point x="725" y="230" type="curve" smooth="yes"/>
      <point x="725" y="50" type="line" smooth="yes"/>
      <point x="725" y="18"/>
      <point x="743" y="0"/>
      <point x="775" y="0" type="curve" smooth="yes"/>
      <point x="975" y="0" type="line" smooth="yes"/>
      <point x="1008" y="0"/>
      <point x="1025" y="17"/>
      <point x="1025" y="50" type="curve" smooth="yes"/>
      <point x="1025" y="230" type="line" smooth="yes"/>
      <point x="1025" y="263"/>
      <point x="1007" y="280"/>
      <point x="975" y="280" type="curve" smooth="yes"/>
    </contour>
  </outline>
</glyph>
<glyph name="ampersand" format="1">
  <advance width="1150"/>
  <unicode hex="0026"/>
  <outline>
    <contour>
      <point x="327" y="153"/>
      <point x="272" y="215"/>
      <point x="272" y="328" type="curve" smooth="yes"/>
      <point x="272" y="424"/>
      <point x="328" y="520"/>
      <point x="432" y="601" type="curve"/>
      <point x="610" y="244" type="line"/>
      <point x="551" y="185"/>
      <point x="487" y="153"/>
      <point x="428" y="153" type="curve" smooth="yes"/>
    </contour>
    <contour>
      <point x="693" y="1359" type="line" smooth="yes"/>
      <point x="694" y="1390"/>
      <point x="681" y="1411"/>
      <point x="650" y="1414" type="curve" smooth="yes"/>
      <point x="617" y="1418"/>
      <point x="569" y="1420"/>
      <point x="509" y="1420" type="curve" smooth="yes"/>
      <point x="445" y="1420"/>
      <point x="381" y="1419"/>
      <point x="319" y="1385" type="curve" smooth="yes"/>
      <point x="233" y="1338"/>
      <point x="197" y="1249"/>
      <point x="197" y="1170" type="curve" smooth="yes"/>
      <point x="197" y="1126"/>
      <point x="207" y="1081"/>
      <point x="221" y="1039" type="curve" smooth="yes"/>
      <point x="242" y="977"/>
      <point x="273" y="919"/>
      <point x="302" y="860" type="curve" smooth="yes"/>
      <point x="359" y="746" type="line"/>
      <point x="192" y="627"/>
      <point x="102" y="480"/>
      <point x="102" y="328" type="curve" smooth="yes"/>
      <point x="102" y="115"/>
      <point x="217" y="0"/>
      <point x="428" y="0" type="curve" smooth="yes"/>
      <point x="536" y="0"/>
      <point x="627" y="33"/>
      <point x="687" y="93" type="curve"/>
      <point x="704" y="62"/>
      <point x="727" y="35"/>
      <point x="765" y="19" type="curve" smooth="yes"/>
      <point x="806" y="0"/>
      <point x="853" y="0"/>
      <point x="898" y="0" type="curve" smooth="yes"/>
      <point x="981" y="0" type="line" smooth="yes"/>
      <point x="1014" y="0"/>
      <point x="1031" y="18"/>
      <point x="1031" y="50.0014" type="curve" smooth="yes"/>
      <point x="1031" y="103" type="line" smooth="yes"/>
      <point x="1031" y="136"/>
      <point x="1014" y="153"/>
      <point x="981" y="153.001" type="curve" smooth="yes"/>
      <point x="902" y="153" type="line" smooth="yes"/>
      <point x="848" y="153"/>
      <point x="840" y="157"/>
      <point x="810" y="216" type="curve"/>
      <point x="1012" y="418" type="line" smooth="yes"/>
      <point x="1036" y="442"/>
      <point x="1035" y="467"/>
      <point x="1011" y="489" type="curve" smooth="yes"/>
      <point x="965" y="530" type="line" smooth="yes"/>
      <point x="941" y="551"/>
      <point x="917" y="551"/>
      <point x="894" y="528" type="curve" smooth="yes"/>
      <point x="734" y="368" type="line"/>
      <point x="454" y="929" type="line" smooth="yes"/>
      <point x="424" y="989"/>
      <point x="360" y="1114"/>
      <point x="360" y="1149" type="curve" smooth="yes"/>
      <point x="359" y="1183"/>
      <point x="372" y="1216"/>
      <point x="401" y="1239" type="curve" smooth="yes"/>
      <point x="434" y="1266"/>
      <point x="467" y="1267"/>
      <point x="509" y="1267" type="curve" smooth="yes"/>
      <point x="561" y="1267"/>
      <point x="604" y="1265"/>
      <point x="635" y="1262" type="curve" smooth="yes"/>
      <point x="669" y="1259"/>
      <point x="688" y="1273"/>
      <point x="690" y="1306" type="curve" smooth="yes"/>
    </contour>
  </outline>
</glyph>
<glyph name="quotesingle" format="1">
  <advance width="1150"/>
  <unicode hex="0027"/>
  <outline>
    <contour>
      <point x="520" y="1500" type="line" smooth="yes"/>
      <point x="487" y="1500"/>
      <point x="470" y="1482"/>
      <point x="471" y="1449" type="curve" smooth="yes"/>
      <point x="496" y="874" type="line" smooth="yes"/>
      <point x="498" y="842"/>
      <point x="515" y="825"/>
      <point x="547" y="825" type="curve" smooth="yes"/>
      <point x="603" y="825" type="line" smooth="yes"/>
      <point x="635" y="825"/>
      <point x="652" y="842"/>
      <point x="654" y="874" type="curve" smooth="yes"/>
      <point x="679" y="1449" type="line" smooth="yes"/>
      <point x="680" y="1482"/>
      <point x="663" y="1500"/>
      <point x="630" y="1500" type="curve" smooth="yes"/>
    </contour>
  </outline>
</glyph>
<glyph name="parenleft" format="1">
  <advance width="1150"/>
  <unicode hex="0028"/>
  <outline>
    <contour>
      <point x="810" y="1439" type="line" smooth="yes"/>
      <point x="793" y="1466"/>
      <point x="769" y="1473"/>
      <point x="742" y="1457" type="curve" smooth="yes"/>
      <point x="595" y="1371"/>
      <point x="469" y="1248"/>
      <point x="381" y="1103" type="curve" smooth="yes"/>
      <point x="284" y="944"/>
      <point x="232" y="758"/>
      <point x="232" y="572" type="curve" smooth="yes"/>
      <point x="232" y="386"/>
      <point x="284" y="200"/>
      <point x="381" y="41" type="curve" smooth="yes"/>
      <point x="469" y="-104"/>
      <point x="595" y="-227"/>
      <point x="742" y="-313" type="curve" smooth="yes"/>
      <point x="769" y="-329"/>
      <point x="793" y="-322"/>
      <point x="810" y="-296" type="curve" smooth="yes"/>
      <point x="830" y="-265" type="line" smooth="yes"/>
      <point x="847" y="-238"/>
      <point x="842" y="-215"/>
      <point x="816" y="-196" type="curve" smooth="yes"/>
      <point x="577" y="-19"/>
      <point x="428" y="274"/>
      <point x="428" y="572" type="curve" smooth="yes"/>
      <point x="428" y="869"/>
      <point x="577" y="1162"/>
      <point x="816" y="1339" type="curve" smooth="yes"/>
      <point x="842" y="1358"/>
      <point x="847" y="1382"/>
      <point x="830" y="1409" type="curve" smooth="yes"/>
    </contour>
  </outline>
</glyph>
<glyph name="parenright" format="1">
  <advance width="1150"/>
  <unicode hex="0029"/>
  <outline>
    <contour>
      <point x="381" y="1473"/>
      <point x="357" y="1466"/>
      <point x="340" y="1439" type="curve" smooth="yes"/>
      <point x="320" y="1409" type="line" smooth="yes"/>
      <point x="303" y="1382"/>
      <point x="308" y="1358"/>
      <point x="334" y="1339" type="curve" smooth="yes"/>
      <point x="573" y="1162"/>
      <point x="722" y="869"/>
      <point x="722" y="572" type="curve" smooth="yes"/>
      <point x="722" y="274"/>
      <point x="573" y="-19"/>
      <point x="334" y="-196" type="curve" smooth="yes"/>
      <point x="308" y="-215"/>
      <point x="303" y="-238"/>
      <point x="320" y="-265" type="curve" smooth="yes"/>
      <point x="340" y="-296" type="line" smooth="yes"/>
      <point x="357" y="-322"/>
      <point x="381" y="-329"/>
      <point x="409" y="-313" type="curve" smooth="yes"/>
      <point x="556" y="-227"/>
      <point x="681" y="-104"/>
      <point x="769" y="41" type="curve" smooth="yes"/>
      <point x="866" y="200"/>
      <point x="918" y="386"/>
      <point x="918" y="572" type="curve" smooth="yes"/>
      <point x="918" y="758"/>
      <point x="866" y="944"/>
      <point x="769" y="1103" type="curve" smooth="yes"/>
      <point x="681" y="1248"/>
      <point x="556" y="1371"/>
      <point x="409" y="1456" type="curve" smooth="yes"/>
    </contour>
  </outline>
</glyph>
<glyph name="asterisk" format="1">
  <advance width="1150"/>
  <unicode hex="002A"/>
  <outline>
    <contour>
      <point x="696" y="576" type="line"/>
      <point x="768" y="698"/>
      <point x="849" y="833"/>
      <point x="927" y="952" type="curve" smooth="yes"/>
      <point x="950" y="987"/>
      <point x="942" y="1000"/>
      <point x="898" y="999" type="curve" smooth="yes"/>
      <point x="813" y="999" type="line" smooth="yes"/>
      <point x="779" y="999"/>
      <point x="761" y="988"/>
      <point x="745" y="958" type="curve" smooth="yes"/>
      <point x="680" y="829"/>
      <point x="645" y="759"/>
      <point x="575" y="633" type="curve"/>
      <point x="505" y="759"/>
      <point x="470" y="829"/>
      <point x="405" y="958" type="curve" smooth="yes"/>
      <point x="389" y="988"/>
      <point x="371" y="999"/>
      <point x="337" y="999" type="curve" smooth="yes"/>
      <point x="252" y="999" type="line" smooth="yes"/>
      <point x="208" y="1000"/>
      <point x="200" y="987"/>
      <point x="223" y="952" type="curve" smooth="yes"/>
      <point x="301" y="833"/>
      <point x="382" y="698"/>
      <point x="454" y="576" type="curve"/>
      <point x="152" y="576" type="line" smooth="yes"/>
      <point x="120" y="576"/>
      <point x="102" y="559"/>
      <point x="102" y="526" type="curve" smooth="yes"/>
      <point x="102" y="474" type="line" smooth="yes"/>
      <point x="102" y="441"/>
      <point x="120" y="424"/>
      <point x="152" y="424" type="curve" smooth="yes"/>
      <point x="454" y="424" type="line"/>
      <point x="382" y="302"/>
      <point x="301" y="167"/>
      <point x="223" y="48" type="curve" smooth="yes"/>
      <point x="200" y="13"/>
      <point x="208" y="0"/>
      <point x="252" y="0" type="curve" smooth="yes"/>
      <point x="337" y="0" type="line" smooth="yes"/>
      <point x="371" y="1"/>
      <point x="389" y="12"/>
      <point x="405" y="42" type="curve" smooth="yes"/>
      <point x="470" y="171"/>
      <point x="505" y="241"/>
      <point x="575" y="367" type="curve"/>
      <point x="645" y="241"/>
      <point x="680" y="171"/>
      <point x="745" y="42" type="curve" smooth="yes"/>
      <point x="761" y="12"/>
      <point x="779" y="1"/>
      <point x="813" y="0" type="curve" smooth="yes"/>
      <point x="898" y="0" type="line" smooth="yes"/>
      <point x="942" y="0"/>
      <point x="950" y="13"/>
      <point x="927" y="48" type="curve" smooth="yes"/>
      <point x="849" y="167"/>
      <point x="768" y="302"/>
      <point x="696" y="424" type="curve"/>
      <point x="998" y="424" type="line" smooth="yes"/>
      <point x="1030" y="424"/>
      <point x="1048" y="441"/>
      <point x="1048" y="474" type="curve" smooth="yes"/>
      <point x="1048" y="526" type="line" smooth="yes"/>
      <point x="1048" y="559"/>
      <point x="1030" y="576"/>
      <point x="998" y="576" type="curve" smooth="yes"/>
    </contour>
  </outline>
</glyph>
<glyph name="plus" format="1">
  <advance width="1150"/>
  <unicode hex="002B"/>
  <outline>
    <contour>
      <point x="1048" y="527" type="line" smooth="yes"/>
      <point x="1048" y="559"/>
      <point x="1031" y="577"/>
      <point x="998" y="577" type="curve" smooth="yes"/>
      <point x="660" y="577" type="line"/>
      <point x="660" y="948" type="line" smooth="yes"/>
      <point x="660" y="981"/>
      <point x="643" y="998"/>
      <point x="610" y="998" type="curve" smooth="yes"/>
      <point x="540" y="998" type="line" smooth="yes"/>
      <point x="508" y="998"/>
      <point x="490" y="980"/>
      <point x="490" y="948" type="curve" smooth="yes"/>
      <point x="490" y="577" type="line"/>
      <point x="152" y="577" type="line" smooth="yes"/>
      <point x="120" y="577"/>
      <point x="102" y="559"/>
      <point x="102" y="526" type="curve" smooth="yes"/>
      <point x="102" y="474" type="line" smooth="yes"/>
      <point x="102" y="441"/>
      <point x="119" y="424"/>
      <point x="152" y="424" type="curve" smooth="yes"/>
      <point x="490" y="424" type="line"/>
      <point x="490" y="52" type="line" smooth="yes"/>
      <point x="490" y="20"/>
      <point x="507" y="2"/>
      <point x="540" y="2" type="curve" smooth="yes"/>
      <point x="610" y="2" type="line" smooth="yes"/>
      <point x="643" y="2"/>
      <point x="660" y="20"/>
      <point x="660" y="52" type="curve" smooth="yes"/>
      <point x="660" y="424" type="line"/>
      <point x="998" y="424" type="line" smooth="yes"/>
      <point x="1031" y="424"/>
      <point x="1048" y="441"/>
      <point x="1048" y="474" type="curve" smooth="yes"/>
    </contour>
  </outline>
</glyph>
<glyph name="comma" format="1">
  <advance width="1150"/>
  <unicode hex="002C"/>
  <outline>
    <contour>
      <point x="475" y="280" type="line" smooth="yes"/>
      <point x="442" y="280"/>
      <point x="425" y="263"/>
      <point x="425" y="230" type="curve" smooth="yes"/>
      <point x="425" y="50" type="line" smooth="yes"/>
      <point x="425" y="18"/>
      <point x="443" y="0"/>
      <point x="475" y="0" type="curve" smooth="yes"/>
      <point x="555" y="0" type="line"/>
      <point x="557" y="-271"/>
      <point x="522.173" y="-332"/>
      <point x="393" y="-341" type="curve" smooth="yes"/>
      <point x="362" y="-343"/>
      <point x="345" y="-359"/>
      <point x="345" y="-391" type="curve" smooth="yes"/>
      <point x="345" y="-445" type="line" smooth="yes"/>
      <point x="345" y="-477"/>
      <point x="363" y="-495"/>
      <point x="395" y="-494" type="curve" smooth="yes"/>
      <point x="665" y="-484"/>
      <point x="725" y="-350"/>
      <point x="725" y="-3" type="curve" smooth="yes"/>
      <point x="725" y="230" type="line" smooth="yes"/>
      <point x="725" y="263"/>
      <point x="707" y="280"/>
      <point x="675" y="280" type="curve" smooth="yes"/>
    </contour>
  </outline>
</glyph>
<glyph name="hyphen" format="1">
  <advance width="1150"/>
  <unicode hex="002D"/>
  <outline>
    <contour>
      <point x="103" y="474" type="line" smooth="yes"/>
      <point x="103" y="441"/>
      <point x="121" y="424"/>
      <point x="153" y="424" type="curve" smooth="yes"/>
      <point x="999" y="424" type="line" smooth="yes"/>
      <point x="1032" y="424"/>
      <point x="1049" y="441"/>
      <point x="1049" y="474" type="curve" smooth="yes"/>
      <point x="1049" y="527" type="line" smooth="yes"/>
      <point x="1049" y="559"/>
      <point x="1032" y="577"/>
      <point x="999" y="577" type="curve" smooth="yes"/>
      <point x="153" y="577" type="line" smooth="yes"/>
      <point x="121" y="577"/>
      <point x="103" y="559"/>
      <point x="103" y="526" type="curve" smooth="yes"/>
    </contour>
  </outline>
</glyph>
<glyph name="period" format="1">
  <advance width="1150"/>
  <unicode hex="002E"/>
  <outline>
    <contour>
      <point x="475" y="280" type="line" smooth="yes"/>
      <point x="442" y="280"/>
      <point x="425" y="263"/>
      <point x="425" y="230" type="curve" smooth="yes"/>
      <point x="425" y="50" type="line" smooth="yes"/>
      <point x="425" y="18"/>
      <point x="443" y="0"/>
      <point x="475" y="0" type="curve" smooth="yes"/>
      <point x="675" y="0" type="line" smooth="yes"/>
      <point x="708" y="0"/>
      <point x="725" y="17"/>
      <point x="725" y="50" type="curve" smooth="yes"/>
      <point x="725" y="230" type="line" smooth="yes"/>
      <point x="725" y="263"/>
      <point x="707" y="280"/>
      <point x="675" y="280" type="curve" smooth="yes"/>
    </contour>
  </outline>
</glyph>
<glyph name="slash" format="1">
  <advance width="1150"/>
  <unicode hex="002F"/>
  <outline>
    <contour>
      <point x="862" y="1458"/>
      <point x="838" y="1449"/>
      <point x="826" y="1418" type="curve" smooth="yes"/>
      <point x="166" y="-210" type="line" smooth="yes"/>
      <point x="154" y="-240"/>
      <point x="163" y="-263"/>
      <point x="194" y="-275" type="curve" smooth="yes"/>
      <point x="259" y="-302" type="line" smooth="yes"/>
      <point x="289" y="-314"/>
      <point x="312" y="-305"/>
      <point x="324" y="-274" type="curve" smooth="yes"/>
      <point x="984" y="1354" type="line" smooth="yes"/>
      <point x="996" y="1384"/>
      <point x="987" y="1407"/>
      <point x="956" y="1419" type="curve" smooth="yes"/>
      <point x="891" y="1446" type="line" smooth="yes"/>
    </contour>
  </outline>
</glyph>
<glyph name="zero" format="1">
  <advance width="1150"/>
  <unicode hex="0030"/>
  <outline>
    <contour>
      <point x="153" y="710" type="line" smooth="yes"/>
      <point x="153" y="445"/>
      <point x="176" y="203"/>
      <point x="357" y="59" type="curve" smooth="yes"/>
      <point x="419" y="10"/>
      <point x="496" y="-20"/>
      <point x="575" y="-20" type="curve" smooth="yes"/>
      <point x="654" y="-20"/>
      <point x="731" y="10"/>
      <point x="793" y="59" type="curve" smooth="yes"/>
      <point x="973" y="201"/>
      <point x="997" y="441"/>
      <point x="997" y="710" type="curve" smooth="yes"/>
      <point x="997" y="790" type="line" smooth="yes"/>
      <point x="997" y="947"/>
      <point x="995" y="1110"/>
      <point x="932" y="1254" type="curve" smooth="yes"/>
      <point x="901" y="1326"/>
      <point x="854" y="1392"/>
      <point x="793" y="1441" type="curve" smooth="yes"/>
      <point x="731" y="1490"/>
      <point x="654" y="1520"/>
      <point x="575" y="1520" type="curve" smooth="yes"/>
      <point x="496" y="1520"/>
      <point x="419" y="1490"/>
      <point x="357" y="1441" type="curve" smooth="yes"/>
      <point x="296" y="1392"/>
      <point x="249" y="1326"/>
      <point x="218" y="1254" type="curve" smooth="yes"/>
      <point x="155" y="1110"/>
      <point x="153" y="947"/>
      <point x="153" y="790" type="curve" smooth="yes"/>
    </contour>
    <contour>
      <point x="323" y="608" type="line"/>
      <point x="323" y="710" type="line"/>
      <point x="323" y="790" type="line"/>
      <point x="323" y="888" type="line"/>
      <point x="323" y="972"/>
      <point x="325" y="1056"/>
      <point x="346" y="1138" type="curve" smooth="yes"/>
      <point x="360" y="1195"/>
      <point x="383" y="1250"/>
      <point x="422" y="1293" type="curve" smooth="yes"/>
      <point x="463" y="1338"/>
      <point x="515" y="1367"/>
      <point x="575" y="1367" type="curve" smooth="yes"/>
      <point x="635" y="1367"/>
      <point x="687" y="1338"/>
      <point x="728" y="1293" type="curve" smooth="yes"/>
      <point x="782" y="1232"/>
      <point x="803" y="1151"/>
      <point x="813" y="1098" type="curve"/>
    </contour>
    <contour>
      <point x="827" y="892" type="line"/>
      <point x="827" y="790" type="line"/>
      <point x="827" y="710" type="line"/>
      <point x="827" y="612" type="line" smooth="yes"/>
      <point x="827" y="528"/>
      <point x="825" y="444"/>
      <point x="804" y="362" type="curve" smooth="yes"/>
      <point x="790" y="305"/>
      <point x="767" y="250"/>
      <point x="728" y="207" type="curve" smooth="yes"/>
      <point x="687" y="162"/>
      <point x="635" y="133"/>
      <point x="575" y="133" type="curve" smooth="yes"/>
      <point x="515" y="133"/>
      <point x="463" y="162"/>
      <point x="422" y="207" type="curve" smooth="yes"/>
      <point x="368" y="268"/>
      <point x="347" y="349"/>
      <point x="337" y="402" type="curve"/>
    </contour>
  </outline>
</glyph>
<glyph name="one" format="1">
  <advance width="1150"/>
  <unicode hex="0031"/>
  <outline>
    <contour>
      <point x="704" y="153" type="line"/>
      <point x="704" y="1450" type="line" smooth="yes"/>
      <point x="704" y="1482"/>
      <point x="686" y="1500"/>
      <point x="653" y="1500" type="curve" smooth="yes"/>
      <point x="559" y="1498"/>
      <point x="525" y="1485"/>
      <point x="434" y="1393" type="curve" smooth="yes"/>
      <point x="123" y="1082" type="line" smooth="yes"/>
      <point x="100" y="1059"/>
      <point x="100" y="1033"/>
      <point x="125" y="1011" type="curve" smooth="yes"/>
      <point x="171" y="970" type="line" smooth="yes"/>
      <point x="195" y="949"/>
      <point x="219" y="949"/>
      <point x="242" y="972" type="curve" smooth="yes"/>
      <point x="534" y="1264" type="line"/>
      <point x="534" y="153" type="line"/>
      <point x="274" y="153" type="line" smooth="yes"/>
      <point x="241" y="153"/>
      <point x="224" y="135"/>
      <point x="224" y="103" type="curve" smooth="yes"/>
      <point x="224" y="50" type="line" smooth="yes"/>
      <point x="224" y="18"/>
      <point x="241" y="0"/>
      <point x="274" y="0" type="curve" smooth="yes"/>
      <point x="964" y="0" type="line" smooth="yes"/>
      <point x="997" y="0"/>
      <point x="1014" y="18"/>
      <point x="1014" y="50" type="curve" smooth="yes"/>
      <point x="1014" y="103" type="line" smooth="yes"/>
      <point x="1014" y="136"/>
      <point x="997" y="153"/>
      <point x="964" y="153" type="curve" smooth="yes"/>
    </contour>
  </outline>
</glyph>
<glyph name="two" format="1">
  <advance width="1150"/>
  <unicode hex="0032"/>
  <outline>
    <contour>
      <point x="661" y="585" type="line" smooth="yes"/>
      <point x="731" y="656"/>
      <point x="805" y="724"/>
      <point x="873" y="798" type="curve" smooth="yes"/>
      <point x="981" y="916"/>
      <point x="1043" y="1029"/>
      <point x="1043" y="1156" type="curve" smooth="yes"/>
      <point x="1043" y="1241"/>
      <point x="1015" y="1330"/>
      <point x="942" y="1405" type="curve" smooth="yes"/>
      <point x="861" y="1488"/>
      <point x="753" y="1523"/>
      <point x="648" y="1523" type="curve" smooth="yes"/>
      <point x="562" y="1523"/>
      <point x="452" y="1497"/>
      <point x="351" y="1427" type="curve" smooth="yes"/>
      <point x="295" y="1387"/>
      <point x="245" y="1337"/>
      <point x="206" y="1279" type="curve" smooth="yes"/>
      <point x="187" y="1251"/>
      <point x="196" y="1225"/>
      <point x="228" y="1212" type="curve" smooth="yes"/>
      <point x="287" y="1186" type="line" smooth="yes"/>
      <point x="316" y="1173"/>
      <point x="337" y="1183"/>
      <point x="353" y="1211" type="curve" smooth="yes"/>
      <point x="375" y="1249"/>
      <point x="404" y="1282"/>
      <point x="440" y="1308" type="curve" smooth="yes"/>
      <point x="490" y="1345"/>
      <point x="546" y="1365"/>
      <point x="617" y="1367" type="curve" smooth="yes"/>
      <point x="687" y="1367"/>
      <point x="757" y="1340"/>
      <point x="805" y="1289" type="curve" smooth="yes"/>
      <point x="847" y="1245"/>
      <point x="867" y="1189"/>
      <point x="867" y="1130" type="curve" smooth="yes"/>
      <point x="867" y="1077"/>
      <point x="851" y="1025"/>
      <point x="814" y="969" type="curve" smooth="yes"/>
      <point x="789" y="933"/>
      <point x="760" y="901"/>
      <point x="729" y="871" type="curve" smooth="yes"/>
      <point x="667" y="811"/>
      <point x="601" y="754"/>
      <point x="540" y="693" type="curve" smooth="yes"/>
      <point x="500" y="653" type="line" smooth="yes"/>
      <point x="418" y="570"/>
      <point x="338" y="483"/>
      <point x="281" y="381" type="curve" smooth="yes"/>
      <point x="217" y="268"/>
      <point x="187" y="148"/>
      <point x="175" y="52" type="curve" smooth="yes"/>
      <point x="171" y="19"/>
      <point x="189" y="0"/>
      <point x="222" y="0" type="curve" smooth="yes"/>
      <point x="981" y="0" type="line" smooth="yes"/>
      <point x="1013" y="0"/>
      <point x="1031" y="18"/>
      <point x="1031" y="50" type="curve" smooth="yes"/>
      <point x="1031" y="103" type="line" smooth="yes"/>
      <point x="1031" y="136"/>
      <point x="1013" y="153"/>
      <point x="981" y="153" type="curve" smooth="yes"/>
      <point x="368" y="153" type="line"/>
      <point x="383" y="209"/>
      <point x="405" y="263"/>
      <point x="433" y="314" type="curve" smooth="yes"/>
      <point x="482" y="400"/>
      <point x="550" y="475"/>
      <point x="621" y="545" type="curve" smooth="yes"/>
    </contour>
  </outline>
</glyph>
<glyph name="three" format="1">
  <advance width="1150"/>
  <unicode hex="0033"/>
  <outline>
    <contour>
      <point x="176" y="1382" type="line" smooth="yes"/>
      <point x="183" y="1350"/>
      <point x="204" y="1338"/>
      <point x="236" y="1343" type="curve" smooth="yes"/>
      <point x="352" y="1363"/>
      <point x="453" y="1367"/>
      <point x="515" y="1367" type="curve" smooth="yes"/>
      <point x="554" y="1367"/>
      <point x="641" y="1373"/>
      <point x="709" y="1310" type="curve" smooth="yes"/>
      <point x="764" y="1260"/>
      <point x="791" y="1176"/>
      <point x="791" y="1096" type="curve" smooth="yes"/>
      <point x="791" y="1041"/>
      <point x="779" y="980"/>
      <point x="738" y="930" type="curve" smooth="yes"/>
      <point x="684" y="866"/>
      <point x="618" y="857"/>
      <point x="535" y="857" type="curve" smooth="yes"/>
      <point x="373" y="857" type="line" smooth="yes"/>
      <point x="341" y="857"/>
      <point x="323" y="840"/>
      <point x="323" y="807" type="curve" smooth="yes"/>
      <point x="323" y="754" type="line" smooth="yes"/>
      <point x="323" y="722"/>
      <point x="340" y="704"/>
      <point x="373" y="704" type="curve" smooth="yes"/>
      <point x="535" y="704" type="line" smooth="yes"/>
      <point x="618" y="704"/>
      <point x="692" y="697"/>
      <point x="757" y="636" type="curve" smooth="yes"/>
      <point x="814" y="581"/>
      <point x="839" y="508"/>
      <point x="839" y="419" type="curve" smooth="yes"/>
      <point x="837" y="340"/>
      <point x="808" y="260"/>
      <point x="751" y="206" type="curve" smooth="yes"/>
      <point x="684" y="141"/>
      <point x="609" y="133"/>
      <point x="515" y="133" type="curve" smooth="yes"/>
      <point x="461" y="133"/>
      <point x="356" y="136"/>
      <point x="236" y="157" type="curve" smooth="yes"/>
      <point x="204" y="162"/>
      <point x="183" y="149"/>
      <point x="176" y="118" type="curve" smooth="yes"/>
      <point x="164" y="65" type="line" smooth="yes"/>
      <point x="157" y="33"/>
      <point x="171" y="11"/>
      <point x="204" y="6" type="curve" smooth="yes"/>
      <point x="334" y="-16"/>
      <point x="446" y="-20"/>
      <point x="515" y="-20" type="curve" smooth="yes"/>
      <point x="648" y="-20"/>
      <point x="765" y="-4"/>
      <point x="866" y="93" type="curve" smooth="yes"/>
      <point x="951" y="176"/>
      <point x="992" y="293"/>
      <point x="992" y="411" type="curve" smooth="yes"/>
      <point x="993" y="527"/>
      <point x="948" y="649"/>
      <point x="859" y="726" type="curve" smooth="yes"/>
      <point x="829" y="752"/>
      <point x="798" y="771"/>
      <point x="767" y="784" type="curve"/>
      <point x="794" y="799"/>
      <point x="820" y="818"/>
      <point x="845" y="844" type="curve" smooth="yes"/>
      <point x="915" y="918"/>
      <point x="942" y="1020"/>
      <point x="942" y="1112" type="curve" smooth="yes"/>
      <point x="942" y="1227"/>
      <point x="906" y="1345"/>
      <point x="817" y="1427" type="curve" smooth="yes"/>
      <point x="712" y="1524"/>
      <point x="584" y="1520"/>
      <point x="515" y="1520" type="curve" smooth="yes"/>
      <point x="446" y="1520"/>
      <point x="339" y="1517"/>
      <point x="204" y="1493" type="curve" smooth="yes"/>
      <point x="171" y="1487"/>
      <point x="157" y="1465"/>
      <point x="164" y="1433" type="curve" smooth="yes"/>
    </contour>
  </outline>
</glyph>
<glyph name="four" format="1">
  <advance width="1150"/>
  <unicode hex="0034"/>
  <outline>
    <contour>
      <point x="1022" y="478" type="line" smooth="yes"/>
      <point x="1022" y="510"/>
      <point x="1005" y="528"/>
      <point x="972" y="528" type="curve" smooth="yes"/>
      <point x="863" y="528" type="line"/>
      <point x="863" y="1450" type="line" smooth="yes"/>
      <point x="863" y="1483"/>
      <point x="849" y="1500"/>
      <point x="823" y="1500" type="curve" smooth="yes"/>
      <point x="790" y="1500"/>
      <point x="758" y="1500"/>
      <point x="727" y="1491" type="curve" smooth="yes"/>
      <point x="696" y="1482"/>
      <point x="669" y="1464"/>
      <point x="645" y="1443" type="curve" smooth="yes"/>
      <point x="239" y="1087"/>
      <point x="177" y="620"/>
      <point x="171" y="424" type="curve" smooth="yes"/>
      <point x="169" y="392"/>
      <point x="188" y="375"/>
      <point x="220" y="375" type="curve" smooth="yes"/>
      <point x="693" y="375" type="line"/>
      <point x="692" y="50" type="line" smooth="yes"/>
      <point x="692" y="18"/>
      <point x="710" y="0"/>
      <point x="742" y="0" type="curve" smooth="yes"/>
      <point x="812" y="0" type="line" smooth="yes"/>
      <point x="845" y="0"/>
      <point x="862" y="18"/>
      <point x="862" y="50" type="curve" smooth="yes"/>
      <point x="863" y="375" type="line"/>
      <point x="972" y="375" type="line" smooth="yes"/>
      <point x="1005" y="375"/>
      <point x="1022" y="393"/>
      <point x="1022" y="425" type="curve" smooth="yes"/>
    </contour>
    <contour>
      <point x="693" y="528" type="line"/>
      <point x="348" y="528" type="line"/>
      <point x="371" y="717"/>
      <point x="447" y="1012"/>
      <point x="693" y="1266" type="curve"/>
    </contour>
  </outline>
</glyph>
<glyph name="five" format="1">
  <advance width="1150"/>
  <unicode hex="0035"/>
  <outline>
    <contour>
      <point x="391" y="857" type="line"/>
      <point x="391" y="1347" type="line"/>
      <point x="896" y="1347" type="line" smooth="yes"/>
      <point x="929" y="1347"/>
      <point x="946" y="1365"/>
      <point x="946" y="1397" type="curve" smooth="yes"/>
      <point x="946" y="1450" type="line" smooth="yes"/>
      <point x="946" y="1483"/>
      <point x="929" y="1500"/>
      <point x="896" y="1500" type="curve" smooth="yes"/>
      <point x="271" y="1500" type="line" smooth="yes"/>
      <point x="238" y="1500"/>
      <point x="221" y="1482"/>
      <point x="221" y="1450" type="curve" smooth="yes"/>
      <point x="221" y="754" type="line" smooth="yes"/>
      <point x="221" y="721"/>
      <point x="238" y="704"/>
      <point x="271" y="704" type="curve" smooth="yes"/>
      <point x="535" y="704" type="line" smooth="yes"/>
      <point x="615" y="704"/>
      <point x="686" y="697"/>
      <point x="749" y="638" type="curve" smooth="yes"/>
      <point x="805" y="584"/>
      <point x="830" y="505"/>
      <point x="830" y="425" type="curve" smooth="yes"/>
      <point x="830" y="347"/>
      <point x="806" y="267"/>
      <point x="751" y="210" type="curve" smooth="yes"/>
      <point x="686" y="143"/>
      <point x="609" y="133"/>
      <point x="515" y="133" type="curve" smooth="yes"/>
      <point x="461" y="133"/>
      <point x="355" y="137"/>
      <point x="236" y="157" type="curve" smooth="yes"/>
      <point x="204" y="163"/>
      <point x="183" y="150"/>
      <point x="176" y="119" type="curve" smooth="yes"/>
      <point x="164" y="66" type="line" smooth="yes"/>
      <point x="157" y="34"/>
      <point x="171" y="13"/>
      <point x="204" y="7" type="curve" smooth="yes"/>
      <point x="334" y="-15"/>
      <point x="442" y="-20"/>
      <point x="515" y="-20" type="curve" smooth="yes"/>
      <point x="649" y="-20"/>
      <point x="770" y="-2"/>
      <point x="870" y="97" type="curve" smooth="yes"/>
      <point x="959" y="184"/>
      <point x="999" y="304"/>
      <point x="1000" y="428" type="curve" smooth="yes"/>
      <point x="1000" y="550"/>
      <point x="964" y="670"/>
      <point x="872" y="755" type="curve" smooth="yes"/>
      <point x="775" y="845"/>
      <point x="666" y="857"/>
      <point x="535" y="857" type="curve" smooth="yes"/>
    </contour>
  </outline>
</glyph>
<glyph name="six" format="1">
  <advance width="1150"/>
  <unicode hex="0036"/>
  <outline>
    <contour>
      <point x="890" y="1432" type="line" smooth="yes"/>
      <point x="896" y="1465"/>
      <point x="884" y="1487"/>
      <point x="851" y="1495" type="curve" smooth="yes"/>
      <point x="782" y="1511"/>
      <point x="713" y="1520"/>
      <point x="659" y="1520" type="curve" smooth="yes"/>
      <point x="580" y="1520"/>
      <point x="498" y="1501"/>
      <point x="431" y="1468" type="curve" smooth="yes"/>
      <point x="359" y="1432"/>
      <point x="297" y="1374"/>
      <point x="255" y="1305" type="curve" smooth="yes"/>
      <point x="171" y="1165"/>
      <point x="169" y="1001"/>
      <point x="169" y="840" type="curve" smooth="yes"/>
      <point x="169" y="482" type="line" smooth="yes"/>
      <point x="169" y="131"/>
      <point x="280" y="-20"/>
      <point x="574" y="-20" type="curve" smooth="yes"/>
      <point x="605" y="-20"/>
      <point x="694" y="-22"/>
      <point x="760" y="2" type="curve" smooth="yes"/>
      <point x="813" y="20"/>
      <point x="861" y="54"/>
      <point x="896" y="97" type="curve" smooth="yes"/>
      <point x="931" y="141"/>
      <point x="953" y="194"/>
      <point x="966" y="248" type="curve" smooth="yes"/>
      <point x="976" y="291"/>
      <point x="980" y="335"/>
      <point x="980" y="379" type="curve" smooth="yes"/>
      <point x="980" y="427"/>
      <point x="974" y="506"/>
      <point x="952" y="579" type="curve" smooth="yes"/>
      <point x="935" y="632"/>
      <point x="910" y="683"/>
      <point x="874" y="725" type="curve" smooth="yes"/>
      <point x="838" y="767"/>
      <point x="791" y="800"/>
      <point x="739" y="820" type="curve" smooth="yes"/>
      <point x="672" y="844"/>
      <point x="595" y="845"/>
      <point x="554" y="845" type="curve" smooth="yes"/>
      <point x="503" y="845"/>
      <point x="402" y="841"/>
      <point x="289" y="821" type="curve" smooth="yes"/>
      <point x="256" y="816"/>
      <point x="243" y="794"/>
      <point x="249" y="762" type="curve" smooth="yes"/>
      <point x="259" y="716" type="line" smooth="yes"/>
      <point x="266" y="685"/>
      <point x="286" y="672"/>
      <point x="318" y="676" type="curve" smooth="yes"/>
      <point x="415" y="689"/>
      <point x="504" y="692"/>
      <point x="554" y="692" type="curve" smooth="yes"/>
      <point x="579" y="692"/>
      <point x="633" y="693"/>
      <point x="677" y="676" type="curve" smooth="yes"/>
      <point x="709" y="663"/>
      <point x="738" y="640"/>
      <point x="758" y="611" type="curve" smooth="yes"/>
      <point x="778" y="582"/>
      <point x="790" y="549"/>
      <point x="798" y="514" type="curve" smooth="yes"/>
      <point x="808" y="467"/>
      <point x="810" y="410"/>
      <point x="810" y="383" type="curve" smooth="yes"/>
      <point x="810" y="358"/>
      <point x="808" y="333"/>
      <point x="804" y="308" type="curve" smooth="yes"/>
      <point x="799" y="275"/>
      <point x="789" y="242"/>
      <point x="770" y="213" type="curve" smooth="yes"/>
      <point x="752" y="185"/>
      <point x="725" y="162"/>
      <point x="694" y="149" type="curve" smooth="yes"/>
      <point x="652" y="132"/>
      <point x="599" y="133"/>
      <point x="574" y="133" type="curve" smooth="yes"/>
      <point x="422" y="133"/>
      <point x="339" y="238"/>
      <point x="339" y="482" type="curve" smooth="yes"/>
      <point x="339" y="946"/>
      <point x="329" y="1076"/>
      <point x="379" y="1190" type="curve" smooth="yes"/>
      <point x="405" y="1248"/>
      <point x="447" y="1296"/>
      <point x="496" y="1324" type="curve" smooth="yes"/>
      <point x="543" y="1352"/>
      <point x="601" y="1367"/>
      <point x="659" y="1367" type="curve" smooth="yes"/>
      <point x="697" y="1367"/>
      <point x="751" y="1360"/>
      <point x="807" y="1347" type="curve" smooth="yes"/>
      <point x="838" y="1340"/>
      <point x="861" y="1353"/>
      <point x="871" y="1381" type="curve" smooth="yes"/>
    </contour>
  </outline>
</glyph>
<glyph name="seven" format="1">
  <advance width="1150"/>
  <unicode hex="0037"/>
  <outline>
    <contour>
      <point x="220" y="1500" type="line" smooth="yes"/>
      <point x="187" y="1500"/>
      <point x="170" y="1483"/>
      <point x="170" y="1450" type="curve" smooth="yes"/>
      <point x="170" y="1175" type="line" smooth="yes"/>
      <point x="170" y="1143"/>
      <point x="187" y="1125"/>
      <point x="220" y="1125" type="curve" smooth="yes"/>
      <point x="290" y="1125" type="line" smooth="yes"/>
      <point x="323" y="1125"/>
      <point x="340" y="1142"/>
      <point x="340" y="1175" type="curve" smooth="yes"/>
      <point x="340" y="1347" type="line"/>
      <point x="872" y="1347" type="line"/>
      <point x="869" y="1341"/>
      <point x="866" y="1336"/>
      <point x="863" y="1331" type="curve" smooth="yes"/>
      <point x="542" y="840"/>
      <point x="477" y="344"/>
      <point x="473" y="49" type="curve" smooth="yes"/>
      <point x="472" y="17"/>
      <point x="490" y="0"/>
      <point x="523" y="0" type="curve" smooth="yes"/>
      <point x="592" y="0" type="line" smooth="yes"/>
      <point x="625" y="0"/>
      <point x="642" y="17"/>
      <point x="643" y="49" type="curve" smooth="yes"/>
      <point x="645" y="253"/>
      <point x="678" y="750"/>
      <point x="978" y="1266" type="curve" smooth="yes"/>
      <point x="989" y="1285"/>
      <point x="1003" y="1302"/>
      <point x="1015" y="1321" type="curve" smooth="yes"/>
      <point x="1028" y="1342"/>
      <point x="1031" y="1358"/>
      <point x="1031" y="1384" type="curve" smooth="yes"/>
      <point x="1031" y="1450" type="line" smooth="yes"/>
      <point x="1031" y="1483"/>
      <point x="1013" y="1500"/>
      <point x="981" y="1500" type="curve" smooth="yes"/>
    </contour>
  </outline>
</glyph>
<glyph name="eight" format="1">
  <advance width="1150"/>
  <unicode hex="0038"/>
  <outline>
    <contour>
      <point x="990" y="1183"/>
      <point x="990" y="1187"/>
      <point x="990" y="1190" type="curve" smooth="yes"/>
      <point x="990" y="1236"/>
      <point x="982" y="1282"/>
      <point x="964" y="1325" type="curve" smooth="yes"/>
      <point x="945" y="1371"/>
      <point x="914" y="1412"/>
      <point x="876" y="1443" type="curve" smooth="yes"/>
      <point x="837" y="1474"/>
      <point x="791" y="1496"/>
      <point x="743" y="1507" type="curve" smooth="yes"/>
      <point x="695" y="1518"/>
      <point x="645" y="1520"/>
      <point x="575" y="1520" type="curve"/>
      <point x="505" y="1520"/>
      <point x="455" y="1518"/>
      <point x="407" y="1507" type="curve" smooth="yes"/>
      <point x="359" y="1496"/>
      <point x="313" y="1474"/>
      <point x="274" y="1443" type="curve" smooth="yes"/>
      <point x="236" y="1412"/>
      <point x="205" y="1371"/>
      <point x="186" y="1325" type="curve" smooth="yes"/>
      <point x="168" y="1282"/>
      <point x="160" y="1236"/>
      <point x="160" y="1190" type="curve" smooth="yes"/>
      <point x="160" y="1187"/>
      <point x="160" y="1183"/>
      <point x="160" y="1180" type="curve" smooth="yes"/>
      <point x="163" y="1069"/>
      <point x="214" y="964"/>
      <point x="287" y="882" type="curve" smooth="yes"/>
      <point x="361" y="800"/>
      <point x="457" y="743"/>
      <point x="555" y="691" type="curve" smooth="yes"/>
      <point x="630" y="650"/>
      <point x="708" y="611"/>
      <point x="770" y="552" type="curve" smooth="yes"/>
      <point x="801" y="522"/>
      <point x="828" y="487"/>
      <point x="846" y="448" type="curve" smooth="yes"/>
      <point x="860" y="416"/>
      <point x="868" y="382"/>
      <point x="868" y="347" type="curve" smooth="yes"/>
      <point x="868" y="276"/>
      <point x="833" y="210"/>
      <point x="772" y="172" type="curve" smooth="yes"/>
      <point x="713" y="135"/>
      <point x="651" y="133"/>
      <point x="575" y="133" type="curve" smooth="yes"/>
      <point x="532" y="133"/>
      <point x="447" y="130"/>
      <point x="378" y="172" type="curve" smooth="yes"/>
      <point x="305" y="217"/>
      <point x="282" y="294"/>
      <point x="282" y="347" type="curve" smooth="yes"/>
      <point x="282" y="428"/>
      <point x="319" y="493"/>
      <point x="380" y="552" type="curve" smooth="yes"/>
      <point x="442" y="611"/>
      <point x="520" y="650"/>
      <point x="595" y="691" type="curve" smooth="yes"/>
      <point x="693" y="743"/>
      <point x="789" y="800"/>
      <point x="863" y="882" type="curve" smooth="yes"/>
      <point x="936" y="964"/>
      <point x="987" y="1069"/>
      <point x="990" y="1180" type="curve" smooth="yes"/>
    </contour>
    <contour>
      <point x="422" y="752"/>
      <point x="323" y="695"/>
      <point x="246" y="615" type="curve" smooth="yes"/>
      <point x="207" y="575"/>
      <point x="174" y="529"/>
      <point x="150" y="478" type="curve" smooth="yes"/>
      <point x="127" y="428"/>
      <point x="114" y="374"/>
      <point x="114" y="319" type="curve" smooth="yes"/>
      <point x="114" y="265"/>
      <point x="126" y="212"/>
      <point x="151" y="165" type="curve" smooth="yes"/>
      <point x="175" y="119"/>
      <point x="211" y="79"/>
      <point x="255" y="50" type="curve" smooth="yes"/>
      <point x="298" y="20"/>
      <point x="348" y="1"/>
      <point x="399" y="-9" type="curve" smooth="yes"/>
      <point x="458" y="-21"/>
      <point x="549" y="-20"/>
      <point x="575" y="-20" type="curve"/>
      <point x="687" y="-20"/>
      <point x="797" y="-18"/>
      <point x="895" y="50" type="curve" smooth="yes"/>
      <point x="939" y="79"/>
      <point x="975" y="119"/>
      <point x="999" y="165" type="curve" smooth="yes"/>
      <point x="1024" y="212"/>
      <point x="1036" y="265"/>
      <point x="1036" y="319" type="curve" smooth="yes"/>
      <point x="1036" y="374"/>
      <point x="1023" y="428"/>
      <point x="1000" y="478" type="curve" smooth="yes"/>
      <point x="976" y="529"/>
      <point x="943" y="575"/>
      <point x="904" y="615" type="curve" smooth="yes"/>
      <point x="827" y="695"/>
      <point x="728" y="752"/>
      <point x="632" y="809" type="curve" smooth="yes"/>
      <point x="560" y="853"/>
      <point x="489" y="898"/>
      <point x="430" y="958" type="curve" smooth="yes"/>
      <point x="401" y="989"/>
      <point x="376" y="1023"/>
      <point x="358" y="1061" type="curve" smooth="yes"/>
      <point x="340" y="1096"/>
      <point x="330" y="1136"/>
      <point x="330" y="1175" type="curve" smooth="yes"/>
      <point x="330" y="1178"/>
      <point x="330" y="1180"/>
      <point x="330" y="1182" type="curve" smooth="yes"/>
      <point x="331" y="1210"/>
      <point x="337" y="1237"/>
      <point x="349" y="1262" type="curve" smooth="yes"/>
      <point x="361" y="1286"/>
      <point x="378" y="1308"/>
      <point x="400" y="1325" type="curve" smooth="yes"/>
      <point x="421" y="1342"/>
      <point x="447" y="1353"/>
      <point x="474" y="1360" type="curve" smooth="yes"/>
      <point x="506" y="1367"/>
      <point x="562" y="1367"/>
      <point x="575" y="1367" type="curve" smooth="yes"/>
      <point x="596" y="1367"/>
      <point x="646" y="1367"/>
      <point x="676" y="1360" type="curve" smooth="yes"/>
      <point x="703" y="1353"/>
      <point x="729" y="1342"/>
      <point x="750" y="1325" type="curve" smooth="yes"/>
      <point x="772" y="1308"/>
      <point x="789" y="1286"/>
      <point x="801" y="1262" type="curve" smooth="yes"/>
      <point x="813" y="1237"/>
      <point x="819" y="1210"/>
      <point x="820" y="1182" type="curve" smooth="yes"/>
      <point x="820" y="1180"/>
      <point x="820" y="1178"/>
      <point x="820" y="1175" type="curve" smooth="yes"/>
      <point x="820" y="1136"/>
      <point x="810" y="1096"/>
      <point x="792" y="1061" type="curve" smooth="yes"/>
      <point x="774" y="1023"/>
      <point x="749" y="989"/>
      <point x="720" y="958" type="curve" smooth="yes"/>
      <point x="661" y="898"/>
      <point x="590" y="853"/>
      <point x="518" y="809" type="curve" smooth="yes"/>
    </contour>
  </outline>
</glyph>
<glyph name="nine" format="1">
  <advance width="1150"/>
  <unicode hex="0039"/>
  <outline>
    <contour>
      <point x="203" y="67" type="line" smooth="yes"/>
      <point x="193" y="35"/>
      <point x="205" y="13"/>
      <point x="238" y="5" type="curve" smooth="yes"/>
      <point x="328" y="-16"/>
      <point x="404" y="-20"/>
      <point x="460" y="-20" type="curve" smooth="yes"/>
      <point x="510" y="-20"/>
      <point x="619" y="-17"/>
      <point x="718" y="32" type="curve" smooth="yes"/>
      <point x="791" y="68"/>
      <point x="852" y="126"/>
      <point x="894" y="196" type="curve" smooth="yes"/>
      <point x="978" y="335"/>
      <point x="980" y="499"/>
      <point x="980" y="660" type="curve" smooth="yes"/>
      <point x="980" y="1018" type="line" smooth="yes"/>
      <point x="980" y="1369"/>
      <point x="869" y="1520"/>
      <point x="575" y="1520" type="curve" smooth="yes"/>
      <point x="544" y="1520"/>
      <point x="455" y="1522"/>
      <point x="389" y="1498" type="curve" smooth="yes"/>
      <point x="336" y="1480"/>
      <point x="289" y="1446"/>
      <point x="254" y="1403" type="curve" smooth="yes"/>
      <point x="218" y="1359"/>
      <point x="196" y="1306"/>
      <point x="183" y="1252" type="curve" smooth="yes"/>
      <point x="173" y="1209"/>
      <point x="169" y="1165"/>
      <point x="169" y="1121" type="curve" smooth="yes"/>
      <point x="169" y="1073"/>
      <point x="175" y="994"/>
      <point x="198" y="921" type="curve" smooth="yes"/>
      <point x="214" y="868"/>
      <point x="239" y="817"/>
      <point x="275" y="775" type="curve" smooth="yes"/>
      <point x="311" y="733"/>
      <point x="358" y="700"/>
      <point x="410" y="680" type="curve" smooth="yes"/>
      <point x="477" y="656"/>
      <point x="554" y="655"/>
      <point x="595" y="655" type="curve" smooth="yes"/>
      <point x="646" y="655"/>
      <point x="747" y="659"/>
      <point x="860" y="679" type="curve" smooth="yes"/>
      <point x="893" y="684"/>
      <point x="906" y="706"/>
      <point x="900" y="738" type="curve" smooth="yes"/>
      <point x="890" y="784" type="line" smooth="yes"/>
      <point x="883" y="815"/>
      <point x="863" y="828"/>
      <point x="831" y="824" type="curve" smooth="yes"/>
      <point x="734" y="811"/>
      <point x="645" y="808"/>
      <point x="595" y="808" type="curve" smooth="yes"/>
      <point x="570" y="808"/>
      <point x="516" y="807"/>
      <point x="473" y="824" type="curve" smooth="yes"/>
      <point x="440" y="837"/>
      <point x="411" y="860"/>
      <point x="391" y="889" type="curve" smooth="yes"/>
      <point x="371" y="918"/>
      <point x="359" y="951"/>
      <point x="351" y="986" type="curve" smooth="yes"/>
      <point x="341" y="1033"/>
      <point x="339" y="1090"/>
      <point x="339" y="1117" type="curve" smooth="yes"/>
      <point x="339" y="1142"/>
      <point x="341" y="1167"/>
      <point x="345" y="1192" type="curve" smooth="yes"/>
      <point x="350" y="1225"/>
      <point x="360" y="1258"/>
      <point x="379" y="1287" type="curve" smooth="yes"/>
      <point x="398" y="1315"/>
      <point x="424" y="1338"/>
      <point x="456" y="1351" type="curve" smooth="yes"/>
      <point x="497" y="1368"/>
      <point x="550" y="1367"/>
      <point x="575" y="1367" type="curve" smooth="yes"/>
      <point x="727" y="1367"/>
      <point x="810" y="1262"/>
      <point x="810" y="1018" type="curve" smooth="yes"/>
      <point x="810" y="554"/>
      <point x="820" y="424"/>
      <point x="770" y="310" type="curve" smooth="yes"/>
      <point x="745" y="255"/>
      <point x="705" y="206"/>
      <point x="653" y="176" type="curve" smooth="yes"/>
      <point x="585" y="136"/>
      <point x="505" y="133"/>
      <point x="460" y="133" type="curve" smooth="yes"/>
      <point x="424" y="133"/>
      <point x="357" y="136"/>
      <point x="282" y="153" type="curve" smooth="yes"/>
      <point x="250" y="160"/>
      <point x="229" y="149"/>
      <point x="219" y="119" type="curve" smooth="yes"/>
    </contour>
  </outline>
</glyph>
<glyph name="less" format="1">
  <advance width="1150"/>
  <unicode hex="003C"/>
  <outline>
    <contour>
      <point x="991" y="969" type="line" smooth="yes"/>
      <point x="976" y="997"/>
      <point x="952" y="1004"/>
      <point x="924" y="990" type="curve" smooth="yes"/>
      <point x="234" y="645" type="line" smooth="yes"/>
      <point x="204" y="630"/>
      <point x="174" y="614"/>
      <point x="151" y="590" type="curve" smooth="yes"/>
      <point x="128" y="566"/>
      <point x="113" y="533"/>
      <point x="113" y="500" type="curve" smooth="yes"/>
      <point x="113" y="467"/>
      <point x="128" y="434"/>
      <point x="151" y="410" type="curve" smooth="yes"/>
      <point x="174" y="386"/>
      <point x="204" y="370"/>
      <point x="234" y="355" type="curve" smooth="yes"/>
      <point x="924" y="10" type="line" smooth="yes"/>
      <point x="952" y="-4"/>
      <point x="976" y="3"/>
      <point x="991" y="31" type="curve" smooth="yes"/>
      <point x="1019" y="80" type="line" smooth="yes"/>
      <point x="1035" y="109"/>
      <point x="1027" y="133"/>
      <point x="998" y="148" type="curve" smooth="yes"/>
      <point x="310" y="492" type="line" smooth="yes"/>
      <point x="306" y="494"/>
      <point x="303" y="497"/>
      <point x="303" y="500" type="curve" smooth="yes"/>
      <point x="303" y="503"/>
      <point x="306" y="506"/>
      <point x="310" y="508" type="curve" smooth="yes"/>
      <point x="998" y="852" type="line" smooth="yes"/>
      <point x="1027" y="867"/>
      <point x="1035" y="891"/>
      <point x="1019" y="920" type="curve" smooth="yes"/>
    </contour>
  </outline>
</glyph>
<glyph name="equal" format="1">
  <advance width="1150"/>
  <unicode hex="003D"/>
  <outline>
    <contour>
      <point x="102" y="704" type="line" smooth="yes"/>
      <point x="102" y="671"/>
      <point x="120" y="654"/>
      <point x="152" y="654" type="curve" smooth="yes"/>
      <point x="998" y="654" type="line" smooth="yes"/>
      <point x="1031" y="654"/>
      <point x="1048" y="671"/>
      <point x="1048" y="704" type="curve" smooth="yes"/>
      <point x="1048" y="757" type="line" smooth="yes"/>
      <point x="1048" y="789"/>
      <point x="1031" y="807"/>
      <point x="998" y="807" type="curve" smooth="yes"/>
      <point x="152" y="807" type="line" smooth="yes"/>
      <point x="120" y="807"/>
      <point x="102" y="789"/>
      <point x="102" y="756" type="curve" smooth="yes"/>
    </contour>
    <contour>
      <point x="102" y="244" type="line" smooth="yes"/>
      <point x="102" y="211"/>
      <point x="120" y="194"/>
      <point x="152" y="194" type="curve" smooth="yes"/>
      <point x="998" y="194" type="line" smooth="yes"/>
      <point x="1031" y="194"/>
      <point x="1048" y="211"/>
      <point x="1048" y="244" type="curve" smooth="yes"/>
      <point x="1048" y="297" type="line" smooth="yes"/>
      <point x="1048" y="329"/>
      <point x="1031" y="347"/>
      <point x="998" y="347" type="curve" smooth="yes"/>
      <point x="152" y="347" type="line" smooth="yes"/>
      <point x="120" y="347"/>
      <point x="102" y="329"/>
      <point x="102" y="296" type="curve" smooth="yes"/>
    </contour>
  </outline>
</glyph>
<glyph name="greater" format="1">
  <advance width="1150"/>
  <unicode hex="003E"/>
  <outline>
    <contour>
      <point x="131" y="920" type="line" smooth="yes"/>
      <point x="115" y="891"/>
      <point x="123" y="867"/>
      <point x="152" y="852" type="curve" smooth="yes"/>
      <point x="840" y="508" type="line" smooth="yes"/>
      <point x="844" y="506"/>
      <point x="847" y="503"/>
      <point x="847" y="500" type="curve" smooth="yes"/>
      <point x="847" y="497"/>
      <point x="844" y="494"/>
      <point x="840" y="492" type="curve" smooth="yes"/>
      <point x="152" y="148" type="line" smooth="yes"/>
      <point x="123" y="133"/>
      <point x="115" y="109"/>
      <point x="131" y="80" type="curve" smooth="yes"/>
      <point x="159" y="31" type="line" smooth="yes"/>
      <point x="174" y="3"/>
      <point x="198" y="-4"/>
      <point x="226" y="10" type="curve" smooth="yes"/>
      <point x="916" y="355" type="line" smooth="yes"/>
      <point x="946" y="370"/>
      <point x="976" y="386"/>
      <point x="999" y="410" type="curve" smooth="yes"/>
      <point x="1022" y="434"/>
      <point x="1037" y="467"/>
      <point x="1037" y="500" type="curve" smooth="yes"/>
      <point x="1037" y="533"/>
      <point x="1022" y="566"/>
      <point x="999" y="590" type="curve" smooth="yes"/>
      <point x="976" y="614"/>
      <point x="946" y="630"/>
      <point x="916" y="645" type="curve" smooth="yes"/>
      <point x="226" y="990" type="line" smooth="yes"/>
      <point x="198" y="1004"/>
      <point x="174" y="997"/>
      <point x="159" y="969" type="curve" smooth="yes"/>
    </contour>
  </outline>
</glyph>
<glyph name="question" format="1">
  <advance width="1150"/>
  <unicode hex="003F"/>
  <outline>
    <contour>
      <point x="176" y="1282" type="line" smooth="yes"/>
      <point x="183" y="1251"/>
      <point x="203" y="1238"/>
      <point x="235" y="1243" type="curve" smooth="yes"/>
      <point x="321" y="1258"/>
      <point x="408" y="1266"/>
      <point x="515" y="1267" type="curve"/>
      <point x="648" y="1265"/>
      <point x="739" y="1241"/>
      <point x="796" y="1158" type="curve" smooth="yes"/>
      <point x="824" y="1117"/>
      <point x="832" y="1079"/>
      <point x="832" y="1041" type="curve" smooth="yes"/>
      <point x="832" y="977"/>
      <point x="802" y="915"/>
      <point x="745" y="875" type="curve" smooth="yes"/>
      <point x="682" y="830"/>
      <point x="611" y="827"/>
      <point x="535" y="827" type="curve" smooth="yes"/>
      <point x="405" y="827" type="line" smooth="yes"/>
      <point x="373" y="827"/>
      <point x="355" y="809"/>
      <point x="355" y="777" type="curve" smooth="yes"/>
      <point x="355" y="460" type="line" smooth="yes"/>
      <point x="355" y="427"/>
      <point x="373" y="410"/>
      <point x="405" y="410" type="curve" smooth="yes"/>
      <point x="475" y="410" type="line" smooth="yes"/>
      <point x="508" y="410"/>
      <point x="525" y="427"/>
      <point x="525" y="460" type="curve" smooth="yes"/>
      <point x="525" y="674" type="line"/>
      <point x="660" y="674"/>
      <point x="775" y="680"/>
      <point x="877" y="763" type="curve" smooth="yes"/>
      <point x="960" y="831"/>
      <point x="1003" y="932"/>
      <point x="1003" y="1033" type="curve" smooth="yes"/>
      <point x="1003" y="1134"/>
      <point x="956" y="1264"/>
      <point x="835" y="1344" type="curve" smooth="yes"/>
      <point x="740" y="1408"/>
      <point x="643" y="1419"/>
      <point x="515" y="1420" type="curve"/>
      <point x="396" y="1419"/>
      <point x="299" y="1410"/>
      <point x="203" y="1394" type="curve" smooth="yes"/>
      <point x="171" y="1388"/>
      <point x="157" y="1367"/>
      <point x="164" y="1335" type="curve" smooth="yes"/>
    </contour>
    <contour>
      <point x="355" y="30" type="line" smooth="yes"/>
      <point x="355" y="-3"/>
      <point x="373" y="-20"/>
      <point x="405" y="-20" type="curve" smooth="yes"/>
      <point x="475" y="-20" type="line" smooth="yes"/>
      <point x="508" y="-20"/>
      <point x="525" y="-3"/>
      <point x="525" y="30" type="curve" smooth="yes"/>
      <point x="525" y="123" type="line" smooth="yes"/>
      <point x="525" y="155"/>
      <point x="508" y="173"/>
      <point x="475" y="173" type="curve" smooth="yes"/>
      <point x="405" y="173" type="line" smooth="yes"/>
      <point x="373" y="173"/>
      <point x="355" y="155"/>
      <point x="355" y="123" type="curve" smooth="yes"/>
    </contour>
  </outline>
</glyph>
<glyph name="at" format="1">
  <advance width="1150"/>
  <unicode hex="0040"/>
  <outline>
    <contour>
      <point x="1044" y="-222" type="line" smooth="yes"/>
      <point x="1039" y="-190"/>
      <point x="1019" y="-176"/>
      <point x="987" y="-179" type="curve" smooth="yes"/>
      <point x="858" y="-195"/>
      <point x="708" y="-202"/>
      <point x="622" y="-202" type="curve" smooth="yes"/>
      <point x="540" y="-202"/>
      <point x="472" y="-203"/>
      <point x="402" y="-162" type="curve" smooth="yes"/>
      <point x="318" y="-112"/>
      <point x="272" y="0"/>
      <point x="272" y="157" type="curve" smooth="yes"/>
      <point x="272" y="777" type="line" smooth="yes"/>
      <point x="272" y="868"/>
      <point x="278" y="947"/>
      <point x="342" y="1020" type="curve" smooth="yes"/>
      <point x="402" y="1087"/>
      <point x="486" y="1117"/>
      <point x="575" y="1117" type="curve" smooth="yes"/>
      <point x="662" y="1117"/>
      <point x="750" y="1085"/>
      <point x="808" y="1020" type="curve" smooth="yes"/>
      <point x="852.337" y="970.033"/>
      <point x="868.938" y="917.094"/>
      <point x="874.883" y="857" type="curve"/>
      <point x="850" y="857" type="line" smooth="yes"/>
      <point x="733" y="857"/>
      <point x="630" y="844"/>
      <point x="551" y="750" type="curve" smooth="yes"/>
      <point x="491" y="677"/>
      <point x="470" y="592"/>
      <point x="470" y="428" type="curve" smooth="yes"/>
      <point x="470" y="264"/>
      <point x="491" y="179"/>
      <point x="551" y="107" type="curve" smooth="yes"/>
      <point x="629" y="14"/>
      <point x="729" y="0"/>
      <point x="850" y="0" type="curve" smooth="yes"/>
      <point x="998" y="0" type="line" smooth="yes"/>
      <point x="1031" y="0"/>
      <point x="1048" y="17"/>
      <point x="1048" y="50" type="curve" smooth="yes"/>
      <point x="1048" y="777" type="line" smooth="yes"/>
      <point x="1048" y="916"/>
      <point x="1035" y="1036"/>
      <point x="932" y="1138" type="curve" smooth="yes"/>
      <point x="840" y="1231"/>
      <point x="706" y="1270"/>
      <point x="575" y="1270" type="curve" smooth="yes"/>
      <point x="447" y="1270"/>
      <point x="307" y="1230"/>
      <point x="218" y="1138" type="curve" smooth="yes"/>
      <point x="117" y="1037"/>
      <point x="102" y="920"/>
      <point x="102" y="777" type="curve" smooth="yes"/>
      <point x="102" y="157" type="line" smooth="yes"/>
      <point x="102" y="-70"/>
      <point x="185" y="-234"/>
      <point x="338" y="-309" type="curve" smooth="yes"/>
      <point x="437" y="-358"/>
      <point x="552" y="-355"/>
      <point x="622" y="-355" type="curve" smooth="yes"/>
      <point x="707" y="-355"/>
      <point x="865" y="-349"/>
      <point x="1010" y="-331" type="curve" smooth="yes"/>
      <point x="1042" y="-327"/>
      <point x="1057" y="-306"/>
      <point x="1052" y="-274" type="curve" smooth="yes"/>
    </contour>
    <contour>
      <point x="878" y="153" type="line"/>
      <point x="850" y="153" type="line" smooth="yes"/>
      <point x="779" y="153"/>
      <point x="719" y="162"/>
      <point x="677" y="227" type="curve" smooth="yes"/>
      <point x="650" y="269"/>
      <point x="640" y="322"/>
      <point x="640" y="428" type="curve" smooth="yes"/>
      <point x="640" y="536"/>
      <point x="650" y="589"/>
      <point x="677" y="629" type="curve" smooth="yes"/>
      <point x="718" y="692"/>
      <point x="775" y="704"/>
      <point x="850" y="704" type="curve" smooth="yes"/>
      <point x="878" y="704" type="line"/>
    </contour>
  </outline>
</glyph>
<glyph name="A" format="1">
  <advance width="1150"/>
  <unicode hex="0041"/>
  <outline>
    <contour>
      <point x="948" y="43" type="line" smooth="yes"/>
      <point x="956" y="14"/>
      <point x="974" y="0"/>
      <point x="1004" y="0" type="curve" smooth="yes"/>
      <point x="1078" y="0" type="line" smooth="yes"/>
      <point x="1114" y="0"/>
      <point x="1130" y="21"/>
      <point x="1121" y="56" type="curve" smooth="yes"/>
      <point x="789" y="1273" type="line" smooth="yes"/>
      <point x="775" y="1325"/>
      <point x="759" y="1362"/>
      <point x="713" y="1390" type="curve" smooth="yes"/>
      <point x="675" y="1414"/>
      <point x="627" y="1420"/>
      <point x="575" y="1420" type="curve" smooth="yes"/>
      <point x="528" y="1420"/>
      <point x="477" y="1415"/>
      <point x="437" y="1390" type="curve" smooth="yes"/>
      <point x="391" y="1362"/>
      <point x="375" y="1325"/>
      <point x="361" y="1273" type="curve" smooth="yes"/>
      <point x="29" y="56" type="line" smooth="yes"/>
      <point x="20" y="21"/>
      <point x="36" y="0"/>
      <point x="72" y="0" type="curve" smooth="yes"/>
      <point x="146" y="0" type="line" smooth="yes"/>
      <point x="176" y="0"/>
      <point x="194" y="14"/>
      <point x="202" y="43" type="curve" smooth="yes"/>
      <point x="306" y="427" type="line"/>
      <point x="844" y="427" type="line"/>
    </contour>
    <contour>
      <point x="347" y="580" type="line"/>
      <point x="525" y="1233" type="line" smooth="yes"/>
      <point x="535" y="1264"/>
      <point x="550" y="1267"/>
      <point x="575" y="1267" type="curve" smooth="yes"/>
      <point x="605" y="1267"/>
      <point x="618" y="1259"/>
      <point x="625" y="1233" type="curve" smooth="yes"/>
      <point x="803" y="580" type="line"/>
    </contour>
    <contour>
      <point x="575" y="0" type="move" name="bottom"/>
    </contour>
    <contour>
      <point x="973" y="25" type="move" name="ogonek"/>
    </contour>
    <contour>
      <point x="575" y="1400" type="move" name="top"/>
    </contour>
  </outline>
</glyph>
<glyph name="B" format="1">
  <advance width="1150"/>
  <unicode hex="0042"/>
  <outline>
    <contour>
      <point x="127" y="1400" type="line" smooth="yes"/>
      <point x="94" y="1400"/>
      <point x="77" y="1382"/>
      <point x="77" y="1350" type="curve" smooth="yes"/>
      <point x="77" y="1297" type="line" smooth="yes"/>
      <point x="77" y="1265"/>
      <point x="94" y="1247"/>
      <point x="127" y="1247" type="curve" smooth="yes"/>
      <point x="204" y="1247" type="line"/>
      <point x="204" y="50" type="line" smooth="yes"/>
      <point x="204" y="18"/>
      <point x="221" y="0"/>
      <point x="254" y="0" type="curve" smooth="yes"/>
      <point x="528" y="0" type="line" smooth="yes"/>
      <point x="652" y="0"/>
      <point x="767" y="6"/>
      <point x="873" y="82" type="curve" smooth="yes"/>
      <point x="971" y="153"/>
      <point x="1026" y="263"/>
      <point x="1026" y="383" type="curve"/>
      <point x="1028" y="541"/>
      <point x="927" y="683"/>
      <point x="763" y="739" type="curve"/>
      <point x="859" y="789"/>
      <point x="946" y="893"/>
      <point x="946" y="1042" type="curve" smooth="yes"/>
      <point x="946" y="1130"/>
      <point x="909" y="1258"/>
      <point x="785" y="1336" type="curve" smooth="yes"/>
      <point x="692" y="1395"/>
      <point x="598" y="1400"/>
      <point x="488" y="1400" type="curve" smooth="yes"/>
    </contour>
    <contour>
      <point x="488" y="1247" type="line" smooth="yes"/>
      <point x="556" y="1247"/>
      <point x="617" y="1245"/>
      <point x="678" y="1213" type="curve" smooth="yes"/>
      <point x="707" y="1198"/>
      <point x="732" y="1177"/>
      <point x="752" y="1152" type="curve" smooth="yes"/>
      <point x="784" y="1110"/>
      <point x="796" y="1065"/>
      <point x="796" y="1025" type="curve" smooth="yes"/>
      <point x="796" y="961"/>
      <point x="768" y="900"/>
      <point x="711" y="858" type="curve" smooth="yes"/>
      <point x="644" y="808"/>
      <point x="570" y="805"/>
      <point x="488" y="805" type="curve" smooth="yes"/>
      <point x="374" y="805" type="line"/>
      <point x="374" y="1247" type="line"/>
    </contour>
    <contour>
      <point x="374" y="153" type="line"/>
      <point x="374" y="652" type="line"/>
      <point x="528" y="652" type="line" smooth="yes"/>
      <point x="610" y="652"/>
      <point x="691" y="649"/>
      <point x="764" y="601" type="curve" smooth="yes"/>
      <point x="834" y="555"/>
      <point x="877" y="478"/>
      <point x="873" y="393" type="curve" smooth="yes"/>
      <point x="869" y="316"/>
      <point x="826" y="242"/>
      <point x="756" y="199" type="curve" smooth="yes"/>
      <point x="685" y="156"/>
      <point x="611" y="153"/>
      <point x="528" y="153" type="curve" smooth="yes"/>
    </contour>
    <contour>
      <point x="575" y="0" type="move" name="bottom"/>
    </contour>
  </outline>
</glyph>
<glyph name="C" format="1">
  <advance width="1150"/>
  <unicode hex="0043"/>
  <outline>
    <contour>
      <point x="1037" y="1335" type="line" smooth="yes"/>
      <point x="1044" y="1367"/>
      <point x="1031" y="1388"/>
      <point x="998" y="1394" type="curve" smooth="yes"/>
      <point x="875" y="1415"/>
      <point x="767" y="1420"/>
      <point x="702" y="1420" type="curve" smooth="yes"/>
      <point x="657" y="1420"/>
      <point x="539" y="1420"/>
      <point x="441" y="1376" type="curve" smooth="yes"/>
      <point x="366" y="1343"/>
      <point x="302" y="1286"/>
      <point x="258" y="1217" type="curve" smooth="yes"/>
      <point x="215" y="1147"/>
      <point x="191" y="1067"/>
      <point x="181" y="985" type="curve" smooth="yes"/>
      <point x="169" y="899"/>
      <point x="170" y="766"/>
      <point x="170" y="740" type="curve" smooth="yes"/>
      <point x="170" y="660" type="line" smooth="yes"/>
      <point x="170" y="634"/>
      <point x="169" y="501"/>
      <point x="181" y="415" type="curve" smooth="yes"/>
      <point x="191" y="333"/>
      <point x="215" y="253"/>
      <point x="258" y="183" type="curve" smooth="yes"/>
      <point x="302" y="114"/>
      <point x="366" y="57"/>
      <point x="441" y="24" type="curve" smooth="yes"/>
      <point x="535" y="-19"/>
      <point x="648" y="-20"/>
      <point x="702" y="-20" type="curve" smooth="yes"/>
      <point x="763" y="-20"/>
      <point x="870" y="-17"/>
      <point x="998" y="6" type="curve" smooth="yes"/>
      <point x="1031" y="12"/>
      <point x="1044" y="33"/>
      <point x="1037" y="65" type="curve" smooth="yes"/>
      <point x="1025" y="118" type="line" smooth="yes"/>
      <point x="1017" y="149"/>
      <point x="997" y="162"/>
      <point x="965" y="156" type="curve" smooth="yes"/>
      <point x="855" y="137"/>
      <point x="758" y="133"/>
      <point x="702" y="133" type="curve" smooth="yes"/>
      <point x="669" y="133"/>
      <point x="576" y="132"/>
      <point x="506" y="169" type="curve" smooth="yes"/>
      <point x="452" y="197"/>
      <point x="409" y="245"/>
      <point x="383" y="300" type="curve" smooth="yes"/>
      <point x="357" y="355"/>
      <point x="347" y="416"/>
      <point x="343" y="477" type="curve" smooth="yes"/>
      <point x="340" y="516"/>
      <point x="340" y="556"/>
      <point x="340" y="595" type="curve" smooth="yes"/>
      <point x="340" y="805" type="line" smooth="yes"/>
      <point x="340" y="844"/>
      <point x="340" y="884"/>
      <point x="343" y="923" type="curve" smooth="yes"/>
      <point x="347" y="984"/>
      <point x="357" y="1045"/>
      <point x="383" y="1100" type="curve" smooth="yes"/>
      <point x="409" y="1155"/>
      <point x="452" y="1203"/>
      <point x="506" y="1231" type="curve" smooth="yes"/>
      <point x="573" y="1266"/>
      <point x="661" y="1267"/>
      <point x="702" y="1267" type="curve" smooth="yes"/>
      <point x="751" y="1267"/>
      <point x="852" y="1263"/>
      <point x="965" y="1244" type="curve" smooth="yes"/>
      <point x="997" y="1238"/>
      <point x="1017" y="1251"/>
      <point x="1025" y="1282" type="curve" smooth="yes"/>
    </contour>
    <contour>
      <point x="575" y="0" type="move" name="bottom"/>
    </contour>
    <contour>
      <point x="575" y="1400" type="move" name="top"/>
    </contour>
  </outline>
</glyph>
<glyph name="D" format="1">
  <advance width="1150"/>
  <unicode hex="0044"/>
  <outline>
    <contour>
      <point x="127" y="1400" type="line" smooth="yes"/>
      <point x="94" y="1400"/>
      <point x="77" y="1382"/>
      <point x="77" y="1350" type="curve" smooth="yes"/>
      <point x="77" y="1297" type="line" smooth="yes"/>
      <point x="77" y="1265"/>
      <point x="94" y="1247"/>
      <point x="127" y="1247" type="curve" smooth="yes"/>
      <point x="204" y="1247" type="line"/>
      <point x="204" y="50" type="line"/>
      <point x="204" y="18"/>
      <point x="221" y="0"/>
      <point x="254" y="0" type="curve" smooth="yes"/>
      <point x="366" y="0" type="line" smooth="yes"/>
      <point x="554" y="0"/>
      <point x="730" y="10"/>
      <point x="873" y="142" type="curve" smooth="yes"/>
      <point x="939" y="204"/>
      <point x="985" y="285"/>
      <point x="1009" y="372" type="curve" smooth="yes"/>
      <point x="1032" y="459"/>
      <point x="1034" y="550"/>
      <point x="1034" y="640" type="curve" smooth="yes"/>
      <point x="1034" y="760" type="line" smooth="yes"/>
      <point x="1034" y="856"/>
      <point x="1031" y="954"/>
      <point x="1001" y="1045" type="curve" smooth="yes"/>
      <point x="970" y="1136"/>
      <point x="913" y="1218"/>
      <point x="836" y="1276" type="curve" smooth="yes"/>
      <point x="679" y="1395"/>
      <point x="491" y="1400"/>
      <point x="288" y="1400" type="curve" smooth="yes"/>
    </contour>
    <contour>
      <point x="864" y="640" type="line" smooth="yes"/>
      <point x="864" y="572"/>
      <point x="863" y="504"/>
      <point x="846" y="438" type="curve" smooth="yes"/>
      <point x="829" y="372"/>
      <point x="795" y="311"/>
      <point x="746" y="264" type="curve" smooth="yes"/>
      <point x="642" y="164"/>
      <point x="517" y="153"/>
      <point x="374" y="153.01" type="curve"/>
      <point x="374" y="1246" type="line"/>
      <point x="492" y="1243"/>
      <point x="610" y="1228"/>
      <point x="710" y="1155" type="curve" smooth="yes"/>
      <point x="769" y="1111"/>
      <point x="814" y="1048"/>
      <point x="838" y="979" type="curve" smooth="yes"/>
      <point x="862" y="909"/>
      <point x="864" y="834"/>
      <point x="864" y="760" type="curve" smooth="yes"/>
    </contour>
    <contour>
      <point x="575" y="1400" type="move" name="top"/>
    </contour>
  </outline>
</glyph>
<glyph name="E" format="1">
  <advance width="1150"/>
  <unicode hex="0045"/>
  <outline>
    <contour>
      <point x="340" y="153" type="line"/>
      <point x="340" y="652" type="line"/>
      <point x="895" y="652" type="line" smooth="yes"/>
      <point x="927" y="652"/>
      <point x="945" y="669"/>
      <point x="945" y="701" type="curve" smooth="yes"/>
      <point x="945" y="755" type="line" smooth="yes"/>
      <point x="945" y="787"/>
      <point x="927" y="805"/>
      <point x="895" y="805" type="curve" smooth="yes"/>
      <point x="340" y="805" type="line"/>
      <point x="340" y="1247" type="line"/>
      <point x="938" y="1247" type="line" smooth="yes"/>
      <point x="970" y="1247"/>
      <point x="988" y="1264"/>
      <point x="988" y="1297" type="curve" smooth="yes"/>
      <point x="988" y="1350" type="line" smooth="yes"/>
      <point x="988" y="1383"/>
      <point x="970" y="1400"/>
      <point x="938" y="1400" type="curve" smooth="yes"/>
      <point x="220" y="1400" type="line" smooth="yes"/>
      <point x="187" y="1400"/>
      <point x="170" y="1382"/>
      <point x="170" y="1350" type="curve" smooth="yes"/>
      <point x="170" y="50" type="line" smooth="yes"/>
      <point x="170" y="18"/>
      <point x="187" y="0"/>
      <point x="220" y="0" type="curve" smooth="yes"/>
      <point x="981" y="0" type="line" smooth="yes"/>
      <point x="1014" y="0"/>
      <point x="1031" y="17"/>
      <point x="1031" y="50" type="curve" smooth="yes"/>
      <point x="1031" y="103" type="line" smooth="yes"/>
      <point x="1031" y="136"/>
      <point x="1014" y="153"/>
      <point x="981" y="153" type="curve" smooth="yes"/>
    </contour>
    <contour>
      <point x="575" y="0" type="move" name="bottom"/>
    </contour>
    <contour>
      <point x="575" y="1400" type="move" name="top"/>
    </contour>
  </outline>
</glyph>
<glyph name="F" format="1">
  <advance width="1150"/>
  <unicode hex="0046"/>
  <outline>
    <contour>
      <point x="305" y="1400" type="line" smooth="yes"/>
      <point x="302" y="1400"/>
      <point x="300" y="1400"/>
      <point x="298" y="1400" type="curve"/>
      <point x="290" y="1400" type="line"/>
      <point x="220" y="1400" type="line" smooth="yes"/>
      <point x="188" y="1400"/>
      <point x="170" y="1382"/>
      <point x="170" y="1350" type="curve" smooth="yes"/>
      <point x="170" y="50" type="line" smooth="yes"/>
      <point x="170" y="18"/>
      <point x="188" y="0"/>
      <point x="220" y="0" type="curve" smooth="yes"/>
      <point x="290" y="0" type="line" smooth="yes"/>
      <point x="323" y="0"/>
      <point x="340" y="18"/>
      <point x="340" y="50" type="curve" smooth="yes"/>
      <point x="340" y="554" type="line"/>
      <point x="938" y="554" type="line" smooth="yes"/>
      <point x="970" y="554"/>
      <point x="988" y="571"/>
      <point x="988" y="603" type="curve" smooth="yes"/>
      <point x="988" y="657" type="line" smooth="yes"/>
      <point x="988" y="689"/>
      <point x="970" y="707"/>
      <point x="938" y="707" type="curve" smooth="yes"/>
      <point x="340" y="707" type="line"/>
      <point x="340" y="1247" type="line"/>
      <point x="981" y="1247" type="line" smooth="yes"/>
      <point x="1014" y="1247"/>
      <point x="1031" y="1264"/>
      <point x="1031" y="1297" type="curve" smooth="yes"/>
      <point x="1031" y="1350" type="line" smooth="yes"/>
      <point x="1031" y="1383"/>
      <point x="1014" y="1400"/>
      <point x="981" y="1400" type="curve" smooth="yes"/>
    </contour>
    <contour>
      <point x="575" y="1400" type="move" name="top"/>
    </contour>
  </outline>
</glyph>
<glyph name="G" format="1">
  <advance width="1150"/>
  <unicode hex="0047"/>
  <outline>
    <contour>
      <point x="1023" y="727" type="line" smooth="yes"/>
      <point x="1023" y="759"/>
      <point x="1005" y="777"/>
      <point x="973" y="777" type="curve" smooth="yes"/>
      <point x="608" y="777" type="line" smooth="yes"/>
      <point x="576" y="777"/>
      <point x="558" y="759"/>
      <point x="558" y="726" type="curve" smooth="yes"/>
      <point x="558" y="674" type="line" smooth="yes"/>
      <point x="558" y="641"/>
      <point x="575" y="624"/>
      <point x="608" y="624" type="curve" smooth="yes"/>
      <point x="853" y="624" type="line"/>
      <point x="853" y="143" type="line"/>
      <point x="769" y="135"/>
      <point x="700" y="133"/>
      <point x="658" y="133" type="curve" smooth="yes"/>
      <point x="549" y="133"/>
      <point x="451" y="143"/>
      <point x="377" y="232" type="curve" smooth="yes"/>
      <point x="311" y="310"/>
      <point x="306" y="404"/>
      <point x="306" y="506" type="curve" smooth="yes"/>
      <point x="306" y="740" type="line" smooth="yes"/>
      <point x="306" y="845"/>
      <point x="298" y="994"/>
      <point x="344" y="1098" type="curve" smooth="yes"/>
      <point x="369" y="1153"/>
      <point x="411" y="1201"/>
      <point x="464" y="1230" type="curve" smooth="yes"/>
      <point x="530" y="1266"/>
      <point x="616" y="1267"/>
      <point x="658" y="1267" type="curve" smooth="yes"/>
      <point x="712" y="1267"/>
      <point x="804" y="1264"/>
      <point x="913" y="1245" type="curve" smooth="yes"/>
      <point x="945" y="1239"/>
      <point x="966" y="1251"/>
      <point x="974" y="1283" type="curve" smooth="yes"/>
      <point x="986" y="1334" type="line" smooth="yes"/>
      <point x="994" y="1366"/>
      <point x="980" y="1388"/>
      <point x="947" y="1394" type="curve" smooth="yes"/>
      <point x="827" y="1416"/>
      <point x="723" y="1420"/>
      <point x="658" y="1420" type="curve" smooth="yes"/>
      <point x="613" y="1420"/>
      <point x="496" y="1420"/>
      <point x="399" y="1375" type="curve" smooth="yes"/>
      <point x="325" y="1341"/>
      <point x="262" y="1284"/>
      <point x="220" y="1215" type="curve" smooth="yes"/>
      <point x="137" y="1077"/>
      <point x="136" y="915"/>
      <point x="136" y="740" type="curve" smooth="yes"/>
      <point x="136" y="506" type="line" smooth="yes"/>
      <point x="136" y="359"/>
      <point x="146" y="225"/>
      <point x="252" y="114" type="curve" smooth="yes"/>
      <point x="360" y="-1"/>
      <point x="502" y="-20"/>
      <point x="658" y="-20" type="curve" smooth="yes"/>
      <point x="725" y="-20"/>
      <point x="839" y="-17"/>
      <point x="977" y="5" type="curve" smooth="yes"/>
      <point x="1008" y="10"/>
      <point x="1023" y="28"/>
      <point x="1023" y="59" type="curve" smooth="yes"/>
    </contour>
    <contour>
      <point x="575" y="0" type="move" name="bottom"/>
    </contour>
    <contour>
      <point x="575" y="1400" type="move" name="top"/>
    </contour>
  </outline>
</glyph>
<glyph name="H" format="1">
  <advance width="1150"/>
  <unicode hex="0048"/>
  <outline>
    <contour>
      <point x="894" y="1400" type="line" smooth="yes"/>
      <point x="861" y="1400"/>
      <point x="844" y="1383"/>
      <point x="844" y="1350" type="curve" smooth="yes"/>
      <point x="844" y="819" type="line"/>
      <point x="306" y="819" type="line"/>
      <point x="306" y="1350" type="line" smooth="yes"/>
      <point x="306" y="1383"/>
      <point x="289" y="1400"/>
      <point x="256" y="1400" type="curve" smooth="yes"/>
      <point x="186" y="1400" type="line" smooth="yes"/>
      <point x="154" y="1400"/>
      <point x="136" y="1382"/>
      <point x="136" y="1350" type="curve" smooth="yes"/>
      <point x="136" y="50" type="line" smooth="yes"/>
      <point x="136" y="18"/>
      <point x="153" y="0"/>
      <point x="186" y="0" type="curve" smooth="yes"/>
      <point x="256" y="0" type="line" smooth="yes"/>
      <point x="289" y="0"/>
      <point x="306" y="18"/>
      <point x="306" y="50" type="curve" smooth="yes"/>
      <point x="306" y="666" type="line"/>
      <point x="844" y="666" type="line"/>
      <point x="844" y="50" type="line" smooth="yes"/>
      <point x="844" y="17"/>
      <point x="861" y="0"/>
      <point x="894" y="0" type="curve" smooth="yes"/>
      <point x="964" y="0" type="line" smooth="yes"/>
      <point x="997" y="0"/>
      <point x="1014" y="18"/>
      <point x="1014" y="50" type="curve" smooth="yes"/>
      <point x="1014" y="1350" type="line" smooth="yes"/>
      <point x="1014" y="1383"/>
      <point x="996" y="1400"/>
      <point x="964" y="1400" type="curve" smooth="yes"/>
    </contour>
    <contour>
      <point x="575" y="0" type="move" name="bottom"/>
    </contour>
    <contour>
      <point x="575" y="1400" type="move" name="top"/>
    </contour>
  </outline>
</glyph>
<glyph name="I" format="1">
  <advance width="1150"/>
  <unicode hex="0049"/>
  <outline>
    <contour>
      <point x="660" y="153" type="line"/>
      <point x="660" y="1247" type="line"/>
      <point x="910" y="1247" type="line" smooth="yes"/>
      <point x="942" y="1247"/>
      <point x="960" y="1264"/>
      <point x="960" y="1297" type="curve" smooth="yes"/>
      <point x="960" y="1350" type="line" smooth="yes"/>
      <point x="960" y="1383"/>
      <point x="942" y="1400"/>
      <point x="910" y="1400" type="curve" smooth="yes"/>
      <point x="240" y="1400" type="line" smooth="yes"/>
      <point x="208" y="1400"/>
      <point x="190" y="1383"/>
      <point x="190" y="1350" type="curve" smooth="yes"/>
      <point x="190" y="1297" type="line" smooth="yes"/>
      <point x="190" y="1265"/>
      <point x="208" y="1247"/>
      <point x="240" y="1247" type="curve" smooth="yes"/>
      <point x="490" y="1247" type="line"/>
      <point x="490" y="153" type="line"/>
      <point x="220" y="153" type="line" smooth="yes"/>
      <point x="188" y="153"/>
      <point x="170" y="136"/>
      <point x="170" y="103" type="curve" smooth="yes"/>
      <point x="170" y="50" type="line" smooth="yes"/>
      <point x="170" y="18"/>
      <point x="188" y="0"/>
      <point x="220" y="0" type="curve" smooth="yes"/>
      <point x="930" y="0" type="line" smooth="yes"/>
      <point x="963" y="0"/>
      <point x="980" y="17"/>
      <point x="980" y="50" type="curve" smooth="yes"/>
      <point x="980" y="103" type="line" smooth="yes"/>
      <point x="980" y="136"/>
      <point x="963" y="153"/>
      <point x="930" y="153" type="curve" smooth="yes"/>
    </contour>
    <contour>
      <point x="575" y="0" type="move" name="bottom"/>
    </contour>
    <contour>
      <point x="575" y="1400" type="move" name="top"/>
    </contour>
  </outline>
</glyph>
<glyph name="J" format="1">
  <advance width="1150"/>
  <unicode hex="004A"/>
  <outline>
    <contour>
      <point x="112" y="66" type="line" smooth="yes"/>
      <point x="104" y="34"/>
      <point x="117" y="12"/>
      <point x="150" y="5" type="curve" smooth="yes"/>
      <point x="257" y="-16"/>
      <point x="349" y="-20"/>
      <point x="410" y="-20" type="curve" smooth="yes"/>
      <point x="461" y="-20"/>
      <point x="560" y="-19"/>
      <point x="656" y="12" type="curve" smooth="yes"/>
      <point x="728" y="35"/>
      <point x="796" y="73"/>
      <point x="849" y="128" type="curve" smooth="yes"/>
      <point x="902" y="182"/>
      <point x="940" y="251"/>
      <point x="959" y="324" type="curve" smooth="yes"/>
      <point x="979" y="397"/>
      <point x="980" y="474"/>
      <point x="980" y="550" type="curve" smooth="yes"/>
      <point x="980" y="1350" type="line" smooth="yes"/>
      <point x="980" y="1383"/>
      <point x="963" y="1400"/>
      <point x="930" y="1400" type="curve" smooth="yes"/>
      <point x="860" y="1400" type="line" smooth="yes"/>
      <point x="828" y="1400"/>
      <point x="810" y="1382"/>
      <point x="810" y="1350" type="curve" smooth="yes"/>
      <point x="810" y="550" type="line" smooth="yes"/>
      <point x="810" y="496"/>
      <point x="809" y="441"/>
      <point x="797" y="388" type="curve" smooth="yes"/>
      <point x="785" y="335"/>
      <point x="761" y="285"/>
      <point x="724" y="244" type="curve" smooth="yes"/>
      <point x="688" y="204"/>
      <point x="641" y="174"/>
      <point x="589" y="156" type="curve" smooth="yes"/>
      <point x="525" y="135"/>
      <point x="449" y="133"/>
      <point x="410" y="133" type="curve" smooth="yes"/>
      <point x="367" y="133"/>
      <point x="282" y="137"/>
      <point x="187" y="155" type="curve" smooth="yes"/>
      <point x="155" y="161"/>
      <point x="134" y="149"/>
      <point x="126" y="118" type="curve" smooth="yes"/>
    </contour>
    <contour>
      <point x="334" y="1297" type="line" smooth="yes"/>
      <point x="334" y="1264"/>
      <point x="352" y="1247"/>
      <point x="384" y="1247" type="curve" smooth="yes"/>
      <point x="930" y="1247" type="line" smooth="yes"/>
      <point x="963" y="1247"/>
      <point x="980" y="1264"/>
      <point x="980" y="1297" type="curve" smooth="yes"/>
      <point x="980" y="1350" type="line" smooth="yes"/>
      <point x="980" y="1383"/>
      <point x="962" y="1400"/>
      <point x="930" y="1400" type="curve" smooth="yes"/>
      <point x="384" y="1400" type="line" smooth="yes"/>
      <point x="352" y="1400"/>
      <point x="334" y="1382"/>
      <point x="334" y="1350" type="curve" smooth="yes"/>
    </contour>
    <contour>
      <point x="575" y="0" type="move" name="bottom"/>
    </contour>
    <contour>
      <point x="575" y="1400" type="move" name="top"/>
    </contour>
  </outline>
</glyph>
<glyph name="K" format="1">
  <advance width="1150"/>
  <unicode hex="004B"/>
  <outline>
    <contour>
      <point x="936" y="1168" type="line" smooth="yes"/>
      <point x="970" y="1199"/>
      <point x="1003" y="1231"/>
      <point x="1025" y="1270" type="curve" smooth="yes"/>
      <point x="1042" y="1298"/>
      <point x="1052" y="1330"/>
      <point x="1056" y="1362" type="curve" smooth="yes"/>
      <point x="1059" y="1384"/>
      <point x="1053" y="1398"/>
      <point x="1031" y="1399" type="curve"/>
      <point x="933" y="1399" type="line" smooth="yes"/>
      <point x="903" y="1400"/>
      <point x="889" y="1385"/>
      <point x="878" y="1357" type="curve" smooth="yes"/>
      <point x="875" y="1349"/>
      <point x="871" y="1341"/>
      <point x="866" y="1333" type="curve" smooth="yes"/>
      <point x="854" y="1313"/>
      <point x="837" y="1296"/>
      <point x="820" y="1280" type="curve" smooth="yes"/>
      <point x="373" y="849" type="line" smooth="yes"/>
      <point x="361" y="838"/>
      <point x="350" y="827"/>
      <point x="340" y="815" type="curve"/>
      <point x="340" y="1350" type="line" smooth="yes"/>
      <point x="340" y="1383"/>
      <point x="323" y="1400"/>
      <point x="290" y="1400" type="curve" smooth="yes"/>
      <point x="220" y="1400" type="line" smooth="yes"/>
      <point x="188" y="1400"/>
      <point x="170" y="1382"/>
      <point x="170" y="1350" type="curve" smooth="yes"/>
      <point x="170" y="50" type="line" smooth="yes"/>
      <point x="170" y="18"/>
      <point x="188" y="0"/>
      <point x="220" y="0" type="curve" smooth="yes"/>
      <point x="290" y="0" type="line" smooth="yes"/>
      <point x="323" y="0"/>
      <point x="340" y="18"/>
      <point x="340" y="50" type="curve" smooth="yes"/>
      <point x="340" y="614" type="line"/>
      <point x="350" y="602"/>
      <point x="360" y="591"/>
      <point x="371" y="580" type="curve" smooth="yes"/>
      <point x="818" y="122" type="line" smooth="yes"/>
      <point x="835" y="105"/>
      <point x="851" y="87"/>
      <point x="864" y="67" type="curve" smooth="yes"/>
      <point x="870" y="57"/>
      <point x="875" y="46"/>
      <point x="879" y="35" type="curve" smooth="yes"/>
      <point x="888" y="12"/>
      <point x="902" y="0"/>
      <point x="932" y="0" type="curve" smooth="yes"/>
      <point x="1005" y="0" type="line" smooth="yes"/>
      <point x="1039" y="0"/>
      <point x="1060" y="19"/>
      <point x="1053" y="52" type="curve" smooth="yes"/>
      <point x="1047" y="79"/>
      <point x="1037" y="104"/>
      <point x="1024" y="128" type="curve" smooth="yes"/>
      <point x="1002" y="167"/>
      <point x="970" y="199"/>
      <point x="938" y="230" type="curve" smooth="yes"/>
      <point x="479" y="678" type="line" smooth="yes"/>
      <point x="468" y="688"/>
      <point x="459" y="698"/>
      <point x="458" y="713" type="curve" smooth="yes"/>
      <point x="458" y="728"/>
      <point x="466" y="739"/>
      <point x="477" y="749" type="curve" smooth="yes"/>
    </contour>
    <contour>
      <point x="575" y="0" type="move" name="bottom"/>
    </contour>
    <contour>
      <point x="575" y="1400" type="move" name="top"/>
    </contour>
  </outline>
</glyph>
<glyph name="L" format="1">
  <advance width="1150"/>
  <unicode hex="004C"/>
  <outline>
    <contour>
      <point x="340" y="153" type="line"/>
      <point x="340" y="1350" type="line" smooth="yes"/>
      <point x="340" y="1383"/>
      <point x="323" y="1400"/>
      <point x="290" y="1400" type="curve" smooth="yes"/>
      <point x="220" y="1400" type="line" smooth="yes"/>
      <point x="188" y="1400"/>
      <point x="170" y="1382"/>
      <point x="170" y="1350" type="curve" smooth="yes"/>
      <point x="170" y="50" type="line" smooth="yes"/>
      <point x="170" y="18"/>
      <point x="187" y="0"/>
      <point x="220" y="0" type="curve" smooth="yes"/>
      <point x="1058" y="0" type="line" smooth="yes"/>
      <point x="1090" y="0"/>
      <point x="1108" y="17"/>
      <point x="1108" y="50" type="curve" smooth="yes"/>
      <point x="1108" y="103" type="line" smooth="yes"/>
      <point x="1108" y="136"/>
      <point x="1090" y="153"/>
      <point x="1057" y="153" type="curve" smooth="yes"/>
    </contour>
    <contour>
      <point x="575" y="0" type="move" name="bottom"/>
    </contour>
    <contour>
      <point x="575" y="1400" type="move" name="top"/>
    </contour>
  </outline>
</glyph>
<glyph name="M" format="1">
  <advance width="1150"/>
  <unicode hex="004D"/>
  <outline>
    <contour>
      <point x="1048" y="1360" type="line" smooth="yes"/>
      <point x="1048" y="1392"/>
      <point x="1030" y="1410"/>
      <point x="995" y="1410" type="curve" smooth="yes"/>
      <point x="957" y="1410"/>
      <point x="940" y="1407"/>
      <point x="922" y="1400" type="curve" smooth="yes"/>
      <point x="891" y="1387"/>
      <point x="878" y="1367"/>
      <point x="863" y="1337" type="curve" smooth="yes"/>
      <point x="626" y="860" type="line" smooth="yes"/>
      <point x="615" y="837"/>
      <point x="601" y="817"/>
      <point x="575" y="817" type="curve" smooth="yes"/>
      <point x="549" y="817"/>
      <point x="535" y="837"/>
      <point x="524" y="860" type="curve" smooth="yes"/>
      <point x="287" y="1334" type="line" smooth="yes"/>
      <point x="272" y="1364"/>
      <point x="259" y="1384"/>
      <point x="229" y="1398" type="curve" smooth="yes"/>
      <point x="209" y="1407"/>
      <point x="192" y="1410"/>
      <point x="155" y="1410" type="curve" smooth="yes"/>
      <point x="120" y="1410"/>
      <point x="102" y="1392"/>
      <point x="102" y="1360" type="curve" smooth="yes"/>
      <point x="102" y="50" type="line" smooth="yes"/>
      <point x="102" y="18"/>
      <point x="119" y="0"/>
      <point x="152" y="0" type="curve" smooth="yes"/>
      <point x="222" y="0" type="line" smooth="yes"/>
      <point x="255" y="0"/>
      <point x="272" y="14"/>
      <point x="272" y="40" type="curve" smooth="yes"/>
      <point x="272" y="376"/>
      <point x="270" y="711"/>
      <point x="263" y="1047" type="curve"/>
      <point x="387" y="799" type="line" smooth="yes"/>
      <point x="406" y="760"/>
      <point x="427" y="721"/>
      <point x="458" y="691" type="curve" smooth="yes"/>
      <point x="490" y="661"/>
      <point x="532" y="641"/>
      <point x="575" y="641" type="curve" smooth="yes"/>
      <point x="619" y="641"/>
      <point x="661" y="661"/>
      <point x="692" y="691" type="curve" smooth="yes"/>
      <point x="724" y="721"/>
      <point x="744" y="760"/>
      <point x="763" y="799" type="curve" smooth="yes"/>
      <point x="887" y="1049" type="line"/>
      <point x="880" y="713"/>
      <point x="878" y="376"/>
      <point x="878" y="40" type="curve" smooth="yes"/>
      <point x="878" y="14"/>
      <point x="896" y="0"/>
      <point x="928" y="0" type="curve" smooth="yes"/>
      <point x="998" y="0" type="line" smooth="yes"/>
      <point x="1031" y="0"/>
      <point x="1048" y="18"/>
      <point x="1048" y="50" type="curve" smooth="yes"/>
    </contour>
    <contour>
      <point x="575" y="0" type="move" name="bottom"/>
    </contour>
    <contour>
      <point x="575" y="1400" type="move" name="top"/>
    </contour>
  </outline>
</glyph>
<glyph name="N" format="1">
  <advance width="1150"/>
  <unicode hex="004E"/>
  <outline>
    <contour>
      <point x="1014" y="1350" type="line" smooth="yes"/>
      <point x="1014" y="1382"/>
      <point x="997" y="1400"/>
      <point x="964" y="1400" type="curve" smooth="yes"/>
      <point x="894" y="1400" type="line" smooth="yes"/>
      <point x="862" y="1400"/>
      <point x="844" y="1382"/>
      <point x="844" y="1350" type="curve" smooth="yes"/>
      <point x="844" y="993"/>
      <point x="846" y="660"/>
      <point x="854" y="331" type="curve"/>
      <point x="320" y="1316" type="line" smooth="yes"/>
      <point x="304" y="1344"/>
      <point x="290" y="1370"/>
      <point x="264" y="1388" type="curve" smooth="yes"/>
      <point x="238" y="1407"/>
      <point x="214" y="1410"/>
      <point x="176" y="1410" type="curve" smooth="yes"/>
      <point x="150" y="1410"/>
      <point x="136" y="1393"/>
      <point x="136" y="1360" type="curve" smooth="yes"/>
      <point x="136" y="50" type="line" smooth="yes"/>
      <point x="136" y="18"/>
      <point x="153" y="0"/>
      <point x="186" y="0" type="curve" smooth="yes"/>
      <point x="256" y="0" type="line" smooth="yes"/>
      <point x="288" y="0"/>
      <point x="306" y="18"/>
      <point x="306" y="50" type="curve" smooth="yes"/>
      <point x="306" y="398"/>
      <point x="304" y="724"/>
      <point x="297" y="1044" type="curve"/>
      <point x="830" y="60" type="line" smooth="yes"/>
      <point x="845" y="33"/>
      <point x="860" y="12"/>
      <point x="889" y="0" type="curve" smooth="yes"/>
      <point x="918" y="-12"/>
      <point x="960" y="-10"/>
      <point x="974" y="-10" type="curve" smooth="yes"/>
      <point x="1000.01" y="-10"/>
      <point x="1014" y="7"/>
      <point x="1014.01" y="40" type="curve" smooth="yes"/>
    </contour>
    <contour>
      <point x="575" y="0" type="move" name="bottom"/>
    </contour>
    <contour>
      <point x="575" y="1400" type="move" name="top"/>
    </contour>
  </outline>
</glyph>
<glyph name="O" format="1">
  <advance width="1150"/>
  <unicode hex="004F"/>
  <outline>
    <contour>
      <point x="170" y="486" type="line" smooth="yes"/>
      <point x="170" y="358"/>
      <point x="176" y="244"/>
      <point x="257" y="136" type="curve" smooth="yes"/>
      <point x="331" y="36"/>
      <point x="451" y="-20"/>
      <point x="575" y="-20" type="curve" smooth="yes"/>
      <point x="699" y="-20"/>
      <point x="819" y="36"/>
      <point x="893" y="136" type="curve" smooth="yes"/>
      <point x="973" y="242"/>
      <point x="980" y="354"/>
      <point x="980" y="486" type="curve" smooth="yes"/>
      <point x="980" y="914" type="line" smooth="yes"/>
      <point x="980" y="1042"/>
      <point x="974" y="1156"/>
      <point x="893" y="1264" type="curve" smooth="yes"/>
      <point x="819" y="1364"/>
      <point x="699" y="1420"/>
      <point x="575" y="1420" type="curve" smooth="yes"/>
      <point x="451" y="1420"/>
      <point x="331" y="1364"/>
      <point x="257" y="1264" type="curve" smooth="yes"/>
      <point x="177" y="1158"/>
      <point x="170" y="1046"/>
      <point x="170" y="914" type="curve" smooth="yes"/>
    </contour>
    <contour>
      <point x="810" y="486" type="line" smooth="yes"/>
      <point x="810" y="403"/>
      <point x="808" y="326"/>
      <point x="768" y="253" type="curve" smooth="yes"/>
      <point x="728" y="180"/>
      <point x="658" y="133"/>
      <point x="575" y="133" type="curve" smooth="yes"/>
      <point x="492" y="133"/>
      <point x="422" y="180"/>
      <point x="382" y="253" type="curve" smooth="yes"/>
      <point x="342" y="326"/>
      <point x="340" y="403"/>
      <point x="340" y="486" type="curve" smooth="yes"/>
      <point x="340" y="914" type="line" smooth="yes"/>
      <point x="340" y="997"/>
      <point x="342" y="1074"/>
      <point x="382" y="1147" type="curve" smooth="yes"/>
      <point x="422" y="1220"/>
      <point x="492" y="1267"/>
      <point x="575" y="1267" type="curve" smooth="yes"/>
      <point x="658" y="1267"/>
      <point x="728" y="1220"/>
      <point x="768" y="1147" type="curve" smooth="yes"/>
      <point x="808" y="1074"/>
      <point x="810" y="997"/>
      <point x="810" y="914" type="curve" smooth="yes"/>
    </contour>
    <contour>
      <point x="575" y="0" type="move" name="bottom"/>
    </contour>
    <contour>
      <point x="575" y="1400" type="move" name="top"/>
    </contour>
  </outline>
</glyph>
<glyph name="P" format="1">
  <advance width="1150"/>
  <unicode hex="0050"/>
  <outline>
    <contour>
      <point x="220" y="1400" type="line" smooth="yes"/>
      <point x="188" y="1400"/>
      <point x="170" y="1382"/>
      <point x="170" y="1350" type="curve" smooth="yes"/>
      <point x="170" y="50" type="line" smooth="yes"/>
      <point x="170" y="18"/>
      <point x="187" y="0"/>
      <point x="220" y="0" type="curve" smooth="yes"/>
      <point x="290" y="0" type="line" smooth="yes"/>
      <point x="323" y="0"/>
      <point x="340" y="17"/>
      <point x="340" y="50" type="curve" smooth="yes"/>
      <point x="340" y="519" type="line"/>
      <point x="550" y="519" type="line" smooth="yes"/>
      <point x="683" y="519"/>
      <point x="796" y="528"/>
      <point x="898" y="622" type="curve" smooth="yes"/>
      <point x="992" y="708"/>
      <point x="1034" y="832"/>
      <point x="1034" y="959" type="curve" smooth="yes"/>
      <point x="1034" y="1086"/>
      <point x="992" y="1210"/>
      <point x="898" y="1296" type="curve" smooth="yes"/>
      <point x="797" y="1389"/>
      <point x="687" y="1400"/>
      <point x="550" y="1400" type="curve" smooth="yes"/>
    </contour>
    <contour>
      <point x="340" y="672" type="line"/>
      <point x="340" y="1247" type="line"/>
      <point x="550" y="1247" type="line" smooth="yes"/>
      <point x="635" y="1247"/>
      <point x="709" y="1241"/>
      <point x="776" y="1179" type="curve" smooth="yes"/>
      <point x="838" y="1122"/>
      <point x="864" y="1043"/>
      <point x="864" y="959" type="curve" smooth="yes"/>
      <point x="864" y="880"/>
      <point x="839" y="798"/>
      <point x="776" y="740" type="curve" smooth="yes"/>
      <point x="711" y="679"/>
      <point x="639" y="672"/>
      <point x="550" y="672" type="curve" smooth="yes"/>
    </contour>
    <contour>
      <point x="575" y="0" type="move" name="bottom"/>
    </contour>
    <contour>
      <point x="575" y="1400" type="move" name="top"/>
    </contour>
  </outline>
</glyph>
<glyph name="Q" format="1">
  <advance width="1150"/>
  <unicode hex="0051"/>
  <outline>
    <contour>
      <point x="540" y="77" type="line" smooth="yes"/>
      <point x="507" y="77"/>
      <point x="490" y="59"/>
      <point x="490" y="26" type="curve" smooth="yes"/>
      <point x="490" y="-134"/>
      <point x="494" y="-246"/>
      <point x="554" y="-344" type="curve" smooth="yes"/>
      <point x="631" y="-470"/>
      <point x="746" y="-495"/>
      <point x="893" y="-495" type="curve" smooth="yes"/>
      <point x="1015" y="-495" type="line" smooth="yes"/>
      <point x="1048" y="-495"/>
      <point x="1065" y="-478"/>
      <point x="1065" y="-445" type="curve" smooth="yes"/>
      <point x="1065" y="-392" type="line" smooth="yes"/>
      <point x="1065" y="-360"/>
      <point x="1047" y="-342"/>
      <point x="1015" y="-342" type="curve" smooth="yes"/>
      <point x="893" y="-342" type="line" smooth="yes"/>
      <point x="845" y="-342"/>
      <point x="808" y="-341"/>
      <point x="765" y="-319" type="curve" smooth="yes"/>
      <point x="727" y="-299"/>
      <point x="697" y="-264"/>
      <point x="680" y="-223" type="curve" smooth="yes"/>
      <point x="657" y="-165"/>
      <point x="658" y="-65"/>
      <point x="660" y="26" type="curve" smooth="yes"/>
      <point x="660" y="59"/>
      <point x="642" y="77"/>
      <point x="610" y="77" type="curve" smooth="yes"/>
    </contour>
    <contour>
      <point x="170" y="486" type="line" smooth="yes"/>
      <point x="170" y="358"/>
      <point x="176" y="244"/>
      <point x="257" y="136" type="curve" smooth="yes"/>
      <point x="331" y="36"/>
      <point x="451" y="-20"/>
      <point x="575" y="-20" type="curve" smooth="yes"/>
      <point x="699" y="-20"/>
      <point x="819" y="36"/>
      <point x="893" y="136" type="curve" smooth="yes"/>
      <point x="973" y="242"/>
      <point x="980" y="354"/>
      <point x="980" y="486" type="curve" smooth="yes"/>
      <point x="980" y="914" type="line" smooth="yes"/>
      <point x="980" y="1042"/>
      <point x="974" y="1156"/>
      <point x="893" y="1264" type="curve" smooth="yes"/>
      <point x="819" y="1364"/>
      <point x="699" y="1420"/>
      <point x="575" y="1420" type="curve" smooth="yes"/>
      <point x="451" y="1420"/>
      <point x="331" y="1364"/>
      <point x="257" y="1264" type="curve" smooth="yes"/>
      <point x="177" y="1158"/>
      <point x="170" y="1046"/>
      <point x="170" y="914" type="curve" smooth="yes"/>
    </contour>
    <contour>
      <point x="810" y="486" type="line" smooth="yes"/>
      <point x="810" y="403"/>
      <point x="808" y="326"/>
      <point x="768" y="253" type="curve" smooth="yes"/>
      <point x="728" y="180"/>
      <point x="658" y="133"/>
      <point x="575" y="133" type="curve" smooth="yes"/>
      <point x="492" y="133"/>
      <point x="422" y="180"/>
      <point x="382" y="253" type="curve" smooth="yes"/>
      <point x="342" y="326"/>
      <point x="340" y="403"/>
      <point x="340" y="486" type="curve" smooth="yes"/>
      <point x="340" y="914" type="line" smooth="yes"/>
      <point x="340" y="997"/>
      <point x="342" y="1074"/>
      <point x="382" y="1147" type="curve" smooth="yes"/>
      <point x="422" y="1220"/>
      <point x="492" y="1267"/>
      <point x="575" y="1267" type="curve" smooth="yes"/>
      <point x="658" y="1267"/>
      <point x="728" y="1220"/>
      <point x="768" y="1147" type="curve" smooth="yes"/>
      <point x="808" y="1074"/>
      <point x="810" y="997"/>
      <point x="810" y="914" type="curve" smooth="yes"/>
    </contour>
    <contour>
      <point x="575" y="0" type="move" name="bottom"/>
    </contour>
    <contour>
      <point x="575" y="1400" type="move" name="top"/>
    </contour>
  </outline>
</glyph>
<glyph name="R" format="1">
  <advance width="1150"/>
  <unicode hex="0052"/>
  <outline>
    <contour>
      <point x="1065" y="0" type="line" smooth="yes"/>
      <point x="1104" y="0"/>
      <point x="1119" y="24"/>
      <point x="1101" y="59" type="curve" smooth="yes"/>
      <point x="801" y="660" type="line"/>
      <point x="828" y="673"/>
      <point x="855" y="691"/>
      <point x="881" y="715" type="curve" smooth="yes"/>
      <point x="964" y="791"/>
      <point x="1000" y="900"/>
      <point x="1000" y="1012" type="curve" smooth="yes"/>
      <point x="1000" y="1120"/>
      <point x="965" y="1231"/>
      <point x="881" y="1308" type="curve" smooth="yes"/>
      <point x="793" y="1390"/>
      <point x="695" y="1400"/>
      <point x="575" y="1400" type="curve" smooth="yes"/>
      <point x="220" y="1400" type="line" smooth="yes"/>
      <point x="187" y="1400"/>
      <point x="170" y="1383"/>
      <point x="170" y="1350" type="curve" smooth="yes"/>
      <point x="170" y="50" type="line" smooth="yes"/>
      <point x="170" y="18"/>
      <point x="187" y="0"/>
      <point x="220" y="0" type="curve" smooth="yes"/>
      <point x="290" y="0" type="line" smooth="yes"/>
      <point x="322" y="0"/>
      <point x="340" y="18"/>
      <point x="340" y="50" type="curve" smooth="yes"/>
      <point x="340" y="624" type="line"/>
      <point x="575" y="624" type="line" smooth="yes"/>
      <point x="593" y="624"/>
      <point x="611" y="624"/>
      <point x="629" y="625" type="curve"/>
      <point x="923" y="36" type="line" smooth="yes"/>
      <point x="935" y="11"/>
      <point x="953" y="0"/>
      <point x="981" y="0" type="curve" smooth="yes"/>
    </contour>
    <contour>
      <point x="340" y="777" type="line"/>
      <point x="340" y="1247" type="line"/>
      <point x="575" y="1247" type="line" smooth="yes"/>
      <point x="644" y="1247"/>
      <point x="705" y="1242"/>
      <point x="759" y="1191" type="curve" smooth="yes"/>
      <point x="808" y="1145"/>
      <point x="830" y="1079"/>
      <point x="830" y="1012" type="curve" smooth="yes"/>
      <point x="830" y="945"/>
      <point x="808" y="878"/>
      <point x="759" y="833" type="curve" smooth="yes"/>
      <point x="706" y="783"/>
      <point x="648" y="777"/>
      <point x="575" y="777" type="curve" smooth="yes"/>
    </contour>
    <contour>
      <point x="575" y="0" type="move" name="bottom"/>
    </contour>
    <contour>
      <point x="575" y="1400" type="move" name="top"/>
    </contour>
  </outline>
</glyph>
<glyph name="S" format="1">
  <advance width="1150"/>
  <unicode hex="0053"/>
  <outline>
    <contour>
      <point x="905" y="1334" type="line" smooth="yes"/>
      <point x="914" y="1366"/>
      <point x="900" y="1388"/>
      <point x="867" y="1395" type="curve" smooth="yes"/>
      <point x="752" y="1416"/>
      <point x="660" y="1420"/>
      <point x="593" y="1420" type="curve" smooth="yes"/>
      <point x="537" y="1420"/>
      <point x="388" y="1426"/>
      <point x="278" y="1326" type="curve" smooth="yes"/>
      <point x="204" y="1260"/>
      <point x="169" y="1168"/>
      <point x="169" y="1076" type="curve" smooth="yes"/>
      <point x="169" y="995"/>
      <point x="199" y="883"/>
      <point x="293" y="786" type="curve" smooth="yes"/>
      <point x="361" y="718"/>
      <point x="448" y="673"/>
      <point x="536" y="632" type="curve" smooth="yes"/>
      <point x="596" y="605"/>
      <point x="657" y="577"/>
      <point x="709" y="536" type="curve" smooth="yes"/>
      <point x="769" y="490"/>
      <point x="814" y="420"/>
      <point x="814" y="343" type="curve" smooth="yes"/>
      <point x="814" y="205"/>
      <point x="713" y="133"/>
      <point x="517" y="133" type="curve" smooth="yes"/>
      <point x="459" y="133"/>
      <point x="357" y="136"/>
      <point x="236" y="157" type="curve" smooth="yes"/>
      <point x="204" y="162"/>
      <point x="183" y="149"/>
      <point x="176" y="118" type="curve" smooth="yes"/>
      <point x="164" y="65" type="line" smooth="yes"/>
      <point x="157" y="33"/>
      <point x="171" y="11"/>
      <point x="204" y="6" type="curve" smooth="yes"/>
      <point x="336" y="-16"/>
      <point x="445" y="-20"/>
      <point x="517" y="-20" type="curve" smooth="yes"/>
      <point x="831" y="-20"/>
      <point x="986" y="123"/>
      <point x="986" y="331" type="curve" smooth="yes"/>
      <point x="986" y="431"/>
      <point x="940" y="540"/>
      <point x="841" y="628" type="curve" smooth="yes"/>
      <point x="774" y="687"/>
      <point x="694" y="727"/>
      <point x="614" y="768" type="curve" smooth="yes"/>
      <point x="552" y="800"/>
      <point x="490" y="832"/>
      <point x="438" y="879" type="curve" smooth="yes"/>
      <point x="357" y="951"/>
      <point x="339" y="1022"/>
      <point x="339" y="1074" type="curve" smooth="yes"/>
      <point x="339" y="1128"/>
      <point x="361" y="1182"/>
      <point x="405" y="1218" type="curve" smooth="yes"/>
      <point x="466" y="1268"/>
      <point x="544" y="1267"/>
      <point x="593" y="1267" type="curve" smooth="yes"/>
      <point x="642" y="1267"/>
      <point x="729" y="1264"/>
      <point x="831" y="1245" type="curve" smooth="yes"/>
      <point x="863" y="1239"/>
      <point x="884" y="1251"/>
      <point x="892" y="1282" type="curve" smooth="yes"/>
    </contour>
    <contour>
      <point x="575" y="0" type="move" name="bottom"/>
    </contour>
    <contour>
      <point x="575" y="1400" type="move" name="top"/>
    </contour>
  </outline>
</glyph>
<glyph name="T" format="1">
  <advance width="1150"/>
  <unicode hex="0054"/>
  <outline>
    <contour>
      <point x="1108" y="1350" type="line" smooth="yes"/>
      <point x="1108" y="1383"/>
      <point x="1090" y="1400"/>
      <point x="1058" y="1400" type="curve" smooth="yes"/>
      <point x="93" y="1400" type="line" smooth="yes"/>
      <point x="60" y="1400"/>
      <point x="43" y="1382"/>
      <point x="43" y="1350" type="curve" smooth="yes"/>
      <point x="43" y="1297" type="line" smooth="yes"/>
      <point x="43" y="1265"/>
      <point x="60" y="1247"/>
      <point x="92" y="1247" type="curve" smooth="yes"/>
      <point x="490" y="1247" type="line"/>
      <point x="490" y="50" type="line" smooth="yes"/>
      <point x="490" y="18"/>
      <point x="507" y="0"/>
      <point x="540" y="0" type="curve" smooth="yes"/>
      <point x="610" y="0" type="line" smooth="yes"/>
      <point x="643" y="0"/>
      <point x="660" y="17"/>
      <point x="660" y="50" type="curve" smooth="yes"/>
      <point x="660" y="1247" type="line"/>
      <point x="1058" y="1247" type="line" smooth="yes"/>
      <point x="1090" y="1247"/>
      <point x="1108" y="1265"/>
      <point x="1108" y="1297" type="curve" smooth="yes"/>
    </contour>
    <contour>
      <point x="575" y="0" type="move" name="bottom"/>
    </contour>
    <contour>
      <point x="575" y="1400" type="move" name="top"/>
    </contour>
  </outline>
</glyph>
<glyph name="U" format="1">
  <advance width="1150"/>
  <unicode hex="0055"/>
  <outline>
    <contour>
      <point x="220" y="1400" type="line" smooth="yes"/>
      <point x="187" y="1400"/>
      <point x="170" y="1382"/>
      <point x="170" y="1350" type="curve" smooth="yes"/>
      <point x="170" y="405" type="line" smooth="yes"/>
      <point x="170" y="286"/>
      <point x="181" y="183"/>
      <point x="268" y="94" type="curve" smooth="yes"/>
      <point x="348" y="14"/>
      <point x="462" y="-20"/>
      <point x="575" y="-20" type="curve" smooth="yes"/>
      <point x="688" y="-20"/>
      <point x="802" y="14"/>
      <point x="882" y="94" type="curve" smooth="yes"/>
      <point x="968" y="182"/>
      <point x="980" y="282"/>
      <point x="980" y="405" type="curve" smooth="yes"/>
      <point x="980" y="1350" type="line" smooth="yes"/>
      <point x="980" y="1383"/>
      <point x="963" y="1400"/>
      <point x="930" y="1400" type="curve" smooth="yes"/>
      <point x="860" y="1400" type="line" smooth="yes"/>
      <point x="828" y="1400"/>
      <point x="810" y="1382"/>
      <point x="810" y="1350" type="curve" smooth="yes"/>
      <point x="810" y="405" type="line" smooth="yes"/>
      <point x="810" y="335"/>
      <point x="805" y="270"/>
      <point x="757" y="212" type="curve" smooth="yes"/>
      <point x="714" y="162"/>
      <point x="647" y="133"/>
      <point x="575" y="133" type="curve" smooth="yes"/>
      <point x="505" y="133"/>
      <point x="438" y="159"/>
      <point x="393" y="212" type="curve" smooth="yes"/>
      <point x="346" y="269"/>
      <point x="340" y="331"/>
      <point x="340" y="405" type="curve" smooth="yes"/>
      <point x="340" y="1350" type="line" smooth="yes"/>
      <point x="340" y="1383"/>
      <point x="322" y="1400"/>
      <point x="290" y="1400" type="curve" smooth="yes"/>
    </contour>
    <contour>
      <point x="575" y="0" type="move" name="bottom"/>
    </contour>
    <contour>
      <point x="575" y="1400" type="move" name="top"/>
    </contour>
  </outline>
</glyph>
<glyph name="V" format="1">
  <advance width="1150"/>
  <unicode hex="0056"/>
  <outline>
    <contour>
      <point x="72" y="1400" type="line" smooth="yes"/>
      <point x="36" y="1400"/>
      <point x="20" y="1379"/>
      <point x="29" y="1344" type="curve" smooth="yes"/>
      <point x="361" y="127" type="line" smooth="yes"/>
      <point x="375" y="75"/>
      <point x="391" y="38"/>
      <point x="437" y="10" type="curve" smooth="yes"/>
      <point x="479" y="-15"/>
      <point x="526" y="-20"/>
      <point x="575" y="-20" type="curve" smooth="yes"/>
      <point x="624" y="-20"/>
      <point x="671" y="-15"/>
      <point x="713" y="10" type="curve" smooth="yes"/>
      <point x="759" y="38"/>
      <point x="775" y="75"/>
      <point x="789" y="127" type="curve" smooth="yes"/>
      <point x="1121" y="1344" type="line" smooth="yes"/>
      <point x="1130" y="1379"/>
      <point x="1114" y="1400"/>
      <point x="1078" y="1400" type="curve" smooth="yes"/>
      <point x="1004" y="1400" type="line" smooth="yes"/>
      <point x="974" y="1400"/>
      <point x="956" y="1386"/>
      <point x="948" y="1357" type="curve" smooth="yes"/>
      <point x="625" y="167" type="line" smooth="yes"/>
      <point x="619" y="142"/>
      <point x="608" y="133"/>
      <point x="575" y="133" type="curve" smooth="yes"/>
      <point x="554" y="133"/>
      <point x="532" y="135"/>
      <point x="525" y="167" type="curve" smooth="yes"/>
      <point x="202" y="1357" type="line" smooth="yes"/>
      <point x="194" y="1386"/>
      <point x="176" y="1400"/>
      <point x="146" y="1400" type="curve" smooth="yes"/>
    </contour>
    <contour>
      <point x="575" y="0" type="move" name="bottom"/>
    </contour>
    <contour>
      <point x="575" y="1400" type="move" name="top"/>
    </contour>
  </outline>
</glyph>
<glyph name="W" format="1">
  <advance width="1150"/>
  <unicode hex="0057"/>
  <outline>
    <contour>
      <point x="928" y="1400" type="line" smooth="yes"/>
      <point x="896" y="1400"/>
      <point x="878" y="1382"/>
      <point x="878" y="1350" type="curve" smooth="yes"/>
      <point x="878" y="994"/>
      <point x="880" y="672"/>
      <point x="887" y="351" type="curve"/>
      <point x="763" y="601" type="line" smooth="yes"/>
      <point x="744" y="640"/>
      <point x="724" y="679"/>
      <point x="692" y="709" type="curve" smooth="yes"/>
      <point x="661" y="739"/>
      <point x="619" y="759"/>
      <point x="575" y="759" type="curve" smooth="yes"/>
      <point x="532" y="759"/>
      <point x="490" y="739"/>
      <point x="458" y="709" type="curve" smooth="yes"/>
      <point x="427" y="679"/>
      <point x="406" y="640"/>
      <point x="387" y="601" type="curve" smooth="yes"/>
      <point x="263" y="353" type="line"/>
      <point x="272" y="1350" type="line" smooth="yes"/>
      <point x="272" y="1382"/>
      <point x="254" y="1400"/>
      <point x="222" y="1400" type="curve" smooth="yes"/>
      <point x="152" y="1400" type="line" smooth="yes"/>
      <point x="119" y="1400"/>
      <point x="102" y="1383"/>
      <point x="101.999" y="1350" type="curve" smooth="yes"/>
      <point x="102" y="40" type="line" smooth="yes"/>
      <point x="102" y="7"/>
      <point x="115.999" y="-10"/>
      <point x="142" y="-10" type="curve" smooth="yes"/>
      <point x="171" y="-10"/>
      <point x="202" y="-10"/>
      <point x="229" y="2" type="curve" smooth="yes"/>
      <point x="259" y="15.9999"/>
      <point x="272" y="35.9999"/>
      <point x="287" y="66" type="curve" smooth="yes"/>
      <point x="524" y="540" type="line" smooth="yes"/>
      <point x="535" y="563"/>
      <point x="549" y="583"/>
      <point x="575" y="583" type="curve" smooth="yes"/>
      <point x="601" y="583"/>
      <point x="615" y="563"/>
      <point x="626" y="540" type="curve" smooth="yes"/>
      <point x="863" y="63" type="line" smooth="yes"/>
      <point x="878" y="32.9999"/>
      <point x="891" y="12.9999"/>
      <point x="922" y="0" type="curve" smooth="yes"/>
      <point x="946" y="-9"/>
      <point x="972" y="-10"/>
      <point x="999" y="-10" type="curve" smooth="yes"/>
      <point x="1031" y="-10"/>
      <point x="1048" y="5"/>
      <point x="1048" y="33" type="curve" smooth="yes"/>
      <point x="1048" y="1350" type="line" smooth="yes"/>
      <point x="1048" y="1383"/>
      <point x="1031" y="1400"/>
      <point x="998" y="1400" type="curve" smooth="yes"/>
    </contour>
    <contour>
      <point x="575" y="0" type="move" name="bottom"/>
    </contour>
    <contour>
      <point x="575" y="1400" type="move" name="top"/>
    </contour>
  </outline>
</glyph>
<glyph name="X" format="1">
  <advance width="1150"/>
  <unicode hex="0058"/>
  <outline>
    <contour>
      <point x="678" y="728" type="line"/>
      <point x="875" y="925" type="line" smooth="yes"/>
      <point x="931" y="981"/>
      <point x="984" y="1040"/>
      <point x="1014" y="1113" type="curve" smooth="yes"/>
      <point x="1044" y="1185"/>
      <point x="1048" y="1265"/>
      <point x="1048" y="1350" type="curve" smooth="yes"/>
      <point x="1048" y="1382"/>
      <point x="1030" y="1400"/>
      <point x="998" y="1400" type="curve" smooth="yes"/>
      <point x="928" y="1400" type="line" smooth="yes"/>
      <point x="896" y="1400"/>
      <point x="878" y="1382"/>
      <point x="878.005" y="1350" type="curve" smooth="yes"/>
      <point x="878.005" y="1327.01" type="line" smooth="yes"/>
      <point x="878" y="1274"/>
      <point x="877" y="1220"/>
      <point x="862" y="1168" type="curve" smooth="yes"/>
      <point x="854" y="1140"/>
      <point x="842" y="1113"/>
      <point x="825" y="1089" type="curve" smooth="yes"/>
      <point x="808" y="1065"/>
      <point x="788" y="1044"/>
      <point x="767" y="1023" type="curve" smooth="yes"/>
      <point x="575" y="831" type="line"/>
      <point x="383" y="1023" type="line" smooth="yes"/>
      <point x="362" y="1044"/>
      <point x="342" y="1065"/>
      <point x="325" y="1089" type="curve" smooth="yes"/>
      <point x="308" y="1113"/>
      <point x="296" y="1140"/>
      <point x="288" y="1168" type="curve" smooth="yes"/>
      <point x="273" y="1220"/>
      <point x="272" y="1274"/>
      <point x="271.993" y="1327.01" type="curve" smooth="yes"/>
      <point x="271.993" y="1350" type="line" smooth="yes"/>
      <point x="272" y="1382"/>
      <point x="254" y="1400"/>
      <point x="221.998" y="1400" type="curve" smooth="yes"/>
      <point x="152" y="1400" type="line" smooth="yes"/>
      <point x="119" y="1400"/>
      <point x="102" y="1382"/>
      <point x="102" y="1350" type="curve" smooth="yes"/>
      <point x="102" y="1265"/>
      <point x="106" y="1185"/>
      <point x="136" y="1113" type="curve" smooth="yes"/>
      <point x="166" y="1040"/>
      <point x="219" y="981"/>
      <point x="275" y="925" type="curve" smooth="yes"/>
      <point x="472" y="728" type="line"/>
      <point x="275" y="531" type="line" smooth="yes"/>
      <point x="219" y="475"/>
      <point x="166" y="416"/>
      <point x="136" y="343" type="curve" smooth="yes"/>
      <point x="106" y="271"/>
      <point x="102" y="191"/>
      <point x="102" y="113" type="curve" smooth="yes"/>
      <point x="102" y="50" type="line" smooth="yes"/>
      <point x="102" y="18"/>
      <point x="119" y="0"/>
      <point x="152" y="0" type="curve" smooth="yes"/>
      <point x="222" y="0" type="line" smooth="yes"/>
      <point x="255" y="0"/>
      <point x="272" y="17"/>
      <point x="272" y="50" type="curve" smooth="yes"/>
      <point x="272" y="113" type="line" smooth="yes"/>
      <point x="272" y="139"/>
      <point x="270" y="226"/>
      <point x="288" y="288" type="curve" smooth="yes"/>
      <point x="296" y="316"/>
      <point x="308" y="343"/>
      <point x="325" y="367" type="curve" smooth="yes"/>
      <point x="342" y="391"/>
      <point x="362" y="412"/>
      <point x="383" y="433" type="curve" smooth="yes"/>
      <point x="575" y="625" type="line"/>
      <point x="767" y="433" type="line" smooth="yes"/>
      <point x="788" y="412"/>
      <point x="808" y="391"/>
      <point x="825" y="367" type="curve" smooth="yes"/>
      <point x="842" y="343"/>
      <point x="854" y="316"/>
      <point x="862" y="288" type="curve" smooth="yes"/>
      <point x="880" y="226"/>
      <point x="878" y="139"/>
      <point x="878" y="113" type="curve" smooth="yes"/>
      <point x="878" y="50" type="line" smooth="yes"/>
      <point x="878" y="18"/>
      <point x="895" y="0"/>
      <point x="928" y="0" type="curve" smooth="yes"/>
      <point x="998" y="0" type="line" smooth="yes"/>
      <point x="1031" y="0"/>
      <point x="1048" y="17"/>
      <point x="1048" y="50" type="curve" smooth="yes"/>
      <point x="1048" y="113" type="line" smooth="yes"/>
      <point x="1048" y="191"/>
      <point x="1044" y="271"/>
      <point x="1014" y="343" type="curve" smooth="yes"/>
      <point x="984" y="416"/>
      <point x="931" y="475"/>
      <point x="875" y="531" type="curve" smooth="yes"/>
    </contour>
    <contour>
      <point x="575" y="0" type="move" name="bottom"/>
    </contour>
    <contour>
      <point x="575" y="1400" type="move" name="top"/>
    </contour>
  </outline>
</glyph>
<glyph name="Y" format="1">
  <advance width="1150"/>
  <unicode hex="0059"/>
  <outline>
    <contour>
      <point x="490" y="734" type="line"/>
      <point x="490" y="50" type="line" smooth="yes"/>
      <point x="490" y="17"/>
      <point x="507" y="0"/>
      <point x="540" y="0" type="curve" smooth="yes"/>
      <point x="610" y="0" type="line" smooth="yes"/>
      <point x="642" y="0"/>
      <point x="660" y="17"/>
      <point x="660" y="50" type="curve" smooth="yes"/>
      <point x="660" y="734" type="line"/>
    </contour>
    <contour>
      <point x="120" y="1400" type="line" smooth="yes"/>
      <point x="84" y="1400"/>
      <point x="63" y="1376"/>
      <point x="79" y="1343" type="curve" smooth="yes"/>
      <point x="368" y="758" type="line"/>
      <point x="421" y="649"/>
      <point x="465" y="616"/>
      <point x="575" y="616" type="curve" smooth="yes"/>
      <point x="685" y="616"/>
      <point x="728" y="648"/>
      <point x="782" y="758" type="curve" smooth="yes"/>
      <point x="1071" y="1343" type="line" smooth="yes"/>
      <point x="1087" y="1376"/>
      <point x="1066" y="1400"/>
      <point x="1030" y="1400" type="curve" smooth="yes"/>
      <point x="953" y="1400" type="line" smooth="yes"/>
      <point x="923" y="1400"/>
      <point x="910" y="1385"/>
      <point x="896" y="1358" type="curve" smooth="yes"/>
      <point x="618" y="803" type="line" smooth="yes"/>
      <point x="607" y="782"/>
      <point x="598" y="769"/>
      <point x="575" y="769" type="curve" smooth="yes"/>
      <point x="553" y="769"/>
      <point x="543" y="782"/>
      <point x="532" y="803" type="curve" smooth="yes"/>
      <point x="254" y="1358" type="line" smooth="yes"/>
      <point x="240" y="1385"/>
      <point x="227" y="1400"/>
      <point x="197" y="1400" type="curve" smooth="yes"/>
    </contour>
    <contour>
      <point x="575" y="0" type="move" name="bottom"/>
    </contour>
    <contour>
      <point x="575" y="1400" type="move" name="top"/>
    </contour>
  </outline>
</glyph>
<glyph name="Z" format="1">
  <advance width="1150"/>
  <unicode hex="005A"/>
  <outline>
    <contour>
      <point x="828" y="878" type="line" smooth="yes"/>
      <point x="949" y="999"/>
      <point x="980" y="1093"/>
      <point x="980" y="1315" type="curve" smooth="yes"/>
      <point x="980" y="1350" type="line" smooth="yes"/>
      <point x="980" y="1382"/>
      <point x="962" y="1400"/>
      <point x="930" y="1400" type="curve" smooth="yes"/>
      <point x="260" y="1400" type="line" smooth="yes"/>
      <point x="228" y="1400"/>
      <point x="210" y="1383"/>
      <point x="210" y="1350" type="curve" smooth="yes"/>
      <point x="210" y="1297" type="line" smooth="yes"/>
      <point x="210" y="1264"/>
      <point x="228" y="1247"/>
      <point x="261" y="1247" type="curve" smooth="yes"/>
      <point x="809" y="1247" type="line"/>
      <point x="806" y="1146"/>
      <point x="792" y="1048"/>
      <point x="719" y="975" type="curve" smooth="yes"/>
      <point x="322" y="578" type="line" smooth="yes"/>
      <point x="179" y="434"/>
      <point x="171" y="349"/>
      <point x="170" y="52" type="curve" smooth="yes"/>
      <point x="170" y="18"/>
      <point x="188" y="0"/>
      <point x="220" y="0" type="curve" smooth="yes"/>
      <point x="930" y="0" type="line" smooth="yes"/>
      <point x="962" y="0"/>
      <point x="980" y="17"/>
      <point x="980" y="50" type="curve" smooth="yes"/>
      <point x="980" y="103" type="line" smooth="yes"/>
      <point x="980" y="135"/>
      <point x="962" y="153"/>
      <point x="930" y="153" type="curve" smooth="yes"/>
      <point x="340" y="153" type="line"/>
      <point x="340" y="314"/>
      <point x="350" y="401"/>
      <point x="431" y="481" type="curve" smooth="yes"/>
    </contour>
    <contour>
      <point x="575" y="0" type="move" name="bottom"/>
    </contour>
    <contour>
      <point x="575" y="1400" type="move" name="top"/>
    </contour>
  </outline>
</glyph>
<glyph name="bracketleft" format="1">
  <advance width="1150"/>
  <unicode hex="005B"/>
  <outline>
    <contour>
      <point x="930" y="1347" type="line" smooth="yes"/>
      <point x="963" y="1347"/>
      <point x="980" y="1364"/>
      <point x="980" y="1397" type="curve" smooth="yes"/>
      <point x="980" y="1450" type="line" smooth="yes"/>
      <point x="980" y="1483"/>
      <point x="962" y="1500"/>
      <point x="930" y="1500" type="curve" smooth="yes"/>
      <point x="390" y="1500" type="line" smooth="yes"/>
      <point x="358" y="1500"/>
      <point x="340" y="1482"/>
      <point x="340" y="1450" type="curve" smooth="yes"/>
      <point x="340" y="-306" type="line" smooth="yes"/>
      <point x="340" y="-339"/>
      <point x="358" y="-356"/>
      <point x="390" y="-356" type="curve" smooth="yes"/>
      <point x="930" y="-356" type="line" smooth="yes"/>
      <point x="963" y="-356"/>
      <point x="980" y="-339"/>
      <point x="980" y="-306" type="curve" smooth="yes"/>
      <point x="980" y="-253" type="line" smooth="yes"/>
      <point x="980" y="-221"/>
      <point x="962" y="-203"/>
      <point x="930" y="-203" type="curve" smooth="yes"/>
      <point x="510" y="-203" type="line"/>
      <point x="510" y="1347" type="line"/>
    </contour>
  </outline>
</glyph>
<glyph name="backslash" format="1">
  <advance width="1150"/>
  <unicode hex="005C"/>
  <outline>
    <contour>
      <point x="194" y="1419" type="line" smooth="yes"/>
      <point x="163" y="1407"/>
      <point x="154" y="1384"/>
      <point x="166" y="1354" type="curve" smooth="yes"/>
      <point x="826" y="-274" type="line" smooth="yes"/>
      <point x="838" y="-305"/>
      <point x="861" y="-314"/>
      <point x="891" y="-302" type="curve" smooth="yes"/>
      <point x="956" y="-275" type="line" smooth="yes"/>
      <point x="987" y="-263"/>
      <point x="996" y="-240"/>
      <point x="984" y="-210" type="curve" smooth="yes"/>
      <point x="324" y="1418" type="line" smooth="yes"/>
      <point x="312" y="1449"/>
      <point x="288" y="1458"/>
      <point x="259" y="1446" type="curve" smooth="yes"/>
    </contour>
  </outline>
</glyph>
<glyph name="bracketright" format="1">
  <advance width="1150"/>
  <unicode hex="005D"/>
  <outline>
    <contour>
      <point x="220" y="1500" type="line" smooth="yes"/>
      <point x="188" y="1500"/>
      <point x="170" y="1483"/>
      <point x="170" y="1450" type="curve" smooth="yes"/>
      <point x="170" y="1397" type="line" smooth="yes"/>
      <point x="170" y="1365"/>
      <point x="188" y="1347"/>
      <point x="220" y="1347" type="curve" smooth="yes"/>
      <point x="640" y="1347" type="line"/>
      <point x="640" y="-203" type="line"/>
      <point x="220" y="-203" type="line" smooth="yes"/>
      <point x="188" y="-203"/>
      <point x="170" y="-220"/>
      <point x="170" y="-253" type="curve" smooth="yes"/>
      <point x="170" y="-306" type="line" smooth="yes"/>
      <point x="170" y="-339"/>
      <point x="188" y="-356"/>
      <point x="220" y="-356" type="curve" smooth="yes"/>
      <point x="760" y="-356" type="line" smooth="yes"/>
      <point x="793" y="-356"/>
      <point x="810" y="-338"/>
      <point x="810" y="-306" type="curve" smooth="yes"/>
      <point x="810" y="1450" type="line" smooth="yes"/>
      <point x="810" y="1483"/>
      <point x="792" y="1500"/>
      <point x="760" y="1500" type="curve" smooth="yes"/>
    </contour>
  </outline>
</glyph>
<glyph name="asciicircum" format="1">
  <advance width="1150"/>
  <unicode hex="005E"/>
  <outline>
    <contour>
      <point x="58" y="997" type="line" smooth="yes"/>
      <point x="34" y="973"/>
      <point x="35" y="948"/>
      <point x="60" y="926" type="curve" smooth="yes"/>
      <point x="105" y="885" type="line" smooth="yes"/>
      <point x="129" y="864"/>
      <point x="153" y="864"/>
      <point x="176" y="887" type="curve" smooth="yes"/>
      <point x="544" y="1266" type="line" smooth="yes"/>
      <point x="550" y="1272"/>
      <point x="561" y="1283"/>
      <point x="575" y="1283" type="curve" smooth="yes"/>
      <point x="589" y="1283"/>
      <point x="596" y="1277"/>
      <point x="606" y="1266" type="curve" smooth="yes"/>
      <point x="974" y="887" type="line" smooth="yes"/>
      <point x="997" y="864"/>
      <point x="1021" y="864"/>
      <point x="1045" y="885" type="curve" smooth="yes"/>
      <point x="1090" y="926" type="line" smooth="yes"/>
      <point x="1115" y="948"/>
      <point x="1115" y="973"/>
      <point x="1092" y="997" type="curve" smooth="yes"/>
      <point x="714" y="1364" type="line" smooth="yes"/>
      <point x="695" y="1382"/>
      <point x="675" y="1401"/>
      <point x="652" y="1415" type="curve" smooth="yes"/>
      <point x="629" y="1428"/>
      <point x="602" y="1437"/>
      <point x="575" y="1437" type="curve" smooth="yes"/>
      <point x="548" y="1437"/>
      <point x="521" y="1428"/>
      <point x="498" y="1415" type="curve" smooth="yes"/>
      <point x="475" y="1401"/>
      <point x="455" y="1382"/>
      <point x="436" y="1364" type="curve" smooth="yes"/>
    </contour>
  </outline>
</glyph>
<glyph name="underscore" format="1">
  <advance width="1150"/>
  <unicode hex="005F"/>
  <outline>
    <contour>
      <point x="102" y="-103" type="line" smooth="yes"/>
      <point x="102" y="-136"/>
      <point x="120" y="-153"/>
      <point x="152" y="-153" type="curve" smooth="yes"/>
      <point x="998" y="-153" type="line" smooth="yes"/>
      <point x="1031" y="-153"/>
      <point x="1048" y="-136"/>
      <point x="1048" y="-103" type="curve" smooth="yes"/>
      <point x="1048" y="-50" type="line" smooth="yes"/>
      <point x="1048" y="-18"/>
      <point x="1030" y="0"/>
      <point x="998" y="0" type="curve" smooth="yes"/>
      <point x="152" y="0" type="line" smooth="yes"/>
      <point x="120" y="0"/>
      <point x="102" y="-18"/>
      <point x="102" y="-50" type="curve" smooth="yes"/>
    </contour>
  </outline>
</glyph>
<glyph name="grave" format="1">
  <advance width="1150"/>
  <unicode hex="0060"/>
  <outline>
    <contour>
      <point x="817" y="1223" type="line" smooth="yes"/>
      <point x="828" y="1254"/>
      <point x="819" y="1277"/>
      <point x="790" y="1290" type="curve" smooth="yes"/>
      <point x="224" y="1549" type="line" smooth="yes"/>
      <point x="194" y="1562"/>
      <point x="171" y="1555"/>
      <point x="158" y="1525" type="curve" smooth="yes"/>
      <point x="115" y="1434" type="line" smooth="yes"/>
      <point x="101" y="1404"/>
      <point x="111" y="1380"/>
      <point x="143" y="1369" type="curve" smooth="yes"/>
      <point x="733" y="1161" type="line" smooth="yes"/>
      <point x="762" y="1151"/>
      <point x="784" y="1160"/>
      <point x="800" y="1188" type="curve" smooth="yes"/>
    </contour>
    <contour>
      <point x="575" y="1000" type="move" name="_top"/>
    </contour>
  </outline>
</glyph>
<glyph name="a" format="1">
  <advance width="1150"/>
  <unicode hex="0061"/>
  <outline>
    <contour>
      <point x="991" y="153"/>
      <point x="958" y="165"/>
      <point x="936" y="201" type="curve" smooth="yes"/>
      <point x="915" y="235"/>
      <point x="915" y="272"/>
      <point x="915" y="323" type="curve" smooth="yes"/>
      <point x="915" y="638" type="line" smooth="yes"/>
      <point x="915" y="688"/>
      <point x="914" y="739"/>
      <point x="902" y="788" type="curve" smooth="yes"/>
      <point x="890" y="838"/>
      <point x="867" y="884"/>
      <point x="832" y="921" type="curve" smooth="yes"/>
      <point x="797" y="958"/>
      <point x="752" y="985"/>
      <point x="704" y="1000" type="curve" smooth="yes"/>
      <point x="641" y="1020"/>
      <point x="563" y="1020"/>
      <point x="523" y="1020" type="curve" smooth="yes"/>
      <point x="431" y="1019"/>
      <point x="348" y="1012"/>
      <point x="274" y="998" type="curve" smooth="yes"/>
      <point x="241" y="992"/>
      <point x="228" y="971"/>
      <point x="236" y="939" type="curve" smooth="yes"/>
      <point x="249" y="886" type="line" smooth="yes"/>
      <point x="257" y="855"/>
      <point x="278" y="843"/>
      <point x="310" y="849" type="curve" smooth="yes"/>
      <point x="393" y="863"/>
      <point x="477" y="867"/>
      <point x="523" y="867" type="curve" smooth="yes"/>
      <point x="658" y="867"/>
      <point x="745" y="814"/>
      <point x="745" y="618" type="curve"/>
      <point x="551" y="618" type="line"/>
      <point x="278" y="618"/>
      <point x="130" y="505"/>
      <point x="130" y="298" type="curve" smooth="yes"/>
      <point x="133" y="92"/>
      <point x="249" y="-20"/>
      <point x="458" y="-20" type="curve" smooth="yes"/>
      <point x="636" y="-20"/>
      <point x="750" y="47"/>
      <point x="783" y="170" type="curve"/>
      <point x="793" y="141"/>
      <point x="810" y="113"/>
      <point x="828" y="87" type="curve" smooth="yes"/>
      <point x="851" y="54"/>
      <point x="886" y="29"/>
      <point x="924" y="15" type="curve" smooth="yes"/>
      <point x="963" y="1"/>
      <point x="1004" y="0"/>
      <point x="1045" y="0" type="curve" smooth="yes"/>
      <point x="1071" y="0"/>
      <point x="1085" y="18"/>
      <point x="1085" y="50" type="curve" smooth="yes"/>
      <point x="1085" y="103" type="line" smooth="yes"/>
      <point x="1085" y="136"/>
      <point x="1076" y="153"/>
      <point x="1060" y="153" type="curve" smooth="yes"/>
    </contour>
    <contour>
      <point x="745" y="363" type="line" smooth="yes"/>
      <point x="745" y="214"/>
      <point x="644" y="133"/>
      <point x="458" y="133" type="curve" smooth="yes"/>
      <point x="354" y="133"/>
      <point x="299" y="185"/>
      <point x="300" y="280" type="curve" smooth="yes"/>
      <point x="301" y="399"/>
      <point x="390" y="464"/>
      <point x="551" y="464" type="curve"/>
      <point x="745" y="464" type="line"/>
    </contour>
    <contour>
      <point x="973" y="25" type="move" name="ogonek"/>
    </contour>
    <contour>
      <point x="575" y="1000" type="move" name="top"/>
    </contour>
  </outline>
</glyph>
<glyph name="b" format="1">
  <advance width="1150"/>
  <unicode hex="0062"/>
  <outline>
    <contour>
      <point x="340" y="1455" type="line" smooth="yes"/>
      <point x="340" y="1489"/>
      <point x="321" y="1506"/>
      <point x="288" y="1503" type="curve" smooth="yes"/>
      <point x="218" y="1497" type="line" smooth="yes"/>
      <point x="186" y="1494"/>
      <point x="170" y="1476"/>
      <point x="170" y="1445" type="curve" smooth="yes"/>
      <point x="170" y="59" type="line" smooth="yes"/>
      <point x="170" y="27.9949"/>
      <point x="185" y="10"/>
      <point x="216" y="5" type="curve" smooth="yes"/>
      <point x="341" y="-16"/>
      <point x="451" y="-20"/>
      <point x="517" y="-20" type="curve" smooth="yes"/>
      <point x="656" y="-20"/>
      <point x="784" y="-4"/>
      <point x="881" y="105" type="curve" smooth="yes"/>
      <point x="972" y="206"/>
      <point x="980" y="325"/>
      <point x="980" y="460" type="curve" smooth="yes"/>
      <point x="980" y="540" type="line" smooth="yes"/>
      <point x="980" y="671"/>
      <point x="973" y="793"/>
      <point x="881" y="895" type="curve" smooth="yes"/>
      <point x="785" y="1002"/>
      <point x="660" y="1020"/>
      <point x="517" y="1020" type="curve" smooth="yes"/>
      <point x="478" y="1020"/>
      <point x="415" y="1018"/>
      <point x="340" y="1011" type="curve"/>
    </contour>
    <contour>
      <point x="810" y="460" type="line" smooth="yes"/>
      <point x="810" y="374"/>
      <point x="808" y="291"/>
      <point x="757" y="223" type="curve" smooth="yes"/>
      <point x="697" y="143"/>
      <point x="618" y="133"/>
      <point x="517" y="133" type="curve" smooth="yes"/>
      <point x="481" y="133"/>
      <point x="417" y="134"/>
      <point x="340" y="140" type="curve"/>
      <point x="340" y="859" type="line"/>
      <point x="414" y="865"/>
      <point x="477" y="867"/>
      <point x="517" y="867" type="curve" smooth="yes"/>
      <point x="614" y="867"/>
      <point x="696" y="858"/>
      <point x="757" y="777" type="curve" smooth="yes"/>
      <point x="807" y="710"/>
      <point x="810" y="630"/>
      <point x="810" y="540" type="curve" smooth="yes"/>
    </contour>
  </outline>
</glyph>
<glyph name="c" format="1">
  <advance width="1150"/>
  <unicode hex="0063"/>
  <outline>
    <contour>
      <point x="987" y="938" type="line" smooth="yes"/>
      <point x="996" y="970"/>
      <point x="983" y="993"/>
      <point x="950" y="999" type="curve" smooth="yes"/>
      <point x="864" y="1016"/>
      <point x="784" y="1020"/>
      <point x="735" y="1020" type="curve" smooth="yes"/>
      <point x="587" y="1018"/>
      <point x="448" y="994"/>
      <point x="345" y="901" type="curve" smooth="yes"/>
      <point x="234" y="800"/>
      <point x="221" y="683"/>
      <point x="221" y="500" type="curve" smooth="yes"/>
      <point x="221" y="320"/>
      <point x="233" y="201"/>
      <point x="345" y="99" type="curve" smooth="yes"/>
      <point x="452" y="3"/>
      <point x="596" y="-20"/>
      <point x="735" y="-20" type="curve" smooth="yes"/>
      <point x="779" y="-20"/>
      <point x="859" y="-17"/>
      <point x="950" y="1" type="curve" smooth="yes"/>
      <point x="983" y="7"/>
      <point x="996" y="30"/>
      <point x="987" y="62" type="curve" smooth="yes"/>
      <point x="972" y="114" type="line" smooth="yes"/>
      <point x="964" y="145"/>
      <point x="943" y="156"/>
      <point x="911" y="150" type="curve" smooth="yes"/>
      <point x="840" y="136"/>
      <point x="775" y="133"/>
      <point x="735" y="133" type="curve" smooth="yes"/>
      <point x="638" y="133"/>
      <point x="543" y="146"/>
      <point x="471" y="215" type="curve" smooth="yes"/>
      <point x="398" y="285"/>
      <point x="391" y="368"/>
      <point x="391" y="500" type="curve" smooth="yes"/>
      <point x="391" y="628"/>
      <point x="397" y="714"/>
      <point x="471" y="785" type="curve" smooth="yes"/>
      <point x="543" y="854"/>
      <point x="638" y="867"/>
      <point x="735" y="867" type="curve" smooth="yes"/>
      <point x="804" y="866"/>
      <point x="857" y="861"/>
      <point x="912" y="850" type="curve" smooth="yes"/>
      <point x="943" y="844"/>
      <point x="964" y="856"/>
      <point x="972" y="886" type="curve" smooth="yes"/>
    </contour>
    <contour>
      <point x="575" y="0" type="move" name="bottom"/>
    </contour>
  </outline>
</glyph>
<glyph name="d" format="1">
  <advance width="1150"/>
  <unicode hex="0064"/>
  <outline>
    <contour>
      <point x="858" y="1497" type="line" smooth="yes"/>
      <point x="826" y="1494"/>
      <point x="810" y="1476"/>
      <point x="810" y="1445" type="curve" smooth="yes"/>
      <point x="810" y="1011" type="line"/>
      <point x="737" y="1018"/>
      <point x="674" y="1020"/>
      <point x="633" y="1020" type="curve" smooth="yes"/>
      <point x="592" y="1020"/>
      <point x="500" y="1019"/>
      <point x="426" y="995" type="curve" smooth="yes"/>
      <point x="366" y="976"/>
      <point x="311" y="942"/>
      <point x="269" y="895" type="curve" smooth="yes"/>
      <point x="178" y="794"/>
      <point x="170" y="675"/>
      <point x="170" y="540" type="curve" smooth="yes"/>
      <point x="170" y="460" type="line" smooth="yes"/>
      <point x="170" y="329"/>
      <point x="177" y="207"/>
      <point x="269" y="105" type="curve" smooth="yes"/>
      <point x="311" y="58"/>
      <point x="366" y="24"/>
      <point x="426" y="5" type="curve" smooth="yes"/>
      <point x="500" y="-20"/>
      <point x="592" y="-20"/>
      <point x="633" y="-20" type="curve" smooth="yes"/>
      <point x="696" y="-20"/>
      <point x="804" y="-17"/>
      <point x="934" y="5" type="curve" smooth="yes"/>
      <point x="965" y="10"/>
      <point x="980" y="27.9998"/>
      <point x="980" y="59" type="curve" smooth="yes"/>
      <point x="980" y="1455" type="line" smooth="yes"/>
      <point x="980" y="1489"/>
      <point x="961" y="1506"/>
      <point x="928" y="1503" type="curve" smooth="yes"/>
    </contour>
    <contour>
      <point x="810" y="141" type="line"/>
      <point x="736" y="135"/>
      <point x="673" y="133"/>
      <point x="633" y="133" type="curve" smooth="yes"/>
      <point x="608" y="133"/>
      <point x="541" y="132"/>
      <point x="492" y="150" type="curve" smooth="yes"/>
      <point x="453" y="164"/>
      <point x="418" y="189"/>
      <point x="393" y="223" type="curve" smooth="yes"/>
      <point x="343" y="290"/>
      <point x="340" y="370"/>
      <point x="340" y="460" type="curve" smooth="yes"/>
      <point x="340" y="540" type="line" smooth="yes"/>
      <point x="340" y="626"/>
      <point x="342" y="709"/>
      <point x="393" y="777" type="curve" smooth="yes"/>
      <point x="418" y="811"/>
      <point x="453" y="836"/>
      <point x="492" y="850" type="curve" smooth="yes"/>
      <point x="541" y="868"/>
      <point x="608" y="867"/>
      <point x="633" y="867" type="curve" smooth="yes"/>
      <point x="669" y="867"/>
      <point x="733" y="866"/>
      <point x="810" y="860" type="curve"/>
    </contour>
    <contour>
      <point x="575" y="0" type="move" name="bottom"/>
    </contour>
  </outline>
</glyph>
<glyph name="e" format="1">
  <advance width="1150"/>
  <unicode hex="0065"/>
  <outline>
    <contour>
      <point x="930" y="444" type="line" smooth="yes"/>
      <point x="962" y="444"/>
      <point x="980" y="461"/>
      <point x="980" y="493" type="curve" smooth="yes"/>
      <point x="980" y="540" type="line" smooth="yes"/>
      <point x="980" y="665"/>
      <point x="972" y="775"/>
      <point x="890" y="877" type="curve" smooth="yes"/>
      <point x="816" y="968"/>
      <point x="698" y="1020"/>
      <point x="575" y="1020" type="curve" smooth="yes"/>
      <point x="454" y="1020"/>
      <point x="337" y="971"/>
      <point x="260" y="877" type="curve" smooth="yes"/>
      <point x="179" y="777"/>
      <point x="170" y="669"/>
      <point x="170" y="540" type="curve" smooth="yes"/>
      <point x="170" y="460" type="line" smooth="yes"/>
      <point x="170" y="324"/>
      <point x="179" y="205"/>
      <point x="278" y="103" type="curve" smooth="yes"/>
      <point x="378" y="-1"/>
      <point x="511" y="-20"/>
      <point x="651" y="-20" type="curve" smooth="yes"/>
      <point x="706" y="-20"/>
      <point x="797" y="-17"/>
      <point x="906" y="2" type="curve" smooth="yes"/>
      <point x="939" y="8"/>
      <point x="953" y="29"/>
      <point x="945" y="61" type="curve" smooth="yes"/>
      <point x="933" y="114" type="line" smooth="yes"/>
      <point x="926" y="145"/>
      <point x="905" y="158"/>
      <point x="873" y="152" type="curve" smooth="yes"/>
      <point x="782" y="137"/>
      <point x="700" y="133"/>
      <point x="651" y="133" type="curve" smooth="yes"/>
      <point x="605" y="133"/>
      <point x="482" y="128"/>
      <point x="403" y="220" type="curve" smooth="yes"/>
      <point x="349" y="285"/>
      <point x="341" y="360"/>
      <point x="340" y="444" type="curve"/>
    </contour>
    <contour>
      <point x="341" y="597" type="line"/>
      <point x="344" y="654"/>
      <point x="353" y="708"/>
      <point x="385" y="760" type="curve" smooth="yes"/>
      <point x="427" y="826"/>
      <point x="497" y="867"/>
      <point x="575" y="867" type="curve" smooth="yes"/>
      <point x="653" y="867"/>
      <point x="723" y="826"/>
      <point x="765" y="760" type="curve" smooth="yes"/>
      <point x="796" y="709"/>
      <point x="806" y="656"/>
      <point x="809" y="597" type="curve"/>
    </contour>
    <contour>
      <point x="575" y="0" type="move" name="bottom"/>
    </contour>
    <contour>
      <point x="575" y="1000" type="move" name="top"/>
    </contour>
  </outline>
</glyph>
<glyph name="f" format="1">
  <advance width="1150"/>
  <unicode hex="0066"/>
  <outline>
    <contour>
      <point x="1006" y="1438" type="line" smooth="yes"/>
      <point x="1014" y="1471"/>
      <point x="1000" y="1492"/>
      <point x="967" y="1498" type="curve" smooth="yes"/>
      <point x="867" y="1516"/>
      <point x="777" y="1520"/>
      <point x="722" y="1520" type="curve" smooth="yes"/>
      <point x="626" y="1520"/>
      <point x="533" y="1512"/>
      <point x="462" y="1438" type="curve" smooth="yes"/>
      <point x="398" y="1371"/>
      <point x="391" y="1290"/>
      <point x="391" y="1197" type="curve" smooth="yes"/>
      <point x="391" y="1000" type="line"/>
      <point x="200" y="1000" type="line" smooth="yes"/>
      <point x="168" y="1000"/>
      <point x="150" y="982"/>
      <point x="150" y="950" type="curve" smooth="yes"/>
      <point x="150" y="897" type="line" smooth="yes"/>
      <point x="150" y="864"/>
      <point x="168" y="847"/>
      <point x="200" y="847" type="curve" smooth="yes"/>
      <point x="391" y="847" type="line"/>
      <point x="391" y="50" type="line" smooth="yes"/>
      <point x="391" y="17"/>
      <point x="408" y="0"/>
      <point x="441" y="0" type="curve" smooth="yes"/>
      <point x="511" y="0" type="line" smooth="yes"/>
      <point x="543" y="0"/>
      <point x="561" y="17"/>
      <point x="561" y="50" type="curve" smooth="yes"/>
      <point x="561" y="847" type="line"/>
      <point x="889" y="847" type="line" smooth="yes"/>
      <point x="922" y="847"/>
      <point x="939" y="865"/>
      <point x="939" y="897" type="curve" smooth="yes"/>
      <point x="939" y="950" type="line" smooth="yes"/>
      <point x="939" y="982"/>
      <point x="922" y="1000"/>
      <point x="889" y="1000" type="curve" smooth="yes"/>
      <point x="561" y="1000" type="line"/>
      <point x="561" y="1197" type="line" smooth="yes"/>
      <point x="561" y="1241"/>
      <point x="562" y="1285"/>
      <point x="588" y="1320" type="curve" smooth="yes"/>
      <point x="601" y="1338"/>
      <point x="619" y="1351"/>
      <point x="640" y="1358" type="curve" smooth="yes"/>
      <point x="666" y="1368"/>
      <point x="701" y="1367"/>
      <point x="722" y="1367" type="curve" smooth="yes"/>
      <point x="764" y="1367"/>
      <point x="842" y="1364"/>
      <point x="933" y="1348" type="curve" smooth="yes"/>
      <point x="965" y="1343"/>
      <point x="986" y="1355"/>
      <point x="993" y="1386" type="curve" smooth="yes"/>
    </contour>
    <contour>
      <point x="595" y="0" type="move" name="bottom"/>
    </contour>
  </outline>
</glyph>
<glyph name="g" format="1">
  <advance width="1150"/>
  <unicode hex="0067"/>
  <outline>
    <contour>
      <point x="535" y="161" type="line" smooth="yes"/>
      <point x="475" y="161"/>
      <point x="417" y="167"/>
      <point x="380" y="211" type="curve" smooth="yes"/>
      <point x="368" y="225"/>
      <point x="360" y="243"/>
      <point x="357" y="261" type="curve" smooth="yes"/>
      <point x="350" y="307"/>
      <point x="370" y="342"/>
      <point x="408" y="381" type="curve"/>
      <point x="468" y="364"/>
      <point x="506" y="364"/>
      <point x="555" y="364" type="curve" smooth="yes"/>
      <point x="595" y="364" type="line" smooth="yes"/>
      <point x="640" y="364"/>
      <point x="686" y="365"/>
      <point x="730" y="377" type="curve" smooth="yes"/>
      <point x="773" y="389"/>
      <point x="814" y="412"/>
      <point x="846" y="444" type="curve" smooth="yes"/>
      <point x="878" y="476"/>
      <point x="901" y="516"/>
      <point x="916" y="559" type="curve" smooth="yes"/>
      <point x="931" y="601"/>
      <point x="938" y="647"/>
      <point x="938" y="692" type="curve" smooth="yes"/>
      <point x="938" y="737"/>
      <point x="931" y="783"/>
      <point x="916" y="825" type="curve" smooth="yes"/>
      <point x="905" y="857"/>
      <point x="890" y="887"/>
      <point x="869" y="913" type="curve"/>
      <point x="906" y="929"/>
      <point x="938" y="954"/>
      <point x="961" y="986" type="curve" smooth="yes"/>
      <point x="986" y="1022"/>
      <point x="999" y="1065"/>
      <point x="1010" y="1108" type="curve" smooth="yes"/>
      <point x="1016" y="1134"/>
      <point x="1002" y="1152"/>
      <point x="970" y="1159" type="curve" smooth="yes"/>
      <point x="903" y="1174" type="line" smooth="yes"/>
      <point x="872" y="1181"/>
      <point x="852" y="1171"/>
      <point x="845" y="1145" type="curve" smooth="yes"/>
      <point x="838" y="1117"/>
      <point x="831" y="1089"/>
      <point x="817" y="1064" type="curve" smooth="yes"/>
      <point x="804" y="1038"/>
      <point x="785" y="1015"/>
      <point x="758" y="997" type="curve"/>
      <point x="711" y="1016"/>
      <point x="662" y="1020"/>
      <point x="595" y="1020" type="curve" smooth="yes"/>
      <point x="555" y="1020" type="line" smooth="yes"/>
      <point x="458" y="1020"/>
      <point x="377" y="1012"/>
      <point x="304" y="940" type="curve" smooth="yes"/>
      <point x="240" y="876"/>
      <point x="212" y="782"/>
      <point x="213" y="692" type="curve" smooth="yes"/>
      <point x="212" y="602"/>
      <point x="236" y="512"/>
      <point x="314" y="435" type="curve"/>
      <point x="295" y="414"/>
      <point x="276" y="393"/>
      <point x="261" y="370" type="curve" smooth="yes"/>
      <point x="230" y="321"/>
      <point x="219" y="280"/>
      <point x="219" y="236" type="curve" smooth="yes"/>
      <point x="219" y="206"/>
      <point x="225" y="176"/>
      <point x="237" y="149" type="curve" smooth="yes"/>
      <point x="253" y="112"/>
      <point x="277" y="83"/>
      <point x="319" y="53" type="curve"/>
      <point x="204" y="5"/>
      <point x="141" y="-101"/>
      <point x="141" y="-207" type="curve" smooth="yes"/>
      <point x="141" y="-290"/>
      <point x="177" y="-370"/>
      <point x="250" y="-425" type="curve" smooth="yes"/>
      <point x="333" y="-490"/>
      <point x="430" y="-495"/>
      <point x="535" y="-495" type="curve" smooth="yes"/>
      <point x="615" y="-495" type="line" smooth="yes"/>
      <point x="722" y="-495"/>
      <point x="811" y="-488"/>
      <point x="897" y="-425" type="curve" smooth="yes"/>
      <point x="978" y="-364"/>
      <point x="1022" y="-268"/>
      <point x="1023" y="-167" type="curve" smooth="yes"/>
      <point x="1022" y="-66"/>
      <point x="978" y="30"/>
      <point x="897" y="90" type="curve" smooth="yes"/>
      <point x="812" y="155"/>
      <point x="722" y="161"/>
      <point x="615" y="161" type="curve" smooth="yes"/>
    </contour>
    <contour>
      <point x="595" y="867" type="line" smooth="yes"/>
      <point x="644" y="867"/>
      <point x="687" y="863"/>
      <point x="724" y="823" type="curve" smooth="yes"/>
      <point x="755" y="790"/>
      <point x="768" y="743"/>
      <point x="768" y="692" type="curve" smooth="yes"/>
      <point x="768" y="645"/>
      <point x="756" y="596"/>
      <point x="724" y="561" type="curve" smooth="yes"/>
      <point x="688" y="522"/>
      <point x="648" y="517"/>
      <point x="595" y="517" type="curve" smooth="yes"/>
      <point x="555" y="517" type="line" smooth="yes"/>
      <point x="506" y="517"/>
      <point x="464" y="521"/>
      <point x="426" y="561" type="curve" smooth="yes"/>
      <point x="395" y="596"/>
      <point x="383" y="645"/>
      <point x="383" y="692" type="curve"/>
      <point x="383" y="739"/>
      <point x="394" y="788"/>
      <point x="426" y="823" type="curve" smooth="yes"/>
      <point x="462" y="862"/>
      <point x="502" y="867"/>
      <point x="555" y="867" type="curve" smooth="yes"/>
    </contour>
    <contour>
      <point x="535" y="-342" type="line" smooth="yes"/>
      <point x="473" y="-342"/>
      <point x="422" y="-341"/>
      <point x="368" y="-311" type="curve" smooth="yes"/>
      <point x="316" y="-282"/>
      <point x="282" y="-233"/>
      <point x="280" y="-173" type="curve" smooth="yes"/>
      <point x="280" y="-107"/>
      <point x="311" y="-57"/>
      <point x="363" y="-26" type="curve" smooth="yes"/>
      <point x="415" y="7"/>
      <point x="474" y="8"/>
      <point x="535" y="8" type="curve" smooth="yes"/>
      <point x="615" y="8" type="line" smooth="yes"/>
      <point x="675" y="8"/>
      <point x="725" y="5"/>
      <point x="776" y="-27" type="curve" smooth="yes"/>
      <point x="824" y="-58"/>
      <point x="852" y="-109"/>
      <point x="853" y="-167" type="curve" smooth="yes"/>
      <point x="852" y="-225"/>
      <point x="824" y="-276"/>
      <point x="776" y="-307" type="curve" smooth="yes"/>
      <point x="729" y="-339"/>
      <point x="677" y="-342"/>
      <point x="615" y="-342" type="curve" smooth="yes"/>
    </contour>
    <contour>
      <point x="575" y="0" type="move" name="bottom"/>
    </contour>
    <contour>
      <point x="575" y="1000" type="move" name="top"/>
    </contour>
  </outline>
</glyph>
<glyph name="h" format="1">
  <advance width="1150"/>
  <unicode hex="0068"/>
  <outline>
    <contour>
      <point x="340" y="1455" type="line" smooth="yes"/>
      <point x="340" y="1489"/>
      <point x="321" y="1506"/>
      <point x="288" y="1503" type="curve" smooth="yes"/>
      <point x="218" y="1497" type="line" smooth="yes"/>
      <point x="186" y="1494"/>
      <point x="170" y="1476"/>
      <point x="170" y="1445" type="curve" smooth="yes"/>
      <point x="170" y="50" type="line" smooth="yes"/>
      <point x="170" y="18"/>
      <point x="187" y="0"/>
      <point x="220" y="0" type="curve" smooth="yes"/>
      <point x="290" y="0" type="line" smooth="yes"/>
      <point x="323" y="0"/>
      <point x="340" y="17"/>
      <point x="340" y="50" type="curve" smooth="yes"/>
      <point x="340" y="858" type="line"/>
      <point x="430" y="865"/>
      <point x="507" y="867"/>
      <point x="555" y="867" type="curve" smooth="yes"/>
      <point x="634" y="867"/>
      <point x="705" y="863"/>
      <point x="758" y="804" type="curve" smooth="yes"/>
      <point x="806" y="751"/>
      <point x="810" y="686"/>
      <point x="810" y="615" type="curve" smooth="yes"/>
      <point x="810" y="50" type="line" smooth="yes"/>
      <point x="810" y="18"/>
      <point x="828" y="0"/>
      <point x="860" y="0" type="curve" smooth="yes"/>
      <point x="930" y="0" type="line" smooth="yes"/>
      <point x="963" y="0"/>
      <point x="980" y="17"/>
      <point x="980" y="50" type="curve" smooth="yes"/>
      <point x="980" y="615" type="line" smooth="yes"/>
      <point x="980" y="732"/>
      <point x="971" y="836"/>
      <point x="884" y="922" type="curve" smooth="yes"/>
      <point x="796" y="1008"/>
      <point x="682" y="1020"/>
      <point x="555" y="1020" type="curve" smooth="yes"/>
      <point x="509" y="1020"/>
      <point x="432" y="1018"/>
      <point x="340" y="1010" type="curve"/>
    </contour>
    <contour>
      <point x="575" y="0" type="move" name="bottom"/>
    </contour>
    <contour>
      <point x="745" y="1210" type="move" name="top"/>
    </contour>
  </outline>
</glyph>
<glyph name="i" format="1">
  <advance width="1150"/>
  <unicode hex="0069"/>
  <outline>
    <contour>
      <point x="660" y="1470" type="line" smooth="yes"/>
      <point x="660" y="1502"/>
      <point x="643" y="1520"/>
      <point x="610" y="1520" type="curve" smooth="yes"/>
      <point x="540" y="1520" type="line" smooth="yes"/>
      <point x="508" y="1520"/>
      <point x="490" y="1502"/>
      <point x="490" y="1470" type="curve" smooth="yes"/>
      <point x="490" y="1377" type="line" smooth="yes"/>
      <point x="490" y="1345"/>
      <point x="507" y="1327"/>
      <point x="540" y="1327" type="curve" smooth="yes"/>
      <point x="610" y="1327" type="line" smooth="yes"/>
      <point x="643" y="1327"/>
      <point x="660" y="1344"/>
      <point x="660" y="1377" type="curve" smooth="yes"/>
    </contour>
    <component base="dotlessi"/>
    <contour>
      <point x="575" y="0" type="move" name="bottom"/>
    </contour>
  </outline>
</glyph>
<glyph name="j" format="1">
  <advance width="1150"/>
  <unicode hex="006A"/>
  <outline>
    <contour>
      <point x="860" y="1520" type="line" smooth="yes"/>
      <point x="827" y="1520"/>
      <point x="810" y="1502"/>
      <point x="810" y="1470" type="curve" smooth="yes"/>
      <point x="810" y="1377" type="line" smooth="yes"/>
      <point x="810" y="1345"/>
      <point x="827" y="1327"/>
      <point x="860" y="1327" type="curve" smooth="yes"/>
      <point x="930" y="1327" type="line" smooth="yes"/>
      <point x="963" y="1327"/>
      <point x="980" y="1345"/>
      <point x="980" y="1377" type="curve" smooth="yes"/>
      <point x="980" y="1470" type="line" smooth="yes"/>
      <point x="980" y="1503"/>
      <point x="962" y="1520"/>
      <point x="930" y="1520" type="curve" smooth="yes"/>
    </contour>
    <component base="dotlessj"/>
  </outline>
</glyph>
<glyph name="k" format="1">
  <advance width="1150"/>
  <unicode hex="006B"/>
  <outline>
    <contour>
      <point x="532" y="498" type="line" smooth="yes"/>
      <point x="525" y="504"/>
      <point x="519" y="511"/>
      <point x="519" y="520" type="curve"/>
      <point x="519" y="529"/>
      <point x="525" y="536"/>
      <point x="532" y="542" type="curve" smooth="yes"/>
      <point x="933" y="938" type="line" smooth="yes"/>
      <point x="965" y="970"/>
      <point x="953" y="1000"/>
      <point x="908" y="1000" type="curve" smooth="yes"/>
      <point x="791" y="1000" type="line" smooth="yes"/>
      <point x="765" y="1000"/>
      <point x="747" y="992"/>
      <point x="730" y="974" type="curve" smooth="yes"/>
      <point x="361" y="589" type="line"/>
      <point x="340" y="589" type="line"/>
      <point x="340" y="1455" type="line" smooth="yes"/>
      <point x="340" y="1489"/>
      <point x="321" y="1506"/>
      <point x="288" y="1503" type="curve" smooth="yes"/>
      <point x="218" y="1497" type="line" smooth="yes"/>
      <point x="186" y="1494"/>
      <point x="170" y="1476"/>
      <point x="170" y="1445" type="curve" smooth="yes"/>
      <point x="170" y="50" type="line" smooth="yes"/>
      <point x="170" y="17"/>
      <point x="188" y="0"/>
      <point x="220" y="0" type="curve" smooth="yes"/>
      <point x="290" y="0" type="line" smooth="yes"/>
      <point x="322" y="0"/>
      <point x="340" y="17"/>
      <point x="340" y="49.9999" type="curve" smooth="yes"/>
      <point x="340" y="451" type="line"/>
      <point x="361" y="451" type="line"/>
      <point x="770" y="26" type="line" smooth="yes"/>
      <point x="787" y="8"/>
      <point x="805" y="0"/>
      <point x="831" y="0" type="curve" smooth="yes"/>
      <point x="948" y="0" type="line" smooth="yes"/>
      <point x="993" y="0"/>
      <point x="1005" y="30"/>
      <point x="973" y="62" type="curve" smooth="yes"/>
    </contour>
  </outline>
</glyph>
<glyph name="l" format="1">
  <advance width="1150"/>
  <unicode hex="006C"/>
  <outline>
    <contour>
      <point x="971" y="114" type="line" smooth="yes"/>
      <point x="960" y="144"/>
      <point x="939" y="154"/>
      <point x="908" y="147" type="curve" smooth="yes"/>
      <point x="858" y="136"/>
      <point x="810" y="133"/>
      <point x="777" y="133" type="curve" smooth="yes"/>
      <point x="729" y="134"/>
      <point x="681" y="137"/>
      <point x="648" y="180" type="curve" smooth="yes"/>
      <point x="622" y="214"/>
      <point x="620" y="256"/>
      <point x="620" y="299" type="curve"/>
      <point x="620" y="1450" type="line" smooth="yes"/>
      <point x="620" y="1482"/>
      <point x="601" y="1500"/>
      <point x="568" y="1500" type="curve" smooth="yes"/>
      <point x="397" y="1500"/>
      <point x="301" y="1498"/>
      <point x="213" y="1493" type="curve" smooth="yes"/>
      <point x="181" y="1491"/>
      <point x="165" y="1472"/>
      <point x="168" y="1440" type="curve" smooth="yes"/>
      <point x="172" y="1387" type="line" smooth="yes"/>
      <point x="175" y="1354"/>
      <point x="194" y="1339"/>
      <point x="226" y="1341" type="curve" smooth="yes"/>
      <point x="301" y="1345"/>
      <point x="375" y="1347"/>
      <point x="450" y="1347" type="curve"/>
      <point x="450" y="299" type="line" smooth="yes"/>
      <point x="450" y="211"/>
      <point x="456" y="131"/>
      <point x="522" y="64" type="curve" smooth="yes"/>
      <point x="590" y="-5"/>
      <point x="681" y="-20"/>
      <point x="777" y="-20" type="curve" smooth="yes"/>
      <point x="817" y="-20"/>
      <point x="880" y="-17"/>
      <point x="954" y="0" type="curve" smooth="yes"/>
      <point x="987" y="7"/>
      <point x="999" y="31"/>
      <point x="988" y="62" type="curve" smooth="yes"/>
    </contour>
  </outline>
</glyph>
<glyph name="m" format="1">
  <advance width="1150"/>
  <unicode hex="006D"/>
  <outline>
    <contour>
      <point x="102" y="50" type="line" smooth="yes"/>
      <point x="102" y="18"/>
      <point x="119" y="0"/>
      <point x="152" y="0" type="curve" smooth="yes"/>
      <point x="222" y="0" type="line" smooth="yes"/>
      <point x="255" y="0"/>
      <point x="272" y="17"/>
      <point x="272" y="50" type="curve" smooth="yes"/>
      <point x="272" y="853" type="line"/>
      <point x="350" y="858"/>
      <point x="424" y="861"/>
      <point x="490" y="863" type="curve"/>
      <point x="490" y="50" type="line" smooth="yes"/>
      <point x="490" y="17"/>
      <point x="507" y="0"/>
      <point x="540" y="0" type="curve" smooth="yes"/>
      <point x="610" y="0" type="line" smooth="yes"/>
      <point x="643" y="0"/>
      <point x="660" y="17"/>
      <point x="660" y="50" type="curve" smooth="yes"/>
      <point x="660" y="867" type="line"/>
      <point x="711" y="867" type="line" smooth="yes"/>
      <point x="766" y="867"/>
      <point x="813" y="867"/>
      <point x="847" y="825" type="curve" smooth="yes"/>
      <point x="875" y="791"/>
      <point x="878" y="753"/>
      <point x="878" y="703" type="curve" smooth="yes"/>
      <point x="878" y="50" type="line" smooth="yes"/>
      <point x="878" y="17"/>
      <point x="895" y="0"/>
      <point x="928" y="0" type="curve" smooth="yes"/>
      <point x="998" y="0" type="line" smooth="yes"/>
      <point x="1030" y="0"/>
      <point x="1048" y="18"/>
      <point x="1048" y="50" type="curve" smooth="yes"/>
      <point x="1048" y="703" type="line" smooth="yes"/>
      <point x="1048" y="792"/>
      <point x="1042" y="878"/>
      <point x="974" y="945" type="curve" smooth="yes"/>
      <point x="903" y="1016"/>
      <point x="813" y="1020"/>
      <point x="711" y="1020" type="curve" smooth="yes"/>
      <point x="606" y="1020"/>
      <point x="389" y="1016"/>
      <point x="150" y="992" type="curve" smooth="yes"/>
      <point x="118" y="988"/>
      <point x="102" y="970"/>
      <point x="102" y="939" type="curve" smooth="yes"/>
    </contour>
  </outline>
</glyph>
<glyph name="n" format="1">
  <advance width="1150"/>
  <unicode hex="006E"/>
  <outline>
    <contour>
      <point x="170" y="50" type="line"/>
      <point x="170" y="17"/>
      <point x="187" y="0"/>
      <point x="220" y="0" type="curve" smooth="yes"/>
      <point x="290" y="0" type="line" smooth="yes"/>
      <point x="323" y="0"/>
      <point x="340" y="18"/>
      <point x="340" y="50" type="curve" smooth="yes"/>
      <point x="340" y="859" type="line"/>
      <point x="430" y="865"/>
      <point x="507" y="867"/>
      <point x="555" y="867" type="curve" smooth="yes"/>
      <point x="634" y="867"/>
      <point x="705" y="863"/>
      <point x="758" y="804" type="curve" smooth="yes"/>
      <point x="806" y="751"/>
      <point x="810" y="686"/>
      <point x="810" y="615" type="curve" smooth="yes"/>
      <point x="810" y="50" type="line" smooth="yes"/>
      <point x="810" y="18"/>
      <point x="827" y="0"/>
      <point x="860" y="0" type="curve" smooth="yes"/>
      <point x="930" y="0" type="line" smooth="yes"/>
      <point x="963" y="0"/>
      <point x="980" y="17"/>
      <point x="980" y="50" type="curve" smooth="yes"/>
      <point x="980" y="615" type="line" smooth="yes"/>
      <point x="980" y="732"/>
      <point x="971" y="836"/>
      <point x="884" y="922" type="curve" smooth="yes"/>
      <point x="796" y="1008"/>
      <point x="682" y="1020"/>
      <point x="555" y="1020" type="curve" smooth="yes"/>
      <point x="489" y="1020"/>
      <point x="362" y="1017"/>
      <point x="216" y="995" type="curve" smooth="yes"/>
      <point x="185" y="990"/>
      <point x="170" y="972"/>
      <point x="170" y="941" type="curve"/>
    </contour>
    <contour>
      <point x="575" y="1000" type="move" name="top"/>
    </contour>
  </outline>
</glyph>
<glyph name="p" format="1">
  <advance width="1150"/>
  <unicode hex="0070"/>
  <outline>
    <contour>
      <point x="213" y="-442" type="line" smooth="yes"/>
      <point x="213" y="-475"/>
      <point x="232" y="-492"/>
      <point x="265" y="-489" type="curve" smooth="yes"/>
      <point x="335" y="-483" type="line" smooth="yes"/>
      <point x="367" y="-480"/>
      <point x="383" y="-463"/>
      <point x="383" y="-431" type="curve" smooth="yes"/>
      <point x="383" y="-13" type="line"/>
      <point x="445.531" y="-19"/>
      <point x="499.115" y="-20"/>
      <point x="538" y="-20" type="curve" smooth="yes"/>
      <point x="611" y="-20"/>
      <point x="780" y="-23"/>
      <point x="891" y="110" type="curve" smooth="yes"/>
      <point x="973" y="211"/>
      <point x="980" y="329"/>
      <point x="980" y="460" type="curve" smooth="yes"/>
      <point x="980" y="540" type="line" smooth="yes"/>
      <point x="980" y="667"/>
      <point x="975" y="787"/>
      <point x="891" y="890" type="curve" smooth="yes"/>
      <point x="852" y="937"/>
      <point x="799" y="973"/>
      <point x="741" y="993" type="curve" smooth="yes"/>
      <point x="668" y="1019"/>
      <point x="585" y="1020"/>
      <point x="538" y="1020" type="curve" smooth="yes"/>
      <point x="479" y="1020"/>
      <point x="379" y="1017"/>
      <point x="259" y="996" type="curve" smooth="yes"/>
      <point x="228" y="990"/>
      <point x="213" y="972"/>
      <point x="213" y="941" type="curve" smooth="yes"/>
    </contour>
    <contour>
      <point x="810" y="450" type="line" smooth="yes"/>
      <point x="810" y="373"/>
      <point x="809" y="294"/>
      <point x="766" y="227" type="curve" smooth="yes"/>
      <point x="702" y="128"/>
      <point x="596" y="133"/>
      <point x="538" y="133" type="curve" smooth="yes"/>
      <point x="503.651" y="133"/>
      <point x="449.008" y="134.268"/>
      <point x="383" y="139.483" type="curve"/>
      <point x="383" y="860.82" type="line"/>
      <point x="446.282" y="865.781"/>
      <point x="499.911" y="867"/>
      <point x="538" y="867" type="curve" smooth="yes"/>
      <point x="565" y="867"/>
      <point x="626" y="869"/>
      <point x="675" y="849" type="curve" smooth="yes"/>
      <point x="712" y="833"/>
      <point x="744" y="807"/>
      <point x="766" y="773" type="curve" smooth="yes"/>
      <point x="797" y="725"/>
      <point x="799" y="714"/>
      <point x="810" y="540" type="curve"/>
    </contour>
  </outline>
</glyph>
<glyph name="q" format="1">
  <advance width="1150"/>
  <unicode hex="0071"/>
  <outline>
    <contour>
      <point x="170" y="460" type="line" smooth="yes"/>
      <point x="170" y="329"/>
      <point x="177" y="207"/>
      <point x="269" y="105" type="curve" smooth="yes"/>
      <point x="364" y="-1"/>
      <point x="492" y="-20"/>
      <point x="633" y="-20" type="curve" smooth="yes"/>
      <point x="673.788" y="-20"/>
      <point x="735.542" y="-19"/>
      <point x="810" y="-11" type="curve"/>
      <point x="810" y="-442" type="line" smooth="yes"/>
      <point x="810" y="-475"/>
      <point x="829" y="-492"/>
      <point x="862" y="-489" type="curve" smooth="yes"/>
      <point x="932" y="-483" type="line" smooth="yes"/>
      <point x="964" y="-480"/>
      <point x="980" y="-463"/>
      <point x="980" y="-431" type="curve" smooth="yes"/>
      <point x="980" y="941" type="line" smooth="yes"/>
      <point x="980" y="972"/>
      <point x="965" y="990"/>
      <point x="934" y="995" type="curve" smooth="yes"/>
      <point x="810" y="1016"/>
      <point x="699" y="1020"/>
      <point x="633" y="1020" type="curve" smooth="yes"/>
      <point x="592" y="1020"/>
      <point x="501" y="1020"/>
      <point x="426" y="995" type="curve" smooth="yes"/>
      <point x="299" y="955"/>
      <point x="215" y="858"/>
      <point x="185" y="728" type="curve" smooth="yes"/>
      <point x="171" y="666"/>
      <point x="170" y="603"/>
      <point x="170" y="540" type="curve" smooth="yes"/>
    </contour>
    <contour>
      <point x="810" y="140.435" type="line"/>
      <point x="736.902" y="134.691"/>
      <point x="674.295" y="133"/>
      <point x="633" y="133" type="curve" smooth="yes"/>
      <point x="540" y="133"/>
      <point x="453" y="142"/>
      <point x="393" y="223" type="curve" smooth="yes"/>
      <point x="341" y="294"/>
      <point x="340" y="372"/>
      <point x="340" y="460" type="curve" smooth="yes"/>
      <point x="340" y="540" type="line" smooth="yes"/>
      <point x="340" y="581"/>
      <point x="340" y="623"/>
      <point x="347" y="664" type="curve" smooth="yes"/>
      <point x="362" y="750"/>
      <point x="409" y="820"/>
      <point x="492" y="850" type="curve" smooth="yes"/>
      <point x="544" y="869"/>
      <point x="599" y="867"/>
      <point x="633" y="867" type="curve" smooth="yes"/>
      <point x="672.094" y="867"/>
      <point x="734.697" y="865.596"/>
      <point x="810" y="859.672" type="curve"/>
    </contour>
  </outline>
</glyph>
<glyph name="r" format="1">
  <advance width="1150"/>
  <unicode hex="0072"/>
  <outline>
    <contour>
      <point x="170" y="50" type="line" smooth="yes"/>
      <point x="170" y="17"/>
      <point x="187" y="0"/>
      <point x="220" y="0" type="curve" smooth="yes"/>
      <point x="290" y="0" type="line" smooth="yes"/>
      <point x="323" y="0"/>
      <point x="340" y="18"/>
      <point x="340" y="50" type="curve" smooth="yes"/>
      <point x="340" y="859" type="line"/>
      <point x="430" y="865"/>
      <point x="517" y="867"/>
      <point x="565" y="867" type="curve" smooth="yes"/>
      <point x="644" y="867"/>
      <point x="725" y="863"/>
      <point x="778" y="804" type="curve" smooth="yes"/>
      <point x="815" y="764"/>
      <point x="826" y="716"/>
      <point x="829" y="664" type="curve" smooth="yes"/>
      <point x="831" y="632"/>
      <point x="847" y="615"/>
      <point x="879" y="615" type="curve" smooth="yes"/>
      <point x="950" y="615" type="line" smooth="yes"/>
      <point x="982" y="615"/>
      <point x="1000" y="633"/>
      <point x="999" y="666" type="curve" smooth="yes"/>
      <point x="996" y="762"/>
      <point x="978" y="849"/>
      <point x="904" y="922" type="curve" smooth="yes"/>
      <point x="816" y="1008"/>
      <point x="692" y="1020"/>
      <point x="565" y="1020" type="curve" smooth="yes"/>
      <point x="499" y="1020"/>
      <point x="362" y="1017"/>
      <point x="216" y="995" type="curve" smooth="yes"/>
      <point x="185" y="990"/>
      <point x="170" y="972"/>
      <point x="170" y="941" type="curve" smooth="yes"/>
    </contour>
    <contour>
      <point x="575" y="1000" type="move" name="top"/>
    </contour>
  </outline>
</glyph>
<glyph name="t" format="1">
  <advance width="1150"/>
  <unicode hex="0074"/>
  <outline>
    <contour>
      <point x="973" y="114" type="line" smooth="yes"/>
      <point x="966" y="145"/>
      <point x="945" y="157"/>
      <point x="913" y="152" type="curve" smooth="yes"/>
      <point x="827" y="137"/>
      <point x="748" y="133"/>
      <point x="702" y="133" type="curve" smooth="yes"/>
      <point x="647" y="133"/>
      <point x="601" y="136"/>
      <point x="568" y="180" type="curve" smooth="yes"/>
      <point x="541" y="216"/>
      <point x="541" y="257"/>
      <point x="541" y="303" type="curve"/>
      <point x="541" y="847" type="line"/>
      <point x="869" y="847" type="line" smooth="yes"/>
      <point x="902" y="847"/>
      <point x="919" y="865"/>
      <point x="919" y="897" type="curve" smooth="yes"/>
      <point x="919" y="950" type="line" smooth="yes"/>
      <point x="919" y="983"/>
      <point x="902" y="1000"/>
      <point x="869" y="1000" type="curve" smooth="yes"/>
      <point x="541" y="1000" type="line"/>
      <point x="540" y="1205" type="line" smooth="yes"/>
      <point x="540" y="1239"/>
      <point x="522" y="1256"/>
      <point x="488" y="1253" type="curve" smooth="yes"/>
      <point x="418" y="1247" type="line" smooth="yes"/>
      <point x="387" y="1244"/>
      <point x="370" y="1226"/>
      <point x="370" y="1195" type="curve" smooth="yes"/>
      <point x="371" y="1000" type="line"/>
      <point x="220" y="1000" type="line" smooth="yes"/>
      <point x="187" y="1000"/>
      <point x="170" y="983"/>
      <point x="170" y="950" type="curve" smooth="yes"/>
      <point x="170" y="897" type="line" smooth="yes"/>
      <point x="170" y="865"/>
      <point x="187" y="847"/>
      <point x="220" y="847" type="curve" smooth="yes"/>
      <point x="371" y="847" type="line"/>
      <point x="371" y="303" type="line" smooth="yes"/>
      <point x="371" y="213"/>
      <point x="376" y="130"/>
      <point x="442" y="62" type="curve" smooth="yes"/>
      <point x="511" y="-10"/>
      <point x="605" y="-20"/>
      <point x="702" y="-20" type="curve" smooth="yes"/>
      <point x="755" y="-20"/>
      <point x="842" y="-17"/>
      <point x="947" y="2" type="curve" smooth="yes"/>
      <point x="980" y="8"/>
      <point x="994" y="29"/>
      <point x="986" y="61" type="curve" smooth="yes"/>
    </contour>
    <contour>
      <point x="575" y="1300" type="move" name="top"/>
    </contour>
  </outline>
</glyph>
<glyph name="u" format="1">
  <advance width="1150"/>
  <unicode hex="0075"/>
  <outline>
    <contour>
      <point x="860" y="1000" type="line" smooth="yes"/>
      <point x="828" y="1000"/>
      <point x="810" y="983"/>
      <point x="810" y="950" type="curve" smooth="yes"/>
      <point x="810" y="142" type="line"/>
      <point x="720" y="135"/>
      <point x="643" y="133"/>
      <point x="595" y="133" type="curve" smooth="yes"/>
      <point x="516" y="133"/>
      <point x="445" y="137"/>
      <point x="392" y="196" type="curve" smooth="yes"/>
      <point x="344" y="249"/>
      <point x="340" y="314"/>
      <point x="340" y="385" type="curve" smooth="yes"/>
      <point x="340" y="950" type="line" smooth="yes"/>
      <point x="340" y="982"/>
      <point x="322" y="1000"/>
      <point x="290" y="1000" type="curve" smooth="yes"/>
      <point x="220" y="1000" type="line" smooth="yes"/>
      <point x="187" y="1000"/>
      <point x="170" y="983"/>
      <point x="170" y="950" type="curve" smooth="yes"/>
      <point x="170" y="385" type="line" smooth="yes"/>
      <point x="170" y="268"/>
      <point x="179" y="164"/>
      <point x="266" y="78" type="curve" smooth="yes"/>
      <point x="354" y="-8"/>
      <point x="468" y="-20"/>
      <point x="595" y="-20" type="curve" smooth="yes"/>
      <point x="661" y="-20"/>
      <point x="788" y="-17"/>
      <point x="934" y="5" type="curve" smooth="yes"/>
      <point x="965" y="10"/>
      <point x="980" y="28"/>
      <point x="980" y="59" type="curve" smooth="yes"/>
      <point x="980" y="950" type="line" smooth="yes"/>
      <point x="980" y="983"/>
      <point x="962" y="1000"/>
      <point x="930" y="1000" type="curve" smooth="yes"/>
    </contour>
    <contour>
      <point x="575" y="1000" type="move" name="top"/>
    </contour>
  </outline>
</glyph>
<glyph name="v" format="1">
  <advance width="1150"/>
  <unicode hex="0076"/>
  <outline>
    <contour>
      <point x="157" y="1000" type="line" smooth="yes"/>
      <point x="121" y="1000"/>
      <point x="105" y="978"/>
      <point x="116" y="943" type="curve" smooth="yes"/>
      <point x="370" y="122" type="line" smooth="yes"/>
      <point x="385" y="74"/>
      <point x="401" y="38"/>
      <point x="444" y="11" type="curve" smooth="yes"/>
      <point x="482" y="-13"/>
      <point x="524" y="-20"/>
      <point x="575" y="-20" type="curve" smooth="yes"/>
      <point x="622" y="-20"/>
      <point x="667" y="-14"/>
      <point x="706" y="11" type="curve" smooth="yes"/>
      <point x="747" y="37"/>
      <point x="764" y="70"/>
      <point x="780" y="122" type="curve" smooth="yes"/>
      <point x="1034" y="943" type="line" smooth="yes"/>
      <point x="1045" y="978"/>
      <point x="1029" y="1000"/>
      <point x="993" y="1000" type="curve" smooth="yes"/>
      <point x="918" y="1000" type="line" smooth="yes"/>
      <point x="888" y="1000"/>
      <point x="870" y="987"/>
      <point x="861" y="958" type="curve" smooth="yes"/>
      <point x="618" y="167" type="line" smooth="yes"/>
      <point x="611" y="145"/>
      <point x="598" y="133"/>
      <point x="575" y="133" type="curve" smooth="yes"/>
      <point x="553" y="133"/>
      <point x="539" y="145"/>
      <point x="532" y="167" type="curve" smooth="yes"/>
      <point x="289" y="958" type="line" smooth="yes"/>
      <point x="280" y="987"/>
      <point x="262" y="1000"/>
      <point x="232" y="1000" type="curve" smooth="yes"/>
    </contour>
  </outline>
</glyph>
<glyph name="w" format="1">
  <advance width="1150"/>
  <unicode hex="0077"/>
  <outline>
    <contour>
      <point x="1048" y="950" type="line"/>
      <point x="1048" y="982"/>
      <point x="1030" y="1000"/>
      <point x="998" y="1000" type="curve" smooth="yes"/>
      <point x="928" y="1000" type="line" smooth="yes"/>
      <point x="896" y="1000"/>
      <point x="878" y="982"/>
      <point x="878" y="950" type="curve"/>
      <point x="795" y="240" type="line"/>
      <point x="847" y="225" type="line"/>
      <point x="738" y="475" type="line" smooth="yes"/>
      <point x="703" y="557"/>
      <point x="646" y="601"/>
      <point x="575" y="601" type="curve" smooth="yes"/>
      <point x="507" y="601"/>
      <point x="450" y="557"/>
      <point x="413" y="475" type="curve" smooth="yes"/>
      <point x="298" y="221" type="line"/>
      <point x="351" y="208" type="line"/>
      <point x="271" y="950" type="line" smooth="yes"/>
      <point x="268" y="982"/>
      <point x="251" y="1000"/>
      <point x="222" y="1000" type="curve" smooth="yes"/>
      <point x="152" y="1000" type="line" smooth="yes"/>
      <point x="120" y="1000"/>
      <point x="102" y="982"/>
      <point x="102" y="950" type="curve"/>
      <point x="215" y="60" type="line" smooth="yes"/>
      <point x="215" y="15"/>
      <point x="236" y="-10"/>
      <point x="275" y="-10" type="curve" smooth="yes"/>
      <point x="312" y="-10"/>
      <point x="344" y="14"/>
      <point x="364" y="58" type="curve" smooth="yes"/>
      <point x="518" y="396" type="line" smooth="yes"/>
      <point x="529" y="421"/>
      <point x="549" y="435"/>
      <point x="575" y="435" type="curve" smooth="yes"/>
      <point x="601" y="435"/>
      <point x="621" y="421"/>
      <point x="632" y="396" type="curve" smooth="yes"/>
      <point x="786" y="54" type="line" smooth="yes"/>
      <point x="805" y="13"/>
      <point x="837" y="-10"/>
      <point x="875" y="-10" type="curve" smooth="yes"/>
      <point x="909" y="-10"/>
      <point x="930" y="15"/>
      <point x="935" y="60" type="curve" smooth="yes"/>
    </contour>
    <contour>
      <point x="575" y="0" type="move" name="bottom"/>
    </contour>
    <contour>
      <point x="575" y="1000" type="move" name="top"/>
    </contour>
  </outline>
</glyph>
<glyph name="x" format="1">
  <advance width="1150"/>
  <unicode hex="0078"/>
  <outline>
    <contour>
      <point x="678" y="520" type="line"/>
      <point x="828" y="670" type="line" smooth="yes"/>
      <point x="867" y="709"/>
      <point x="905" y="750"/>
      <point x="932" y="798" type="curve" smooth="yes"/>
      <point x="964" y="854"/>
      <point x="979" y="908"/>
      <point x="979" y="950" type="curve" smooth="yes"/>
      <point x="979" y="982"/>
      <point x="962" y="1000"/>
      <point x="930" y="1000" type="curve" smooth="yes"/>
      <point x="859" y="1000" type="line" smooth="yes"/>
      <point x="827" y="1000"/>
      <point x="809" y="983"/>
      <point x="809" y="951" type="curve" smooth="yes"/>
      <point x="809" y="922"/>
      <point x="800" y="887"/>
      <point x="786" y="856" type="curve" smooth="yes"/>
      <point x="771" y="822"/>
      <point x="746" y="794"/>
      <point x="719" y="767" type="curve" smooth="yes"/>
      <point x="575" y="623" type="line"/>
      <point x="431" y="767" type="line" smooth="yes"/>
      <point x="404" y="794"/>
      <point x="379" y="822"/>
      <point x="364" y="856" type="curve" smooth="yes"/>
      <point x="350" y="887"/>
      <point x="340" y="922"/>
      <point x="341" y="951" type="curve" smooth="yes"/>
      <point x="342" y="983"/>
      <point x="323" y="1000"/>
      <point x="291" y="1000" type="curve" smooth="yes"/>
      <point x="220" y="1000" type="line" smooth="yes"/>
      <point x="188" y="1000"/>
      <point x="170" y="982"/>
      <point x="171" y="950" type="curve" smooth="yes"/>
      <point x="172" y="908"/>
      <point x="186" y="854"/>
      <point x="218" y="798" type="curve" smooth="yes"/>
      <point x="245" y="750"/>
      <point x="283" y="709"/>
      <point x="322" y="670" type="curve" smooth="yes"/>
      <point x="472" y="520" type="line"/>
      <point x="322" y="370" type="line" smooth="yes"/>
      <point x="279" y="326"/>
      <point x="237" y="279"/>
      <point x="210" y="223" type="curve" smooth="yes"/>
      <point x="182" y="161"/>
      <point x="171" y="102"/>
      <point x="171" y="50" type="curve" smooth="yes"/>
      <point x="171" y="18"/>
      <point x="188" y="0"/>
      <point x="220" y="0" type="curve" smooth="yes"/>
      <point x="290" y="0" type="line" smooth="yes"/>
      <point x="322" y="0"/>
      <point x="340" y="17"/>
      <point x="340" y="50" type="curve" smooth="yes"/>
      <point x="340" y="86"/>
      <point x="345" y="129"/>
      <point x="357" y="166" type="curve" smooth="yes"/>
      <point x="373" y="212"/>
      <point x="397" y="239"/>
      <point x="431" y="273" type="curve" smooth="yes"/>
      <point x="575" y="417" type="line"/>
      <point x="719" y="273" type="line" smooth="yes"/>
      <point x="753" y="239"/>
      <point x="777" y="212"/>
      <point x="793" y="166" type="curve" smooth="yes"/>
      <point x="805" y="129"/>
      <point x="810" y="86"/>
      <point x="810" y="50" type="curve" smooth="yes"/>
      <point x="810" y="17"/>
      <point x="828" y="0"/>
      <point x="860" y="0" type="curve" smooth="yes"/>
      <point x="930" y="0" type="line" smooth="yes"/>
      <point x="962" y="0"/>
      <point x="979" y="18"/>
      <point x="979" y="50" type="curve" smooth="yes"/>
      <point x="979" y="101"/>
      <point x="969" y="161"/>
      <point x="940" y="223" type="curve" smooth="yes"/>
      <point x="913" y="279"/>
      <point x="871" y="326"/>
      <point x="828" y="370" type="curve" smooth="yes"/>
    </contour>
  </outline>
</glyph>
<glyph name="y" format="1">
  <advance width="1150"/>
  <unicode hex="0079"/>
  <outline>
    <contour>
      <point x="918" y="1000" type="line" smooth="yes"/>
      <point x="888" y="1000"/>
      <point x="870" y="987"/>
      <point x="862" y="958" type="curve" smooth="yes"/>
      <point x="614" y="138" type="line"/>
      <point x="575" y="138" type="line" smooth="yes"/>
      <point x="551" y="138"/>
      <point x="533" y="136"/>
      <point x="524" y="166" type="curve" smooth="yes"/>
      <point x="288" y="958" type="line" smooth="yes"/>
      <point x="280" y="986"/>
      <point x="262" y="1000"/>
      <point x="232" y="1000" type="curve" smooth="yes"/>
      <point x="158" y="1000" type="line" smooth="yes"/>
      <point x="121" y="1000"/>
      <point x="105" y="978"/>
      <point x="116" y="943" type="curve" smooth="yes"/>
      <point x="378" y="125" type="line" smooth="yes"/>
      <point x="393" y="79"/>
      <point x="408" y="46"/>
      <point x="450" y="22" type="curve" smooth="yes"/>
      <point x="481" y="4"/>
      <point x="531" y="-2"/>
      <point x="572" y="-2" type="curve"/>
      <point x="523" y="-164" type="line" smooth="yes"/>
      <point x="510" y="-205"/>
      <point x="497" y="-257"/>
      <point x="465" y="-294" type="curve" smooth="yes"/>
      <point x="428" y="-336"/>
      <point x="390" y="-342"/>
      <point x="335" y="-342" type="curve" smooth="yes"/>
      <point x="101" y="-342" type="line" smooth="yes"/>
      <point x="68" y="-342"/>
      <point x="51" y="-360"/>
      <point x="50.9999" y="-392" type="curve" smooth="yes"/>
      <point x="51" y="-445" type="line" smooth="yes"/>
      <point x="51" y="-477"/>
      <point x="68" y="-495"/>
      <point x="101" y="-495" type="curve" smooth="yes"/>
      <point x="335" y="-495" type="line" smooth="yes"/>
      <point x="423" y="-495"/>
      <point x="498" y="-488"/>
      <point x="569" y="-427" type="curve" smooth="yes"/>
      <point x="635" y="-368"/>
      <point x="660" y="-294"/>
      <point x="686" y="-209" type="curve" smooth="yes"/>
      <point x="1035" y="944" type="line" smooth="yes"/>
      <point x="1045" y="978"/>
      <point x="1029" y="1000"/>
      <point x="993" y="1000" type="curve" smooth="yes"/>
    </contour>
    <contour>
      <point x="575" y="1000" type="move" name="top"/>
    </contour>
  </outline>
</glyph>
